<?xml version="1.0" encoding="utf-8"?>
<!-- Generator: Adobe Illustrator 15.1.0, SVG Export Plug-In . SVG Version: 6.00 Build 0)  -->
<!DOCTYPE svg PUBLIC "-//W3C//DTD SVG 1.1//EN" "http://www.w3.org/Graphics/SVG/1.1/DTD/svg11.dtd">
<svg version="1.1" id="Layer_1" xmlns="http://www.w3.org/2000/svg" xmlns:xlink="http://www.w3.org/1999/xlink" x="0px" y="0px"
	 width="500px" height="500px" viewBox="0 0 500 500" enable-background="new 0 0 500 500" xml:space="preserve">
<g>
	<ellipse fill="#FCCC91" cx="250" cy="389.955" rx="130.5" ry="22"/>
	<g>
		<path fill="#003637" d="M256.021,400.924l6.819,0.051c1.004,0.008,1.826-0.931,1.834-2.096l0.757-102.248
			c0.009-1.164-0.799-2.115-1.804-2.122l-6.819-0.051c-1.004-0.007-1.826,0.931-1.834,2.095l-0.757,102.25
			C254.209,399.967,255.017,400.917,256.021,400.924z"/>
		<path fill="#165555" d="M211.26,379.416l3.048,1.229c1.837,0.74,3.985-0.295,4.797-2.312l34.889-86.609
			c0.812-2.017-0.019-4.252-1.855-4.991l-3.047-1.228c-1.837-0.74-3.985,0.295-4.797,2.312l-34.889,86.609
			C208.593,376.441,209.423,378.677,211.26,379.416z"/>
		<path fill="#208986" d="M173.885,201.268l-30.994,11.467c-1.331,0.492-3.027-0.777-3.79-2.838l-3.789-10.24
			c-0.762-2.06-0.301-4.128,1.029-4.62l30.994-11.468c1.331-0.492,3.027,0.778,3.79,2.838l3.789,10.24
			C175.677,198.706,175.216,200.775,173.885,201.268z"/>
		<path fill="#165555" d="M138.859,220.359l-5.278,1.953c-2.493,0.922-5.262-0.352-6.185-2.845l-7.412-20.031
			c-0.922-2.493,0.351-5.263,2.844-6.186l5.278-1.952c2.494-0.923,5.263,0.351,6.185,2.844l7.412,20.031
			C142.626,216.668,141.353,219.438,138.859,220.359z"/>
		<path fill="#208986" d="M264.45,283.79h-7.55c-1.529,0-2.769-1.239-2.769-2.769v-53.349c0-1.528,1.239-2.769,2.769-2.769h7.55
			c1.529,0,2.769,1.24,2.769,2.769v53.349C267.219,282.551,265.979,283.79,264.45,283.79z"/>
		<path fill="#208986" d="M348.171,153.77L199.8,208.665c-2.06,0.763-4.347-0.29-5.109-2.349l-14.124-38.174
			c-0.762-2.061,0.29-4.348,2.35-5.109l148.37-54.896c2.061-0.762,4.348,0.29,5.109,2.35l14.124,38.174
			C351.282,150.72,350.229,153.008,348.171,153.77z"/>
		<path fill="#1B7975" d="M188.423,208.783c0.762,2.06,3.049,3.111,5.109,2.35l148.371-54.896c2.06-0.762,3.111-3.049,2.35-5.109
			l-6.574-17.768L181.85,191.016L188.423,208.783z"/>
		
			<ellipse transform="matrix(0.9379 -0.347 0.347 0.9379 -19.375 134.4344)" fill="#FFF200" cx="365.703" cy="121.319" rx="8.325" ry="35.309"/>
		<path fill="#165555" d="M377.171,154.975l-24.782,9.17c-2.493,0.922-5.263-0.352-6.185-2.845l-21.312-57.6
			c-0.922-2.493,0.352-5.263,2.845-6.186l24.782-9.169c2.494-0.923,5.264,0.351,6.186,2.844l21.312,57.6
			C380.938,151.283,379.665,154.052,377.171,154.975z"/>
		<path fill="#165555" d="M267.79,234.015h-13.96c-2.706,0-4.899-2.193-4.899-4.899v-63.537c0-2.705,2.193-4.898,4.899-4.898h13.96
			c2.706,0,4.899,2.193,4.899,4.898v63.537C272.689,231.821,270.496,234.015,267.79,234.015z"/>
		<path fill="#165555" d="M274.899,297.946h-27.647c-2.706,0-4.899-2.193-4.899-4.898v-10.794c0-2.705,2.193-4.898,4.899-4.898
			h27.647c2.706,0,4.899,2.193,4.899,4.898v10.794C279.799,295.753,277.605,297.946,274.899,297.946z"/>
		<path fill="#1B7E7A" d="M185.633,203.121l-18.808,6.959c-3.645,1.349-7.692-0.514-9.041-4.158l-5.38-14.54
			c-1.348-3.645,0.513-7.692,4.158-9.041l18.807-6.959c3.645-1.349,7.693,0.513,9.042,4.158l5.38,14.54
			C191.139,197.725,189.277,201.773,185.633,203.121z"/>
		<circle fill="#084242" cx="260.81" cy="162.422" r="11.879"/>
		<circle fill="#BCBEC0" cx="261.045" cy="162.188" r="3.411"/>
		<path fill="#165555" d="M202.156,210.244l-15.563,5.758c-2.494,0.923-5.263-0.351-6.185-2.844l-15.142-40.924
			c-0.922-2.493,0.351-5.263,2.845-6.186l15.563-5.758c2.493-0.922,5.262,0.352,6.185,2.844L205,204.059
			C205.923,206.552,204.649,209.321,202.156,210.244z"/>
		<path fill="#208986" d="M249.774,299.361l-7.686-2.698c-1.143-0.401-1.744-1.653-1.343-2.796l0.368-1.048
			c0.401-1.144,1.653-1.744,2.796-1.343l7.686,2.697c1.143,0.401,1.744,1.653,1.343,2.796l-0.368,1.048
			C252.169,299.161,250.917,299.762,249.774,299.361z"/>
		<path fill="#165555" d="M296.202,381.993l3.842-1.081c1.719-0.482,2.693-2.365,2.176-4.203l-24.822-88.287
			c-0.517-1.84-2.329-2.938-4.049-2.455l-3.842,1.08c-1.719,0.484-2.693,2.366-2.176,4.205l24.822,88.287
			C292.67,381.378,294.483,382.477,296.202,381.993z"/>
		<path fill="#208986" d="M264.241,300.499l-8.143-0.235c-1.21-0.035-2.163-1.045-2.128-2.256l0.031-1.11
			c0.035-1.211,1.045-2.164,2.256-2.129l8.143,0.235c1.211,0.035,2.164,1.045,2.129,2.256l-0.032,1.11
			C266.462,299.581,265.452,300.534,264.241,300.499z"/>
		<path fill="#208986" d="M278.812,297.713l-7.816,2.295c-1.162,0.341-2.381-0.325-2.723-1.487l-0.312-1.065
			c-0.342-1.162,0.324-2.381,1.486-2.723l7.816-2.295c1.162-0.341,2.381,0.324,2.722,1.486l0.313,1.066
			C280.639,296.152,279.974,297.371,278.812,297.713z"/>
	</g>
</g>
</svg>
