<?xml version="1.0" encoding="utf-8"?>
<!-- Generator: Adobe Illustrator 15.1.0, SVG Export Plug-In . SVG Version: 6.00 Build 0)  -->
<!DOCTYPE svg PUBLIC "-//W3C//DTD SVG 1.1//EN" "http://www.w3.org/Graphics/SVG/1.1/DTD/svg11.dtd">
<svg version="1.1" id="Layer_1" xmlns="http://www.w3.org/2000/svg" xmlns:xlink="http://www.w3.org/1999/xlink" x="0px" y="0px"
	 width="252.07px" height="364.114px" viewBox="72.738 11.39 252.07 364.114" enable-background="new 72.738 11.39 252.07 364.114"
	 xml:space="preserve">
<g>
	<path d="M319.87,65.066L135.797,11.644c-2.068-0.566-4.216-0.184-5.961,1.125L75.42,54.178c-2.394,1.816-3.166,4.848-2.394,7.558
		v258.562l190.5,55.206V113.128L87.635,62.135l47.692-36.285l175.868,51.059v257.174c0,3.836,3.047,6.926,6.755,6.926
		c3.814,0,6.857-3.09,6.857-6.926V71.715C324.809,68.629,322.774,65.916,319.87,65.066"/>
	<polygon points="271.043,362.893 302.893,341.009 302.893,83.09 137.223,34.132 102.532,59.978 271.166,106.015 	"/>
</g>
</svg>
