<?xml version="1.0" encoding="utf-8"?>
<!-- Generator: Adobe Illustrator 15.1.0, SVG Export Plug-In . SVG Version: 6.00 Build 0)  -->
<!DOCTYPE svg PUBLIC "-//W3C//DTD SVG 1.1//EN" "http://www.w3.org/Graphics/SVG/1.1/DTD/svg11.dtd">
<svg version="1.1" id="Layer_1" xmlns="http://www.w3.org/2000/svg" xmlns:xlink="http://www.w3.org/1999/xlink" x="0px" y="0px"
	 width="400px" height="400px" viewBox="0 0 400 400" enable-background="new 0 0 400 400" xml:space="preserve">
<g>
	<path d="M296.799,81.048L147.796,37.803c-1.674-0.458-3.413-0.148-4.826,0.911l-44.047,33.52c-1.938,1.47-2.563,3.924-1.938,6.117
		v209.302l154.205,44.687V119.952L108.809,78.675l38.606-29.372l142.361,41.331v208.175c0,3.105,2.465,5.606,5.468,5.606
		c3.088,0,5.551-2.501,5.551-5.606V86.43C300.795,83.931,299.148,81.735,296.799,81.048"/>
	<polygon points="257.273,322.13 283.054,304.416 283.054,95.637 148.949,56.007 120.868,76.928 257.373,114.194 	"/>
</g>
</svg>
