<?xml version="1.0" encoding="utf-8"?>
<!-- Generator: Adobe Illustrator 15.1.0, SVG Export Plug-In . SVG Version: 6.00 Build 0)  -->
<!DOCTYPE svg PUBLIC "-//W3C//DTD SVG 1.1//EN" "http://www.w3.org/Graphics/SVG/1.1/DTD/svg11.dtd">
<svg version="1.1" id="Layer_1" xmlns="http://www.w3.org/2000/svg" xmlns:xlink="http://www.w3.org/1999/xlink" x="0px" y="0px"
	 width="400px" height="400px" viewBox="0 0 400 400" enable-background="new 0 0 400 400" xml:space="preserve">
<g>
	<path d="M319.87,54.066L135.797,0.644c-2.068-0.566-4.216-0.184-5.961,1.125L75.42,43.178c-2.394,1.816-3.166,4.848-2.394,7.558
		v258.562l190.499,55.206V102.128L87.635,51.135l47.692-36.285l175.868,51.059v257.174c0,3.836,3.047,6.926,6.755,6.926
		c3.815,0,6.858-3.09,6.858-6.926V60.715C324.809,57.629,322.774,54.916,319.87,54.066"/>
	<polygon points="271.043,351.892 302.893,330.009 302.893,72.09 137.223,23.132 102.532,48.978 271.166,95.015 	"/>
</g>
</svg>
