<?xml version="1.0" encoding="utf-8"?>
<!-- Generator: Adobe Illustrator 15.1.0, SVG Export Plug-In . SVG Version: 6.00 Build 0)  -->
<!DOCTYPE svg PUBLIC "-//W3C//DTD SVG 1.1//EN" "http://www.w3.org/Graphics/SVG/1.1/DTD/svg11.dtd">
<svg version="1.1" id="Layer_1" xmlns="http://www.w3.org/2000/svg" xmlns:xlink="http://www.w3.org/1999/xlink" x="0px" y="0px"
	 width="340.5px" height="400px" viewBox="-62 0 340.5 400" enable-background="new -62 0 340.5 400" xml:space="preserve">
<g>
	<path fill="#333333" d="M-59.808,107.487c0-3.292,1.256-6.584,3.769-9.097l32.322-32.324c2.412-2.413,5.685-3.768,9.097-3.768
		s6.686,1.354,9.099,3.768l113.733,113.732L221.944,66.066c5.023-5.023,13.169-5.023,18.192,0l32.325,32.325
		c5.024,5.024,5.024,13.17,0,18.193L117.309,271.738c-2.413,2.413-5.685,3.768-9.097,3.768c-3.412,0-6.685-1.354-9.097-3.768
		L-56.039,116.585C-58.552,114.072-59.808,110.78-59.808,107.487z"/>
</g>
</svg>
