<?xml version="1.0" encoding="utf-8"?>
<!-- Generator: Adobe Illustrator 15.1.0, SVG Export Plug-In . SVG Version: 6.00 Build 0)  -->
<!DOCTYPE svg PUBLIC "-//W3C//DTD SVG 1.1//EN" "http://www.w3.org/Graphics/SVG/1.1/DTD/svg11.dtd">
<svg version="1.1" id="Layer_1" xmlns="http://www.w3.org/2000/svg" xmlns:xlink="http://www.w3.org/1999/xlink" x="0px" y="0px"
	 width="340.5px" height="400px" viewBox="0 0 340.5 400" enable-background="new 0 0 340.5 400" xml:space="preserve">
<g>
	<path fill="#333333" d="M338.268,230.316c0,3.291-1.256,6.584-3.768,9.097l-32.322,32.323c-2.412,2.414-5.686,3.769-9.098,3.769
		s-6.686-1.354-9.1-3.769L170.25,158.005L56.518,271.736c-5.024,5.023-13.169,5.023-18.193,0L6,239.412
		c-5.024-5.023-5.024-13.17,0-18.193L161.152,66.065c2.413-2.413,5.685-3.768,9.097-3.768c3.413,0,6.685,1.354,9.097,3.768
		L334.5,221.218C337.014,223.73,338.268,227.023,338.268,230.316z"/>
</g>
</svg>
