<?xml version="1.0" encoding="utf-8"?>
<!-- Generator: Adobe Illustrator 15.1.0, SVG Export Plug-In . SVG Version: 6.00 Build 0)  -->
<!DOCTYPE svg PUBLIC "-//W3C//DTD SVG 1.1//EN" "http://www.w3.org/Graphics/SVG/1.1/DTD/svg11.dtd">
<svg version="1.1" id="Layer_1" xmlns="http://www.w3.org/2000/svg" xmlns:xlink="http://www.w3.org/1999/xlink" x="0px" y="0px"
	 width="217px" height="400px" viewBox="0 0 217 400" enable-background="new 0 0 217 400" xml:space="preserve">
<g>
	<path fill="#333333" d="M46.796,336.92c-3.292,0-6.584-1.256-9.097-3.769L5.375,300.829c-2.413-2.412-3.768-5.685-3.768-9.097
		s1.355-6.686,3.768-9.099l113.732-113.733L5.375,55.169c-5.024-5.024-5.024-13.169,0-18.193L37.7,4.651
		c5.024-5.024,13.17-5.024,18.193,0l155.154,155.153c2.413,2.413,3.768,5.685,3.768,9.097c0,3.412-1.354,6.685-3.768,9.097
		L55.893,333.151C53.381,335.664,50.089,336.92,46.796,336.92z"/>
</g>
</svg>
