<?xml version="1.0" encoding="utf-8"?>
<!-- Generator: Adobe Illustrator 15.1.0, SVG Export Plug-In . SVG Version: 6.00 Build 0)  -->
<!DOCTYPE svg PUBLIC "-//W3C//DTD SVG 1.1//EN" "http://www.w3.org/Graphics/SVG/1.1/DTD/svg11.dtd">
<svg version="1.1" id="Layer_1" xmlns="http://www.w3.org/2000/svg" xmlns:xlink="http://www.w3.org/1999/xlink" x="0px" y="0px"
	 width="400px" height="400px" viewBox="0 0 400 400" enable-background="new 0 0 400 400" xml:space="preserve">
<g>
	<path d="M120.497,92.324V70.5H87.758v21.825H76.856v240.032h54.551V92.324H120.497z M98.672,310.531H87.759v-10.902h10.914V310.531
		z M98.672,288.715H87.759v-10.911h10.914V288.715z M98.672,266.89H87.759v-10.911h10.914V266.89z M98.672,245.078H87.759v-10.915
		h10.914V245.078z M98.672,223.251H87.759v-10.914h10.914V223.251z M98.672,201.426H87.759v-10.913h10.914V201.426z M98.672,179.615
		H87.759v-10.913h10.914V179.615z M98.672,157.791H87.759v-10.916h10.914V157.791z M98.672,135.96H87.759v-10.911h10.914V135.96z
		 M120.497,310.531h-10.913v-10.902h10.913V310.531z M120.497,288.715h-10.913v-10.911h10.913V288.715z M120.497,266.89h-10.913
		v-10.911h10.913V266.89z M120.497,245.078h-10.913v-10.915h10.913V245.078z M120.497,223.251h-10.913v-10.914h10.913V223.251z
		 M120.497,201.426h-10.913v-10.913h10.913V201.426z M120.497,179.615h-10.913v-10.913h10.913V179.615z M120.497,157.791h-10.913
		v-10.916h10.913V157.791z M120.497,135.96h-10.913v-10.911h10.913V135.96z"/>
	<path d="M207.771,70.5v261.858h54.553V37.771L207.771,70.5z M229.598,310.531h-10.911v-10.902h10.911V310.531z M229.598,288.715
		h-10.911v-10.911h10.911V288.715z M229.598,266.89h-10.911v-10.911h10.911V266.89z M229.598,245.078h-10.911v-10.915h10.911
		V245.078z M229.598,223.251h-10.911v-10.914h10.911V223.251z M229.598,201.426h-10.911v-10.913h10.911V201.426z M229.598,179.615
		h-10.911v-10.913h10.911V179.615z M229.598,157.791h-10.911v-10.916h10.911V157.791z M229.598,135.96h-10.911v-10.911h10.911
		V135.96z M229.598,114.15h-10.911v-10.912h10.911V114.15z M229.598,92.324h-10.911V81.413h10.911V92.324z M251.427,310.531H240.51
		v-10.902h10.917V310.531z M251.427,288.715H240.51v-10.911h10.917V288.715z M251.427,266.89H240.51v-10.911h10.917V266.89z
		 M251.427,245.078H240.51v-10.915h10.917V245.078z M251.427,223.251H240.51v-10.914h10.917V223.251z M251.427,201.426H240.51
		v-10.913h10.917V201.426z M251.427,179.615H240.51v-10.913h10.917V179.615z M251.427,157.791H240.51v-10.916h10.917V157.791z
		 M251.427,135.96H240.51v-10.911h10.917V135.96z M251.427,114.15H240.51v-10.912h10.917V114.15z M251.427,92.324H240.51V81.413
		h10.917V92.324z"/>
	<path d="M142.308,332.356h54.552V125.049h-54.552V332.356z M164.135,299.629h-10.916v-10.914h10.916V299.629z M164.135,277.804
		h-10.916V266.89h10.916V277.804z M164.135,255.979h-10.916V245.08h10.916V255.979z M164.135,234.163h-10.916v-10.912h10.916
		V234.163z M164.135,212.337h-10.916v-10.911h10.916V212.337z M164.135,190.513h-10.916v-10.898h10.916V190.513z M164.135,168.702
		h-10.916v-10.911h10.916V168.702z M164.135,146.875h-10.916V135.96h10.916V146.875z M185.961,299.629H175.05v-10.914h10.911
		V299.629z M185.961,277.804H175.05V266.89h10.911V277.804z M185.961,255.979H175.05V245.08h10.911V255.979z M185.961,234.163
		H175.05v-10.912h10.911V234.163z M185.961,212.337H175.05v-10.911h10.911V212.337z M185.961,190.513H175.05v-10.898h10.911V190.513
		z M185.961,168.702H175.05v-10.911h10.911V168.702z M185.961,146.875H175.05V135.96h10.911V146.875z"/>
	<path d="M316.888,146.875V135.96h-10.914v10.915h-10.91V135.96h-10.914v10.915h-10.91v185.482h54.551V146.875H316.888z
		 M295.063,299.629h-10.914v-10.914h10.914V299.629z M295.063,277.804h-10.914V266.89h10.914V277.804z M295.063,255.979h-10.914
		V245.08h10.914V255.979z M295.063,234.163h-10.914v-10.912h10.914V234.163z M295.063,212.337h-10.914v-10.911h10.914V212.337z
		 M295.063,190.513h-10.914v-10.898h10.914V190.513z M295.063,168.702h-10.914v-10.911h10.914V168.702z M316.888,299.629h-10.914
		v-10.914h10.914V299.629z M316.888,277.804h-10.914V266.89h10.914V277.804z M316.888,255.979h-10.914V245.08h10.914V255.979z
		 M316.888,234.163h-10.914v-10.912h10.914V234.163z M316.888,212.337h-10.914v-10.911h10.914V212.337z M316.888,190.513h-10.914
		v-10.898h10.914V190.513z M316.888,168.702h-10.914v-10.911h10.914V168.702z"/>
</g>
</svg>
