<?xml version="1.0" encoding="utf-8"?>
<!-- Generator: Adobe Illustrator 15.1.0, SVG Export Plug-In . SVG Version: 6.00 Build 0)  -->
<!DOCTYPE svg PUBLIC "-//W3C//DTD SVG 1.1//EN" "http://www.w3.org/Graphics/SVG/1.1/DTD/svg11.dtd">
<svg version="1.1" id="Layer_1" xmlns="http://www.w3.org/2000/svg" xmlns:xlink="http://www.w3.org/1999/xlink" x="0px" y="0px"
	 width="400px" height="400px" viewBox="0 0 400 400" enable-background="new 0 0 400 400" xml:space="preserve">
<g>
	<path d="M149.637,273.913c0,0-13.437,7.813,9.564,10.458c27.867,3.179,42.108,2.724,72.817-3.09c0,0,8.072,5.065,19.351,9.448
		C182.526,320.232,95.565,289.021,149.637,273.913"/>
	<path d="M141.227,235.411c0,0-15.074,11.156,7.946,13.536c29.769,3.071,53.276,3.322,93.955-4.509c0,0,5.627,5.704,14.475,8.822
		C174.366,277.6,81.656,255.181,141.227,235.411"/>
	<path opacity="0.8" enable-background="new    " d="M212.142,170.099c16.965,19.527-4.456,37.104-4.456,37.104
		s43.07-22.237,23.29-50.08c-18.475-25.965-32.642-38.867,44.058-83.348C275.033,73.776,154.639,103.843,212.142,170.099"/>
	<path d="M303.192,302.391c0,0,9.944,8.192-10.954,14.532c-39.737,12.039-165.386,15.673-200.296,0.479
		c-12.545-5.456,10.985-13.032,18.386-14.622c7.721-1.675,12.133-1.362,12.133-1.362c-13.955-9.831-90.194,19.303-38.726,27.646
		C224.098,351.826,339.599,318.812,303.192,302.391"/>
	<path d="M156.099,195.518c0,0-63.914,15.179-22.631,20.692c17.429,2.335,52.174,1.807,84.541-0.905
		c26.45-2.229,53.011-6.975,53.011-6.975s-9.329,3.996-16.076,8.603c-64.902,17.07-190.286,9.127-154.188-8.332
		C131.279,193.844,156.099,195.518,156.099,195.518"/>
	<path d="M270.757,259.605c65.976-34.286,35.47-67.231,14.178-62.793c-5.219,1.087-7.544,2.027-7.544,2.027s1.936-3.037,5.636-4.348
		c42.126-14.81,74.519,43.679-13.599,66.842C269.426,261.334,270.45,260.421,270.757,259.605"/>
	<path opacity="0.8" enable-background="new    " d="M230.976,1.949c0,0,36.54,36.552-34.656,92.759
		c-57.093,45.089-13.019,70.794-0.023,100.167c-33.325-30.066-57.783-56.535-41.375-81.172
		C179.002,77.543,245.719,60.009,230.976,1.949"/>
	<path d="M162.585,352.509c63.327,4.054,160.579-2.249,162.886-32.215c0,0-4.427,11.359-52.339,20.38
		c-54.055,10.174-120.725,8.988-160.264,2.467C112.867,343.142,120.96,349.84,162.585,352.509"/>
</g>
</svg>
