<?xml version="1.0" encoding="utf-8"?>
<!-- Generator: Adobe Illustrator 15.1.0, SVG Export Plug-In . SVG Version: 6.00 Build 0)  -->
<!DOCTYPE svg PUBLIC "-//W3C//DTD SVG 1.1//EN" "http://www.w3.org/Graphics/SVG/1.1/DTD/svg11.dtd">
<svg version="1.1" id="Layer_1" xmlns="http://www.w3.org/2000/svg" xmlns:xlink="http://www.w3.org/1999/xlink" x="0px" y="0px"
	 width="400px" height="400px" viewBox="0 0 400 400" enable-background="new 0 0 400 400" xml:space="preserve">
<g>
	<path d="M145.504,296.844c0,0-14.64,8.513,10.421,11.394c30.362,3.464,45.879,2.97,79.337-3.365c0,0,8.796,5.518,21.085,10.292
		C181.338,347.311,86.59,313.306,145.504,296.844"/>
	<path d="M136.341,254.894c0,0-16.424,12.154,8.657,14.748c32.435,3.346,58.048,3.62,102.369-4.913c0,0,6.131,6.217,15.771,9.612
		C172.448,300.86,71.436,276.435,136.341,254.894"/>
	<path opacity="0.8" enable-background="new    " d="M213.606,183.733c18.484,21.275-4.855,40.427-4.855,40.427
		s46.927-24.229,25.377-54.565c-20.131-28.29-35.566-42.348,48.002-90.812C282.129,78.785,150.954,111.544,213.606,183.733"/>
	<path d="M312.81,327.871c0,0,10.835,8.926-11.935,15.833c-43.296,13.118-180.196,17.077-218.232,0.523
		c-13.668-5.945,11.968-14.2,20.033-15.933c8.412-1.824,13.219-1.483,13.219-1.483c-15.205-10.712-98.271,21.031-42.194,30.122
		C226.633,381.734,352.478,345.764,312.81,327.871"/>
	<path d="M152.545,211.428c0,0-69.637,16.539-24.658,22.546c18.99,2.543,56.846,1.969,92.111-0.986
		c28.819-2.429,57.758-7.6,57.758-7.6s-10.163,4.354-17.516,9.374c-70.713,18.599-207.325,9.944-167.995-9.078
		C125.502,209.604,152.545,211.428,152.545,211.428"/>
	<path d="M277.47,281.255c71.884-37.357,38.646-73.252,15.449-68.416c-5.688,1.184-8.221,2.207-8.221,2.207s2.109-3.309,6.142-4.736
		c45.896-16.136,81.191,47.59-14.818,72.827C276.02,283.138,277.136,282.143,277.47,281.255"/>
	<path opacity="0.8" enable-background="new    " d="M234.128,0.526c0,0,39.811,39.825-37.761,101.065
		c-62.205,49.126-14.185,77.133-0.025,109.136c-36.309-32.758-62.957-61.598-45.08-88.44
		C177.499,82.889,250.189,63.784,234.128,0.526"/>
	<path d="M159.611,382.477c68.998,4.417,174.959-2.45,177.472-35.099c0,0-4.822,12.376-57.025,22.204
		c-58.895,11.086-131.535,9.794-174.615,2.688C105.441,372.271,114.259,379.569,159.611,382.477"/>
</g>
</svg>
