<?xml version="1.0" encoding="utf-8"?>
<!-- Generator: Adobe Illustrator 15.1.0, SVG Export Plug-In . SVG Version: 6.00 Build 0)  -->
<!DOCTYPE svg PUBLIC "-//W3C//DTD SVG 1.1//EN" "http://www.w3.org/Graphics/SVG/1.1/DTD/svg11.dtd">
<svg version="1.1" id="Layer_1" xmlns="http://www.w3.org/2000/svg" xmlns:xlink="http://www.w3.org/1999/xlink" x="0px" y="0px"
	 width="400px" height="400px" viewBox="0 0 400 400" enable-background="new 0 0 400 400" xml:space="preserve">
<g>
	<path d="M199.135,232.086c0,45.351,61.917,76.753,103.77,62.806l-74.8,28.374c-26.336,8.43-87.441-27.394-87.441-73.269v-9.165
		v-83.491l-38.979,14.223L165.95,66.743l73.214,55.832l-40.03,14.222v86.911L199.135,232.086L199.135,232.086z"/>
	<g>
		<path d="M213.854,328.684c-13.652,4.37-36.638-3.172-55.623-17.821l-51.595,19.87c-1.801,0.69-3.562,1.193-5.27,1.532v11.527
			c0,15.705,12.736,23.539,28.448,17.491l177.211-68.241L213.854,328.684z"/>
		<path d="M333.713,74.146v140.701c0,15.709-12.736,33.349-28.447,39.396l-57.887,22.291c21.223,13.661,49.21,19.217,71.572,11.919
			l9.49-3.659c15.71-6.047,28.445-23.685,28.445-39.396V93.17C356.887,79.262,346.903,71.538,333.713,74.146z"/>
	</g>
	<path d="M125.577,255.35v-9.167v-72.505l-50.123,18.365l89.343-143.785l101.812,75.962l-51.91,17.673v75.207v8.378
		c0,2.887,0.253,5.712,0.736,8.479l54.01-20.799c15.711-6.048,28.449-23.69,28.449-39.396V21.536
		c0-15.71-12.738-23.543-28.449-17.496L70.818,80.528c-15.709,6.049-28.445,23.688-28.445,39.395v152.231
		c0,15.705,12.734,23.536,28.445,17.489l56.294-21.677C126.115,263.866,125.577,259.656,125.577,255.35z"/>
</g>
</svg>
