<?xml version="1.0" encoding="utf-8"?>
<!-- Generator: Adobe Illustrator 15.1.0, SVG Export Plug-In . SVG Version: 6.00 Build 0)  -->
<!DOCTYPE svg PUBLIC "-//W3C//DTD SVG 1.1//EN" "http://www.w3.org/Graphics/SVG/1.1/DTD/svg11.dtd">
<svg version="1.1" id="Layer_1" xmlns="http://www.w3.org/2000/svg" xmlns:xlink="http://www.w3.org/1999/xlink" x="0px" y="0px"
	 width="400px" height="400px" viewBox="0 0 400 400" enable-background="new 0 0 400 400" xml:space="preserve">
<g>
	<path d="M199.227,224.766c0,36.875,50.345,62.409,84.376,51.067l-60.82,23.071c-21.414,6.856-71.1-22.272-71.1-59.575v-7.452
		v-67.888l-31.694,11.565l52.254-85.232l59.532,45.398l-32.549,11.565v70.669V224.766z"/>
	<g>
		<path d="M211.196,303.31c-11.101,3.554-29.791-2.577-45.228-14.489l-41.954,16.156c-1.464,0.562-2.896,0.97-4.285,1.246v9.373
			c0,12.77,10.356,19.139,23.131,14.222l144.093-55.487L211.196,303.31z"/>
		<path d="M308.654,96.343v114.405c0,12.773-10.355,27.117-23.131,32.033l-47.068,18.126c17.257,11.106,40.015,15.625,58.198,9.69
			l7.716-2.974c12.774-4.918,23.129-19.259,23.129-32.035V111.811C327.498,100.503,319.38,94.222,308.654,96.343z"/>
	</g>
	<path d="M139.417,243.681v-7.452v-58.955l-40.756,14.933l72.646-116.914l82.785,61.766l-42.209,14.37v61.152v6.811
		c0,2.348,0.206,4.646,0.599,6.894l43.917-16.912c12.774-4.917,23.131-19.261,23.131-32.032V53.564
		c0-12.774-10.356-19.143-23.131-14.226L94.891,101.532c-12.774,4.918-23.129,19.261-23.129,32.033v123.78
		c0,12.771,10.354,19.14,23.129,14.222l45.774-17.626C139.854,250.607,139.417,247.183,139.417,243.681z"/>
</g>
</svg>
