<?xml version="1.0" encoding="utf-8"?>
<!-- Generator: Adobe Illustrator 15.1.0, SVG Export Plug-In . SVG Version: 6.00 Build 0)  -->
<!DOCTYPE svg PUBLIC "-//W3C//DTD SVG 1.1//EN" "http://www.w3.org/Graphics/SVG/1.1/DTD/svg11.dtd">
<svg version="1.1" id="Layer_1" xmlns="http://www.w3.org/2000/svg" xmlns:xlink="http://www.w3.org/1999/xlink" x="0px" y="0px"
	 width="400px" height="400px" viewBox="0 0 400 400" enable-background="new 0 0 400 400" xml:space="preserve">
<g>
	<path d="M298.558,288.385c-47.018,37.811-70.144,36.563-81.585,44.038c-4.425,0.129-29.882,0.129-34.307,0
		c-11.441-7.474-34.568-6.228-81.586-44.038c-47.776-37.806-49.551-100.87-48.281-132.291c9.248-0.729,10.94,23.248,36.592,49.24
		c25.605,26.111,43.216,37.266,69.701,52.063c7.405,4.106,19.738,18.124,22.549,31.744c-0.213-20.092-0.434-73.258-0.403-73.257
		c0.019,0.064-36.806-4.863-60.585-28.321c-57.851-55.808-17.521-130.594,3.768-148.539c11.178,8.281,28.199,24.921,36.452,38.499
		c8.718-14.167,24.187-30.215,38.948-40.532c14.761,10.316,30.23,26.366,38.946,40.532c8.253-13.578,25.274-30.218,36.452-38.499
		c21.289,17.946,61.619,92.731,3.771,148.539c-23.779,23.458-60.606,28.381-60.588,28.321c0.029,0-0.192,53.166-0.402,73.26
		c2.812-13.625,15.142-27.641,22.548-31.747c26.484-14.798,44.097-25.953,69.704-52.063c25.652-25.991,27.341-49.967,36.591-49.24
		C348.113,187.515,346.337,250.579,298.558,288.385z"/>
</g>
</svg>
