<?xml version="1.0" encoding="utf-8"?>
<!-- Generator: Adobe Illustrator 15.1.0, SVG Export Plug-In . SVG Version: 6.00 Build 0)  -->
<!DOCTYPE svg PUBLIC "-//W3C//DTD SVG 1.1//EN" "http://www.w3.org/Graphics/SVG/1.1/DTD/svg11.dtd">
<svg version="1.1" id="Layer_1" xmlns="http://www.w3.org/2000/svg" xmlns:xlink="http://www.w3.org/1999/xlink" x="0px" y="0px"
	 width="400px" height="400px" viewBox="0 0 400 400" enable-background="new 0 0 400 400" xml:space="preserve">
<g>
	<path d="M54.714,208.901c0,3.928-3.218,7.178-7.168,7.178H30.944c-3.962,0-7.201-3.25-7.201-7.178v-17.889
		c0-3.958,3.239-7.178,7.201-7.178h16.602c3.951,0,7.168,3.22,7.168,7.178V208.901z"/>
	<path d="M33.771,212.626L15.935,325.271c0,0,5.667-3.292,9.031-3.725c1.625-0.218,0.751,7.337,2.245,7.854
		c4.402,1.483,6.763-5.843,11.886-5.843c3.088,0,6.561,7.422,9.759,6.617c3.223-0.786,4.163-4.594,5.276-7.063
		c1.123-2.477,9.985,1.532,9.985,1.532L45.024,212.626H33.771z"/>
	<path d="M36.727,186.877c-5.974-55.078,22.802-70.153,23.863-70.764l2.751,4.72c-0.238,0.135-26.729,14.23-21.169,65.463
		L36.727,186.877z"/>
	<path d="M203.809,198.461c-0.871,0-1.786-0.148-2.608-0.475L92.382,155.399L79.938,265.776c0,0,49.124-30.3,63.236-30.3
		c14.127,0,56.462,37.014,56.462,37.014s44.952-32.827,63.766-32.827c18.804,0,52.782,26.113,52.782,26.113l-5.014-107.767
		l-104.792,39.989C205.563,198.312,204.683,198.461,203.809,198.461"/>
	<polygon points="203.688,37.765 5.134,102.713 126.574,153.36 203.852,180.138 283.072,153.36 394.866,102.713 	"/>
</g>
</svg>
