<?xml version="1.0" encoding="utf-8"?>
<!-- Generator: Adobe Illustrator 15.1.0, SVG Export Plug-In . SVG Version: 6.00 Build 0)  -->
<!DOCTYPE svg PUBLIC "-//W3C//DTD SVG 1.1//EN" "http://www.w3.org/Graphics/SVG/1.1/DTD/svg11.dtd">
<svg version="1.1" id="Layer_1" xmlns="http://www.w3.org/2000/svg" xmlns:xlink="http://www.w3.org/1999/xlink" x="0px" y="0px"
	 width="400px" height="400px" viewBox="0 0 400 400" enable-background="new 0 0 400 400" xml:space="preserve">
<g>
	<g>
		<path d="M264.214,34.41c29.746,8.652,57.062,33.147,76.622,61.438c19.53,28.729,31.307,61.254,29.341,96.12
			c-0.365,7.642-1.355,15.222-2.804,22.767c-2.412-1.65-4.974-3.229-7.808-4.578c-9.687-4.611-21.084-6.96-32.657-6.57
			c-1.127,0.037-2.225,0.244-3.346,0.33c0.221-2.898,0.376-5.809,0.403-8.752c0.722-50.143-29.674-96.448-71.26-114.036
			c7.031-10.6,11.32-23.15,11.907-36.235C264.781,41.275,264.582,37.793,264.214,34.41z"/>
	</g>
	<g>
		<path d="M155.657,41.42c0.042-0.332,0.116-0.651,0.168-0.979c0.199-1.285,0.449-2.55,0.778-3.801
			c0.063-0.244,0.143-0.49,0.21-0.734c0.385-1.369,0.838-2.716,1.362-4.042c0.043-0.1,0.083-0.201,0.125-0.301
			c6.915-16.481,23.55-30.011,41.692-30.035c18.14,0.023,34.777,13.556,41.69,30.035c0.044,0.101,0.087,0.201,0.123,0.309
			c0.528,1.317,0.979,2.665,1.366,4.034c0.064,0.244,0.146,0.491,0.211,0.734c0.321,1.244,0.575,2.509,0.774,3.789
			c0.055,0.331,0.131,0.659,0.172,0.996c0.195,1.564,0.322,3.149,0.322,4.761c-0.002,1.37-0.087,2.72-0.234,4.062
			c-0.05,0.464-0.135,0.918-0.205,1.378c-0.128,0.862-0.268,1.721-0.449,2.57c-0.123,0.56-0.272,1.103-0.417,1.66
			c-0.19,0.718-0.394,1.437-0.625,2.146c-0.192,0.603-0.407,1.207-0.626,1.805c-0.24,0.624-0.495,1.237-0.754,1.844
			c-0.273,0.641-0.556,1.286-0.862,1.91c-0.255,0.521-0.531,1.025-0.804,1.531c-0.372,0.686-0.733,1.383-1.134,2.05
			c-0.168,0.281-0.361,0.551-0.54,0.83c-1.147,1.828-2.414,3.6-3.799,5.28c-0.02,0.024-0.031,0.046-0.053,0.065
			c-8.576,10.257-20.816,17.542-34.156,17.522c-13.34,0.017-25.585-7.266-34.161-17.524c-0.02-0.018-0.03-0.04-0.049-0.064
			c-1.391-1.687-2.657-3.465-3.816-5.304c-0.173-0.267-0.354-0.531-0.522-0.808c-0.405-0.668-0.765-1.362-1.136-2.05
			c-0.273-0.509-0.551-1.014-0.804-1.53c-0.303-0.626-0.586-1.263-0.86-1.905c-0.264-0.613-0.518-1.226-0.756-1.853
			c-0.22-0.597-0.435-1.2-0.628-1.801c-0.233-0.707-0.434-1.422-0.625-2.146c-0.142-0.55-0.294-1.107-0.416-1.666
			c-0.182-0.843-0.324-1.694-0.451-2.55c-0.069-0.465-0.156-0.925-0.206-1.391c-0.146-1.343-0.233-2.694-0.234-4.063
			C155.334,44.574,155.459,42.99,155.657,41.42z"/>
	</g>
	<g>
		<path d="M135.771,34.409c-0.374,3.385-0.566,6.866-0.404,10.483c0.585,13.085,4.872,25.636,11.904,36.238
			c-41.58,17.58-71.973,63.89-71.262,114.029c0.03,3.002,0.197,5.973,0.422,8.933c-1.092-0.087-2.166-0.286-3.263-0.323
			c-0.003,0-0.005,0-0.006,0c-11.604-0.389-23.017,1.969-32.713,6.602c-2.839,1.354-5.399,2.938-7.808,4.6
			c-1.472-7.626-2.478-15.284-2.844-23.004c-1.956-34.866,9.82-67.393,29.353-96.125C78.711,67.552,106.026,43.055,135.771,34.409z"
			/>
	</g>
	<g>
		<path d="M90.729,305.947c-0.153,0.07-0.311,0.131-0.467,0.197c-19.689,9.752-42.46,0.531-54.99-19.105
			c-10.6-16.639-7.646-35.534,4.957-49.863c0.046-0.056,0.089-0.107,0.137-0.16c0.978-1.103,2.001-2.172,3.084-3.204
			c0.154-0.155,0.301-0.309,0.457-0.458c0.991-0.925,2.027-1.803,3.093-2.653c0.256-0.203,0.491-0.421,0.747-0.62
			c1.307-0.999,2.653-1.954,4.067-2.834c1.574-0.974,3.177-1.812,4.787-2.573c0.479-0.229,0.964-0.424,1.448-0.63
			c1.18-0.506,2.369-0.957,3.563-1.347c0.497-0.163,0.989-0.331,1.489-0.471c1.48-0.414,2.965-0.752,4.456-0.994
			c0.148-0.025,0.297-0.066,0.456-0.088c1.623-0.239,3.251-0.343,4.876-0.364c0.164-0.006,0.332-0.033,0.496-0.033
			c0.458,0,0.906,0.056,1.366,0.077c14.079,0.487,28.225,9.313,36.844,22.977c7.421,11.852,8.341,24.751,3.491,36.434
			c0,0.003,0,0.005,0,0.008c-0.863,2.094-1.941,4.135-3.141,6.135c-0.159,0.268-0.308,0.55-0.479,0.816
			c-1.185,1.891-2.523,3.711-3.985,5.464c-0.259,0.313-0.523,0.62-0.786,0.934c-1.511,1.725-3.13,3.377-4.886,4.924
			c-0.258,0.226-0.528,0.428-0.789,0.65c-1.879,1.59-3.846,3.096-5.971,4.411C93.626,304.456,92.181,305.239,90.729,305.947z"/>
	</g>
	<g>
		<path d="M199.994,362.547c-37.637,0.074-77.259-14.733-107.833-36.598c3.208-1.201,6.367-2.575,9.433-4.254
			c11.896-6.51,21.933-16.127,29.867-27.69c17.098,13.06,42.264,21.091,68.531,21.071c26.34,0.02,51.594-8.063,68.7-21.192
			c7.763,11.269,17.701,21.041,29.874,27.682c3.064,1.673,6.228,3.041,9.438,4.238C277.428,347.751,237.703,362.623,199.994,362.547
			z"/>
	</g>
	<g>
		<path d="M364.851,286.809c-12.519,19.655-35.277,28.908-54.971,19.186c-0.16-0.068-0.316-0.125-0.472-0.2
			c-1.449-0.702-2.895-1.483-4.319-2.366c-2.124-1.319-4.096-2.819-5.975-4.402c-0.263-0.221-0.532-0.427-0.79-0.655
			c-1.755-1.534-3.373-3.182-4.877-4.907c-0.275-0.312-0.545-0.623-0.812-0.943c-1.456-1.749-2.793-3.556-3.973-5.435
			c-0.176-0.282-0.329-0.572-0.504-0.859c-1.191-1.987-2.271-4.013-3.126-6.097c0-0.009-0.008-0.009-0.008-0.013
			c-4.867-11.687-3.971-24.59,3.437-36.456c8.606-13.676,22.762-22.524,36.853-23.015c0.459-0.025,0.918-0.077,1.376-0.077
			c0.164,0.002,0.326,0.028,0.49,0.033c1.616,0.021,3.233,0.124,4.856,0.359c0.187,0.03,0.369,0.077,0.556,0.111
			c1.451,0.232,2.899,0.562,4.35,0.97c0.506,0.143,0.999,0.309,1.503,0.471c1.188,0.39,2.372,0.833,3.547,1.337
			c0.483,0.207,0.968,0.403,1.452,0.627c1.607,0.757,3.204,1.587,4.774,2.564c1.421,0.881,2.772,1.837,4.086,2.845
			c0.233,0.174,0.445,0.377,0.676,0.558c1.097,0.866,2.155,1.771,3.171,2.714c0.136,0.124,0.262,0.263,0.396,0.394
			c1.108,1.049,2.155,2.144,3.154,3.271c0.024,0.026,0.05,0.058,0.078,0.096C372.438,251.23,375.438,270.146,364.851,286.809z"/>
	</g>
</g>
</svg>
