<?xml version="1.0" encoding="utf-8"?>
<!-- Generator: Adobe Illustrator 15.1.0, SVG Export Plug-In . SVG Version: 6.00 Build 0)  -->
<!DOCTYPE svg PUBLIC "-//W3C//DTD SVG 1.1//EN" "http://www.w3.org/Graphics/SVG/1.1/DTD/svg11.dtd">
<svg version="1.1" id="Layer_1" xmlns="http://www.w3.org/2000/svg" xmlns:xlink="http://www.w3.org/1999/xlink" x="0px" y="0px"
	 width="400px" height="400px" viewBox="0 0 400 400" enable-background="new 0 0 400 400" xml:space="preserve">
<g>
	<g>
		<path d="M255.593,51.342c25.751,7.489,49.396,28.694,66.328,53.184c16.907,24.869,27.101,53.025,25.399,83.207
			c-0.317,6.615-1.173,13.177-2.427,19.708c-2.089-1.429-4.306-2.794-6.759-3.963c-8.385-3.992-18.251-6.025-28.27-5.688
			c-0.975,0.032-1.926,0.212-2.895,0.286c0.19-2.509,0.325-5.028,0.35-7.577c0.622-43.405-25.688-83.491-61.687-98.716
			c6.087-9.175,9.8-20.04,10.308-31.367C256.084,57.285,255.911,54.271,255.593,51.342z"/>
	</g>
	<g>
		<path d="M161.62,57.41c0.036-0.287,0.1-0.564,0.145-0.848c0.173-1.112,0.389-2.206,0.673-3.289
			c0.054-0.211,0.124-0.425,0.183-0.636c0.333-1.184,0.725-2.351,1.179-3.498c0.038-0.086,0.071-0.173,0.108-0.261
			c5.986-14.266,20.386-25.979,36.091-25.999c15.703,0.02,30.104,11.735,36.09,25.999c0.038,0.088,0.075,0.175,0.107,0.267
			c0.456,1.141,0.847,2.307,1.181,3.492c0.057,0.211,0.128,0.425,0.184,0.636c0.277,1.077,0.497,2.172,0.669,3.279
			c0.048,0.286,0.113,0.571,0.149,0.862c0.17,1.355,0.279,2.726,0.279,4.121c-0.001,1.185-0.075,2.355-0.203,3.517
			c-0.044,0.402-0.117,0.795-0.178,1.193c-0.11,0.746-0.231,1.49-0.391,2.225c-0.104,0.484-0.234,0.955-0.358,1.437
			c-0.165,0.622-0.34,1.244-0.541,1.857c-0.169,0.522-0.354,1.045-0.544,1.563c-0.206,0.539-0.427,1.071-0.651,1.596
			c-0.238,0.555-0.481,1.113-0.747,1.653c-0.221,0.452-0.46,0.888-0.695,1.325c-0.322,0.594-0.634,1.197-0.983,1.775
			c-0.145,0.243-0.312,0.477-0.467,0.719c-0.993,1.582-2.09,3.116-3.288,4.571c-0.017,0.021-0.028,0.04-0.045,0.056
			c-7.424,8.88-18.021,15.185-29.568,15.169c-11.548,0.015-22.148-6.289-29.571-15.17c-0.016-0.015-0.025-0.034-0.042-0.055
			c-1.204-1.461-2.3-3-3.304-4.592c-0.15-0.231-0.306-0.46-0.451-0.699c-0.351-0.579-0.663-1.18-0.984-1.775
			c-0.236-0.441-0.476-0.878-0.696-1.325c-0.262-0.542-0.507-1.092-0.745-1.649c-0.228-0.531-0.448-1.062-0.654-1.604
			c-0.19-0.517-0.376-1.039-0.543-1.56c-0.202-0.612-0.375-1.231-0.541-1.857c-0.124-0.477-0.255-0.958-0.36-1.443
			c-0.158-0.729-0.281-1.467-0.391-2.208c-0.06-0.403-0.135-0.801-0.178-1.204c-0.127-1.163-0.202-2.332-0.203-3.518
			C161.341,60.14,161.449,58.77,161.62,57.41z"/>
	</g>
	<g>
		<path d="M144.406,51.341c-0.323,2.93-0.49,5.943-0.349,9.074c0.506,11.327,4.217,22.192,10.305,31.369
			c-35.995,15.219-62.304,55.307-61.688,98.711c0.025,2.598,0.17,5.17,0.365,7.732c-0.945-0.074-1.875-0.248-2.824-0.28
			c-0.003,0-0.005,0-0.006,0c-10.045-0.335-19.924,1.705-28.318,5.715c-2.458,1.172-4.674,2.543-6.759,3.98
			c-1.275-6.601-2.145-13.229-2.462-19.912c-1.694-30.182,8.501-58.339,25.409-83.211C95.012,80.031,118.657,58.825,144.406,51.341z
			"/>
	</g>
	<g>
		<path d="M105.415,286.398c-0.133,0.062-0.269,0.113-0.405,0.172c-17.043,8.441-36.756,0.459-47.603-16.539
			c-9.175-14.403-6.619-30.76,4.292-43.165c0.04-0.046,0.077-0.093,0.118-0.137c0.847-0.955,1.733-1.882,2.67-2.775
			c0.133-0.134,0.26-0.266,0.396-0.396c0.858-0.8,1.754-1.561,2.677-2.297c0.221-0.176,0.425-0.364,0.646-0.536
			c1.132-0.865,2.297-1.692,3.521-2.454c1.362-0.844,2.75-1.57,4.143-2.227c0.415-0.199,0.834-0.367,1.253-0.546
			c1.022-0.438,2.051-0.828,3.085-1.166c0.43-0.141,0.856-0.286,1.289-0.406c1.282-0.359,2.567-0.653,3.857-0.862
			c0.129-0.022,0.258-0.057,0.395-0.076c1.405-0.208,2.815-0.297,4.222-0.314c0.142-0.006,0.287-0.03,0.429-0.03
			c0.397,0,0.784,0.048,1.182,0.066c12.188,0.423,24.433,8.063,31.894,19.892c6.425,10.257,7.221,21.423,3.022,31.536
			c0,0.002,0,0.004,0,0.007c-0.747,1.813-1.68,3.58-2.719,5.312c-0.138,0.23-0.267,0.474-0.415,0.706
			c-1.025,1.637-2.184,3.212-3.45,4.73c-0.224,0.272-0.452,0.536-0.68,0.807c-1.308,1.493-2.71,2.924-4.229,4.264
			c-0.224,0.194-0.457,0.37-0.683,0.562c-1.627,1.376-3.33,2.679-5.169,3.82C107.924,285.108,106.672,285.785,105.415,286.398z"/>
	</g>
	<g>
		<path d="M200,335.395c-32.581,0.063-66.88-12.755-93.345-31.681c2.777-1.04,5.511-2.23,8.165-3.683
			c10.297-5.635,18.986-13.961,25.854-23.971c14.801,11.306,36.586,18.259,59.323,18.241c22.802,0.018,44.663-6.979,59.47-18.344
			c6.72,9.752,15.323,18.213,25.862,23.962c2.651,1.449,5.391,2.633,8.17,3.67C267.031,322.587,232.645,335.46,200,335.395z"/>
	</g>
	<g>
		<path d="M342.709,269.831c-10.837,17.014-30.539,25.024-47.585,16.608c-0.139-0.059-0.274-0.108-0.408-0.173
			c-1.255-0.608-2.506-1.283-3.74-2.048c-1.838-1.142-3.544-2.44-5.171-3.811c-0.229-0.191-0.461-0.369-0.684-0.567
			c-1.52-1.328-2.92-2.754-4.223-4.248c-0.239-0.271-0.471-0.539-0.702-0.817c-1.26-1.514-2.417-3.078-3.438-4.705
			c-0.152-0.243-0.285-0.494-0.437-0.743c-1.031-1.719-1.965-3.474-2.706-5.278c0-0.006-0.005-0.006-0.005-0.01
			c-4.216-10.116-3.438-21.286,2.973-31.558c7.45-11.838,19.704-19.498,31.902-19.925c0.397-0.021,0.794-0.065,1.19-0.065
			c0.143,0.001,0.283,0.025,0.424,0.029c1.4,0.018,2.802,0.107,4.205,0.311c0.162,0.027,0.32,0.068,0.481,0.097
			c1.256,0.201,2.51,0.486,3.765,0.84c0.438,0.122,0.866,0.266,1.302,0.406c1.029,0.338,2.053,0.723,3.07,1.158
			c0.419,0.179,0.837,0.35,1.255,0.543c1.393,0.656,2.775,1.374,4.135,2.22c1.229,0.762,2.4,1.59,3.536,2.462
			c0.203,0.15,0.386,0.327,0.586,0.483c0.948,0.751,1.864,1.533,2.744,2.349c0.117,0.108,0.226,0.227,0.342,0.339
			c0.958,0.909,1.864,1.856,2.73,2.832c0.021,0.024,0.044,0.051,0.068,0.083C349.278,239.033,351.873,255.407,342.709,269.831z"/>
	</g>
</g>
</svg>
