<?xml version="1.0" encoding="utf-8"?>
<!-- Generator: Adobe Illustrator 15.1.0, SVG Export Plug-In . SVG Version: 6.00 Build 0)  -->
<!DOCTYPE svg PUBLIC "-//W3C//DTD SVG 1.1//EN" "http://www.w3.org/Graphics/SVG/1.1/DTD/svg11.dtd">
<svg version="1.1" id="Layer_1" xmlns="http://www.w3.org/2000/svg" xmlns:xlink="http://www.w3.org/1999/xlink" x="0px" y="0px"
	 width="400px" height="400px" viewBox="0 0 400 400" enable-background="new 0 0 400 400" xml:space="preserve">
<path fill="#231F20" d="M49.565,21.822c-0.432,0.443-0.729,1.012-1.161,1.468l-0.136-0.136
	C5.703,65.708,34.36,163.379,119.491,248.51c85.11,85.119,182.777,113.777,225.341,71.223l-0.136-0.147
	c0.433-0.433,1.001-0.728,1.456-1.173c11.541-11.518,21.352-30,21.829-41.074c0.479-11.074-10.356-25.357-24.06-31.764
	c0,0-62.869-24.812-73.976-24.322c-11.062,0.467-17.823,10.813-18.483,26.45l-0.501,11.791c-2.413,2.401-5.645,3.96-9.332,4.984
	c-30.365-7.808-57.313-22.045-86.722-51.431c-29.386-29.397-43.615-56.325-51.422-86.667c1.024-3.721,2.618-6.965,5.007-9.367
	l11.768-0.478c15.66-0.682,26.02-7.443,26.475-18.494c0.479-11.097-24.31-74-24.31-74c-6.396-13.668-20.713-24.515-31.799-24.025
	C79.588,0.482,61.128,10.293,49.565,21.822z"/>
</svg>
