<?xml version="1.0" encoding="utf-8"?>
<!-- Generator: Adobe Illustrator 15.1.0, SVG Export Plug-In . SVG Version: 6.00 Build 0)  -->
<!DOCTYPE svg PUBLIC "-//W3C//DTD SVG 1.1//EN" "http://www.w3.org/Graphics/SVG/1.1/DTD/svg11.dtd">
<svg version="1.1" id="Layer_1" xmlns="http://www.w3.org/2000/svg" xmlns:xlink="http://www.w3.org/1999/xlink" x="0px" y="0px"
	 width="400px" height="400px" viewBox="0 0 400 400" enable-background="new 0 0 400 400" xml:space="preserve">
<path d="M354.486,174.576c-6.021,13.752-20.536,19.2-32.61,25.868c-85.037,47-173.996,96.421-260.946,142.847
	c-2.627,0-5.247,0-7.874,0c-0.743-1.509-2.399-2.101-4.498-2.252c-6.605-13.201-0.851-28.818,2.25-42.739
	c18.713-84.047,38.366-169.076,57.366-255.315c3.905-17.738,8.347-34.273,20.243-37.116c3.37,0,6.741,0,10.114,0
	c19.676,11.21,37.836,24.903,56.241,38.244c44.87,32.503,90.289,65.832,136.097,98.973c8.63,6.247,19.939,11.209,23.619,22.497
	C354.486,168.581,354.486,171.578,354.486,174.576z"/>
</svg>
