<?xml version="1.0" encoding="utf-8"?>
<!-- Generator: Adobe Illustrator 15.1.0, SVG Export Plug-In . SVG Version: 6.00 Build 0)  -->
<!DOCTYPE svg PUBLIC "-//W3C//DTD SVG 1.1//EN" "http://www.w3.org/Graphics/SVG/1.1/DTD/svg11.dtd">
<svg version="1.1" id="Layer_1" xmlns="http://www.w3.org/2000/svg" xmlns:xlink="http://www.w3.org/1999/xlink" x="0px" y="0px"
	 width="400px" height="400px" viewBox="0 0 400 400" enable-background="new 0 0 400 400" xml:space="preserve">
<path d="M339.589,190.845c-5.441,12.427-18.556,17.349-29.467,23.374c-76.837,42.466-157.216,87.123-235.78,129.071
	c-2.374,0-4.742,0-7.115,0c-0.671-1.363-2.167-1.898-4.064-2.035c-5.967-11.928-0.768-26.038,2.034-38.617
	c16.908-75.943,34.666-152.771,51.834-230.694c3.528-16.027,7.542-30.968,18.291-33.537c3.045,0,6.09,0,9.138,0
	c17.779,10.129,34.187,22.502,50.817,34.556c40.543,29.369,81.582,59.484,122.972,89.429c7.798,5.644,18.016,10.128,21.342,20.328
	C339.589,185.429,339.589,188.137,339.589,190.845z"/>
</svg>
