<?xml version="1.0" encoding="utf-8"?>
<!-- Generator: Adobe Illustrator 15.1.0, SVG Export Plug-In . SVG Version: 6.00 Build 0)  -->
<!DOCTYPE svg PUBLIC "-//W3C//DTD SVG 1.1//EN" "http://www.w3.org/Graphics/SVG/1.1/DTD/svg11.dtd">
<svg version="1.1" id="Layer_1" xmlns="http://www.w3.org/2000/svg" xmlns:xlink="http://www.w3.org/1999/xlink" x="0px" y="0px"
	 width="344px" height="400px" viewBox="44.5 0 344 400" enable-background="new 44.5 0 344 400" xml:space="preserve">
<g>
	<path fill="#2F3081" d="M118.963,242.851l-50.098,0.141c-12.193,0.034-22.191-9.912-22.227-22.102l-0.133-46.247
		c-0.032-12.195,9.917-22.198,22.109-22.229l50.1-0.139c12.187-0.034,22.191,9.913,22.228,22.106l0.13,46.239
		C141.103,232.818,131.159,242.818,118.963,242.851z"/>
	
		<rect x="325.566" y="163.146" transform="matrix(-1 -0.0089 0.0089 -1 664.9237 405.7643)" fill="#2A599C" width="15.601" height="76.506"/>
	
		<rect x="340.97" y="170.115" transform="matrix(-1 -0.0088 0.0088 -1 710.769 406.3801)" fill="#585857" width="30.614" height="63.027"/>
	
		<rect x="370.833" y="176.547" transform="matrix(-1 -0.009 0.009 -1 755.4373 407.0995)" fill="#3D3D3C" width="15.611" height="50.592"/>
	
		<rect x="83.552" y="53.755" transform="matrix(-1 -0.0089 0.0089 -1 180.9527 397.4716)" fill="#2A599C" width="15.613" height="289.158"/>
	<polygon opacity="0.6" fill="#38A7DF" enable-background="new    " points="244.881,245.997 228.193,337.668 259.54,333.886 
		284.689,273.693 295.658,272.446 304.497,236.776 237.255,239.523 	"/>
	<path fill="#38A7DF" d="M263.532,156.206l0.008-0.11c-0.197-0.002-0.393,0.014-0.583,0.013
		c-31.56-0.872-132.635-45.479-163.747-94.611l-1.794,137.375l0,0l-0.001,0.163l0.001,0.157l0,0L96.78,336.578
		c36.987-48.184,131.848-92.124,165.399-92.329c0.188,0.007,0.381,0.014,0.58,0.016l-0.006-0.305l62.461-5.278l0.324-37.469
		l0.009-0.518l0.331-37.473L263.532,156.206z"/>
</g>
</svg>
