<?xml version="1.0" encoding="utf-8"?>
<!-- Generator: Adobe Illustrator 15.1.0, SVG Export Plug-In . SVG Version: 6.00 Build 0)  -->
<!DOCTYPE svg PUBLIC "-//W3C//DTD SVG 1.1//EN" "http://www.w3.org/Graphics/SVG/1.1/DTD/svg11.dtd">
<svg version="1.1" id="Layer_1" xmlns="http://www.w3.org/2000/svg" xmlns:xlink="http://www.w3.org/1999/xlink" x="0px" y="0px"
	 width="400px" height="400px" viewBox="0 0 400 400" enable-background="new 0 0 400 400" xml:space="preserve">
<g>
	<path d="M104.41,77.786l2.389-1.733c0,0,170.528-14.72,178.533-38.299c3.468,0,3.468,0,3.468,0s0,53.889,0,65.786
		c-5.836,11.042-41.104,21.069-87.863,28.999c-42.091,7.139-70.229,9.677-96.527,14.935V77.786L104.41,77.786z"/>
	<path d="M289.84,288.137c-5.848,11.036-41.1,21.064-87.857,29.002c-42.104,7.142-70.246,9.673-96.522,14.938v-69.686l2.378-1.732
		c0,0,174.042-15.29,182.001-41.034C289.84,234.857,289.84,276.237,289.84,288.137z"/>
	<path d="M289.84,195.858c-5.848,11.04-41.1,21.068-87.857,29.001c-42.104,7.146-70.246,9.674-96.522,14.934v-69.686l2.378-1.733
		c0,0,174.042-15.276,182.001-41.03C289.84,142.575,289.84,183.958,289.84,195.858z"/>
</g>
</svg>
