<?xml version="1.0" encoding="utf-8"?>
<!-- Generator: Adobe Illustrator 15.1.0, SVG Export Plug-In . SVG Version: 6.00 Build 0)  -->
<!DOCTYPE svg PUBLIC "-//W3C//DTD SVG 1.1//EN" "http://www.w3.org/Graphics/SVG/1.1/DTD/svg11.dtd">
<svg version="1.1" id="Layer_1" xmlns="http://www.w3.org/2000/svg" xmlns:xlink="http://www.w3.org/1999/xlink" x="0px" y="0px"
	 width="400px" height="400px" viewBox="0 0 400 400" enable-background="new 0 0 400 400" xml:space="preserve">
<g>
	<path d="M82.737,50.507l2.947-2.139c0,0,210.392-18.162,220.268-47.252c4.279,0,4.279,0,4.279,0s0,66.486,0,81.165
		c-7.2,13.624-50.714,25.994-108.402,35.778c-51.93,8.808-86.646,11.939-119.091,18.426L82.737,50.507L82.737,50.507z"/>
	<path d="M311.513,310.029c-7.214,13.617-50.707,25.989-108.396,35.783c-51.946,8.812-86.667,11.935-119.085,18.43v-85.977
		l2.935-2.136c0,0,214.728-18.865,224.546-50.627C311.513,244.296,311.513,295.347,311.513,310.029z"/>
	<path d="M311.513,196.18c-7.214,13.622-50.707,25.992-108.396,35.781c-51.946,8.815-86.667,11.935-119.085,18.424v-85.976
		l2.935-2.138c0,0,214.728-18.847,224.546-50.622C311.513,130.441,311.513,181.498,311.513,196.18z"/>
</g>
</svg>
