<?xml version="1.0" encoding="utf-8"?>
<!-- Generator: Adobe Illustrator 15.1.0, SVG Export Plug-In . SVG Version: 6.00 Build 0)  -->
<!DOCTYPE svg PUBLIC "-//W3C//DTD SVG 1.1//EN" "http://www.w3.org/Graphics/SVG/1.1/DTD/svg11.dtd">
<svg version="1.1" id="Layer_1" xmlns="http://www.w3.org/2000/svg" xmlns:xlink="http://www.w3.org/1999/xlink" x="0px" y="0px"
	 width="400px" height="400px" viewBox="0 0 400 400" enable-background="new 0 0 400 400" xml:space="preserve">
<g>
	<path d="M285.617,72.965C251.735,62.396,218.4,57.111,185.61,57.111c-15.449,0-30.223,1.36-44.312,4.065
		c-11.116,2.986-19.716,7.66-25.814,14.024c-6.098,6.372-9.147,11.18-9.147,14.433c0,3.253,0.539,5.964,1.627,8.131
		c1.081,2.173,1.625,4.002,1.625,5.488c0,1.493-0.608,2.103-1.831,1.831c-1.218-0.267-3.32-2.236-6.3-5.896
		c-2.985-3.66-4.473-8.13-4.473-13.414c0-5.286,1.895-10.775,5.691-16.466c7.859-11.65,18.563-19.781,32.117-24.392
		c13.548-4.604,30.218-6.91,50.003-6.91c31.163,0,69.518,5.831,115.047,17.479c6.232-6.233,12.807-10.774,19.717-13.619
		c6.913-2.846,12.26-4.27,16.061-4.27c3.792,0,6.505,2.442,8.131,7.319c0,0.812,0,1.494,0,2.033c0,9.491-4.41,17.009-13.212,22.563
		c-8.812,5.558-16.738,8.332-23.783,8.332c-2.441,0-4.747-0.266-6.913-0.814c-6.504,3.526-12.266,7.522-17.276,11.995
		c-5.019,4.47-8.88,7.864-11.587,10.163c-2.713,2.306-6.238,5.691-10.567,10.164c-4.341,4.47-7.593,7.864-9.759,10.163
		c-2.174,2.306-5.763,6.238-10.774,11.789c-5.018,5.559-8.473,9.288-10.364,11.18c-8.676,9.49-15.723,17.621-21.142,24.393
		c23.581-1.893,38.621-2.847,45.125-2.847c6.506,0,10.571,0,12.195,0c1.627,0,3.254,0.203,4.882,0.608
		c1.625,0.409,2.845,0.885,3.657,1.425c1.893,1.624-0.952,3.798-8.539,6.503c-11.655,3.25-35.1,6.098-70.327,8.538l-19.11,20.327
		c-27.102,27.644-51.494,47.704-73.176,60.167c-1.898,1.897-2.845,3.863-2.845,5.896s1.627,4.134,4.878,6.3
		c7.586,4.066,21.205,11.787,40.857,23.174c19.646,11.382,34.758,19.644,45.329,24.798c10.569,5.146,23.172,9.758,37.805,13.822
		c14.638,4.065,25.747,6.099,33.34,6.099c7.582,0,13.275-0.272,17.072-0.814c13.275-1.901,23.985-7.316,32.116-16.262
		c3.793-4.339,5.693-9.349,5.693-15.042c0-5.694-2.308-12.196-6.914-19.513c-1.899-3.525-1.766-5.49,0.408-5.896
		c2.166-0.404,4.198,1.017,6.099,4.267c5.417,8.671,9.21,19.513,11.38,32.522c0.269,1.628,0.407,3.388,0.407,5.284
		c0,8.131-3.118,15.857-9.347,23.174c-7.319,8.67-19.719,13.011-37.2,13.011s-35.437-3.12-53.866-9.35
		c-18.434-6.236-35.101-14.229-50.003-23.986c-47.158-30.354-79.14-48.648-95.942-54.881c-8.942,4.604-15.181,6.911-18.7,6.911
		c-10.304,0-15.449-4.339-15.449-13.01c0-5.146,2.849-9.075,8.539-11.788c2.705-0.269,6.84,0.202,12.398,1.422
		c5.552,1.219,9.686,1.969,12.4,2.235c17.887-6.23,47.969-31.976,90.25-77.242c-13.008,0.814-21.686,1.218-26.019,1.218
		c-4.337,0-7.386-0.063-9.147-0.202c-1.766-0.133-3.798-1.282-6.098-3.455c-2.305-2.168-3.456-4.879-3.456-8.131
		c0-3.252,2.706-6.03,8.13-8.333c5.419-2.301,9.077-3.457,10.978-3.457c1.892,0,3.521,0,4.878,0c1.353,0,3.113,1.36,5.285,4.065
		c2.166,2.711,3.657,4.065,4.473,4.065c4.065,0.274,8.13,0.408,12.196,0.408s7.99-0.134,11.789-0.408
		c3.251-3.518,8.538-9.21,15.854-17.076l16.668-17.885C246.857,101.829,269.625,81.643,285.617,72.965z"/>
</g>
</svg>
