<?xml version="1.0" encoding="utf-8"?>
<!-- Generator: Adobe Illustrator 15.1.0, SVG Export Plug-In . SVG Version: 6.00 Build 0)  -->
<!DOCTYPE svg PUBLIC "-//W3C//DTD SVG 1.1//EN" "http://www.w3.org/Graphics/SVG/1.1/DTD/svg11.dtd">
<svg version="1.1" id="Layer_1" xmlns="http://www.w3.org/2000/svg" xmlns:xlink="http://www.w3.org/1999/xlink" x="0px" y="0px"
	 width="400px" height="400px" viewBox="0 0 400 400" enable-background="new 0 0 400 400" xml:space="preserve">
<g>
	<path d="M349.925,212.687"/>
	<path d="M341.062,324.817"/>
	<path d="M259.18,121.945c0,33.411-13.543,63.66-35.437,85.552c-21.893,21.896-52.14,35.436-85.55,35.436
		c-33.41,0-63.659-13.54-85.553-35.436c-21.892-21.892-35.437-52.143-35.437-85.552c0-33.408,13.544-63.658,35.437-85.551
		c21.894-21.896,52.141-35.436,85.553-35.436s63.658,13.54,85.55,35.436C245.639,58.287,259.18,88.538,259.18,121.945z"/>
	<path d="M331.814,121.945c3.411,25.253,5.299,51.07,5.299,60.497c0,19.111-7.748,105.631-20.275,118.155
		c-12.522,12.526-99.041,20.274-118.153,20.274c-9.428,0-35.244-1.889-60.493-5.297v48.353H259.18h120.99v-120.99V121.946
		L331.814,121.945L331.814,121.945z"/>
	<path d="M301.954,79.173c-4.249-4.248-18.241-7.865-34.745-10.704c6.835,16.473,10.627,34.53,10.627,53.477
		c0,38.562-15.629,73.473-40.898,98.746c-25.271,25.272-60.183,40.899-98.745,40.899c-18.948,0-37.003-3.79-53.479-10.629
		c2.838,16.502,6.452,30.499,10.701,34.751c10.947,10.947,86.563,17.721,103.268,17.721s92.323-6.773,103.268-17.721
		c10.946-10.948,17.721-86.566,17.721-103.271C319.672,165.737,312.901,90.118,301.954,79.173z"/>
</g>
</svg>
