<?xml version="1.0" encoding="utf-8"?>
<!-- Generator: Adobe Illustrator 15.1.0, SVG Export Plug-In . SVG Version: 6.00 Build 0)  -->
<!DOCTYPE svg PUBLIC "-//W3C//DTD SVG 1.1//EN" "http://www.w3.org/Graphics/SVG/1.1/DTD/svg11.dtd">
<svg version="1.1" id="Layer_1" xmlns="http://www.w3.org/2000/svg" xmlns:xlink="http://www.w3.org/1999/xlink" x="0px" y="0px"
	 width="400px" height="400px" viewBox="0 0 400 400" enable-background="new 0 0 400 400" xml:space="preserve">
<g>
	<path d="M321.888,209.637"/>
	<path d="M314.668,300.98"/>
	<path d="M247.966,135.716c0,27.217-11.033,51.858-28.869,69.692c-17.834,17.837-42.473,28.868-69.69,28.868
		s-51.858-11.031-69.693-28.868c-17.834-17.834-28.868-42.476-28.868-69.692c0-27.215,11.033-51.857,28.868-69.692
		c17.835-17.837,42.475-28.867,69.693-28.867s51.856,11.03,69.69,28.867C236.933,83.859,247.966,108.501,247.966,135.716z"/>
	<path d="M307.137,135.716c2.778,20.571,4.315,41.602,4.315,49.281c0,15.57-6.311,86.05-16.516,96.252
		c-10.201,10.204-80.682,16.517-96.251,16.517c-7.68,0-28.71-1.539-49.279-4.316v39.39h98.56h98.561v-98.562v-98.561H307.137z"/>
	<path d="M282.811,100.872c-3.461-3.461-14.861-6.407-28.304-8.719c5.567,13.419,8.656,28.129,8.656,43.564
		c0,31.413-12.732,59.853-33.318,80.439c-20.585,20.588-49.025,33.318-80.438,33.318c-15.435,0-30.144-3.087-43.565-8.657
		c2.312,13.443,5.256,24.845,8.717,28.308c8.918,8.919,70.517,14.435,84.125,14.435s75.208-5.516,84.125-14.435
		c8.918-8.919,14.436-70.518,14.436-84.127C297.245,171.389,291.729,109.788,282.811,100.872z"/>
</g>
</svg>
