<?xml version="1.0" encoding="utf-8"?>
<!-- Generator: Adobe Illustrator 15.1.0, SVG Export Plug-In . SVG Version: 6.00 Build 0)  -->
<!DOCTYPE svg PUBLIC "-//W3C//DTD SVG 1.1//EN" "http://www.w3.org/Graphics/SVG/1.1/DTD/svg11.dtd">
<svg version="1.1" id="Layer_1" xmlns="http://www.w3.org/2000/svg" xmlns:xlink="http://www.w3.org/1999/xlink" x="0px" y="0px"
	 width="434.699px" height="400px" viewBox="-34.699 0 434.699 400" enable-background="new -34.699 0 434.699 400"
	 xml:space="preserve">
<path fill="#333333" d="M400.402,159.987c-15.329,2.602-37.506-0.113-49.272-5.062c24.438-2.009,40.955-13.124,47.348-28.229
	c-8.769,5.431-36.205,11.343-51.278,5.714c-0.764-3.536-1.558-6.901-2.406-9.983c-11.484-42.286-50.912-76.396-92.207-72.322
	c3.309-1.358,6.732-2.546,10.125-3.678c4.526-1.64,31.229-5.968,26.984-15.415c-3.535-8.315-36.147,6.222-42.257,8.146
	c8.09-2.999,21.496-8.203,22.91-17.593c-12.388,1.726-24.579,7.609-33.998,16.123c3.424-3.705,5.998-8.089,6.505-12.925
	c-33.092,21.185-52.425,63.781-68.052,105.245c-12.316-11.936-23.206-21.326-32.951-26.531C114.446,88.77,81.649,73.41,30.2,54.29
	c-1.584,17.055,8.442,39.739,37.208,54.758c-6.223-0.848-17.621,1.047-26.742,3.225c3.69,19.545,15.853,35.61,48.72,43.36
	c-15.004,0.99-22.797,4.441-29.827,11.823c6.845,13.577,23.562,29.5,53.585,26.278c-33.418,14.395-13.633,41.039,13.533,37.08
	c-46.329,47.943-119.416,44.35-161.376,4.356C74.875,384.595,313,323.471,348.44,179.561
	C375.06,179.785,390.729,170.339,400.402,159.987L400.402,159.987z"/>
</svg>
