<?xml version="1.0" encoding="utf-8"?>
<!-- Generator: Adobe Illustrator 15.1.0, SVG Export Plug-In . SVG Version: 6.00 Build 0)  -->
<!DOCTYPE svg PUBLIC "-//W3C//DTD SVG 1.1//EN" "http://www.w3.org/Graphics/SVG/1.1/DTD/svg11.dtd">
<svg version="1.1" id="Layer_1" xmlns="http://www.w3.org/2000/svg" xmlns:xlink="http://www.w3.org/1999/xlink" x="0px" y="0px"
	 width="400px" height="400px" viewBox="0 0 400 400" enable-background="new 0 0 400 400" xml:space="preserve">
<path d="M394.831,80.538c-2.677-35.279-36.903-67.044-74.554-69.395c-80.184-4.561-160.366-4.562-240.549,0
	C42.077,13.494,7.843,45.259,5.171,80.538c-4.829,69.728-4.829,139.457,0,209.186c2.671,35.277,36.906,67.039,74.557,69.389
	c80.184,4.562,160.364,4.562,240.549,0c37.649-2.353,71.877-34.111,74.552-69.389C399.659,219.995,399.659,150.266,394.831,80.538z
	 M217.413,275.511H97.767v-22.706h119.646V275.511L217.413,275.511z M297.127,271.646c-1.596,1.594-3.445,2.834-5.561,3.728
	c-2.111,0.891-4.345,1.337-6.686,1.337c-2.349,0-4.552-0.446-6.615-1.337c-2.065-0.894-3.896-2.135-5.491-3.728
	c-1.6-1.597-2.841-3.427-3.731-5.492c-0.892-2.066-1.339-4.271-1.339-6.617c0-2.346,0.447-4.574,1.339-6.689
	c0.891-2.109,2.132-3.964,3.731-5.558c3.286-3.286,7.318-4.927,12.106-4.927c2.341,0,4.572,0.423,6.686,1.267
	c2.115,0.845,3.965,2.067,5.561,3.66c3.285,3.285,4.929,7.368,4.929,12.247C302.056,264.325,300.41,268.361,297.127,271.646z"/>
</svg>
