<?xml version="1.0" encoding="utf-8"?>
<!-- Generator: Adobe Illustrator 15.1.0, SVG Export Plug-In . SVG Version: 6.00 Build 0)  -->
<!DOCTYPE svg PUBLIC "-//W3C//DTD SVG 1.1//EN" "http://www.w3.org/Graphics/SVG/1.1/DTD/svg11.dtd">
<svg version="1.1" id="Layer_1" xmlns="http://www.w3.org/2000/svg" xmlns:xlink="http://www.w3.org/1999/xlink" x="0px" y="0px"
	 width="400px" height="400px" viewBox="0 0 400 400" enable-background="new 0 0 400 400" xml:space="preserve">
<path d="M361.517,98.422c-2.218-29.247-30.593-55.581-61.805-57.529c-66.474-3.781-132.945-3.782-199.418,0
	c-31.214,1.948-59.595,28.282-61.81,57.529c-4.003,57.805-4.003,115.611,0,173.417c2.214,29.246,30.595,55.577,61.809,57.524
	c66.473,3.782,132.944,3.782,199.418,0c31.212-1.949,59.587-28.278,61.804-57.524C365.519,214.033,365.519,156.227,361.517,98.422z
	 M214.435,260.057h-99.188v-18.824h99.188V260.057z M280.52,256.853c-1.325,1.321-2.856,2.35-4.611,3.091
	c-1.75,0.738-3.6,1.108-5.542,1.108c-1.947,0-3.773-0.37-5.484-1.108c-1.713-0.741-3.23-1.77-4.553-3.091
	c-1.325-1.323-2.354-2.842-3.093-4.552c-0.739-1.714-1.109-3.541-1.109-5.486c0-1.946,0.37-3.794,1.109-5.546
	c0.739-1.75,1.768-3.286,3.093-4.608c2.724-2.723,6.068-4.084,10.037-4.084c1.942,0,3.792,0.351,5.542,1.05
	c1.755,0.7,3.286,1.715,4.611,3.034c2.723,2.724,4.086,6.109,4.086,10.154C284.605,250.783,283.242,254.129,280.52,256.853z"/>
</svg>
