<?xml version="1.0" encoding="utf-8"?>
<!-- Generator: Adobe Illustrator 15.1.0, SVG Export Plug-In . SVG Version: 6.00 Build 0)  -->
<!DOCTYPE svg PUBLIC "-//W3C//DTD SVG 1.1//EN" "http://www.w3.org/Graphics/SVG/1.1/DTD/svg11.dtd">
<svg version="1.1" id="Layer_1" xmlns="http://www.w3.org/2000/svg" xmlns:xlink="http://www.w3.org/1999/xlink" x="0px" y="0px"
	 width="400px" height="400px" viewBox="0 0 400 400" enable-background="new 0 0 400 400" xml:space="preserve">
<g>
	<path fill="#231F20" d="M280.337,27.155H119.665c-6.32,0-11.477,5.156-11.477,11.477v126.243c0,6.322,5.156,11.477,11.477,11.477
		h160.672c6.32,0,11.476-5.155,11.476-11.477V38.633C291.812,32.311,286.657,27.155,280.337,27.155z"/>
	<path fill="#231F20" d="M280.337,199.304H119.665c-6.32,0-11.477,5.155-11.477,11.477v126.243c0,6.318,5.156,11.476,11.477,11.476
		h160.672c6.32,0,11.476-5.157,11.476-11.476V210.781C291.812,204.46,286.657,199.304,280.337,199.304z"/>
	<path fill="#231F20" d="M79.497,302.594H45.066c-3.137,0-5.738,2.578-5.738,5.737v34.43c0,3.16,2.6,5.738,5.738,5.738h34.431
		c3.183,0,5.737-2.578,5.737-5.738v-34.43C85.234,305.172,82.679,302.594,79.497,302.594z"/>
	<path fill="#231F20" d="M79.497,233.732H45.066c-3.137,0-5.738,2.579-5.738,5.74v34.429c0,3.161,2.6,5.738,5.738,5.738h34.431
		c3.183,0,5.737-2.577,5.737-5.738v-34.428C85.234,236.312,82.679,233.732,79.497,233.732z"/>
	<path fill="#231F20" d="M79.497,164.875H45.066c-3.137,0-5.738,2.577-5.738,5.737v34.43c0,3.161,2.6,5.738,5.738,5.738h34.431
		c3.183,0,5.737-2.577,5.737-5.738v-34.43C85.234,167.453,82.679,164.875,79.497,164.875z"/>
	<path fill="#231F20" d="M79.497,96.016H45.066c-3.137,0-5.738,2.578-5.738,5.738v34.43c0,3.16,2.6,5.738,5.738,5.738h34.431
		c3.183,0,5.737-2.578,5.737-5.738v-34.43C85.234,98.593,82.679,96.016,79.497,96.016z"/>
	<path fill="#231F20" d="M79.497,27.155H45.066c-3.137,0-5.738,2.579-5.738,5.738v34.43c0,3.16,2.6,5.737,5.738,5.737h34.431
		c3.183,0,5.737-2.578,5.737-5.737V32.894C85.234,29.734,82.679,27.155,79.497,27.155z"/>
	<path fill="#231F20" d="M354.935,302.594h-34.43c-3.139,0-5.739,2.578-5.739,5.737v34.43c0,3.16,2.601,5.738,5.739,5.738h34.43
		c3.184,0,5.737-2.578,5.737-5.738v-34.43C360.672,305.172,358.117,302.594,354.935,302.594z"/>
	<path fill="#231F20" d="M354.935,233.732h-34.43c-3.139,0-5.739,2.579-5.739,5.74v34.429c0,3.161,2.601,5.738,5.739,5.738h34.43
		c3.184,0,5.737-2.577,5.737-5.738v-34.428C360.672,236.312,358.117,233.732,354.935,233.732z"/>
	<path fill="#231F20" d="M354.935,164.875h-34.43c-3.139,0-5.739,2.577-5.739,5.737v34.43c0,3.161,2.601,5.738,5.739,5.738h34.43
		c3.184,0,5.737-2.577,5.737-5.738v-34.43C360.672,167.453,358.117,164.875,354.935,164.875z"/>
	<path fill="#231F20" d="M354.935,96.016h-34.43c-3.139,0-5.739,2.578-5.739,5.738v34.43c0,3.16,2.601,5.738,5.739,5.738h34.43
		c3.184,0,5.737-2.578,5.737-5.738v-34.43C360.672,98.593,358.117,96.016,354.935,96.016z"/>
	<path fill="#231F20" d="M354.935,27.155h-34.43c-3.139,0-5.739,2.579-5.739,5.738v34.43c0,3.16,2.601,5.737,5.739,5.737h34.43
		c3.184,0,5.737-2.578,5.737-5.737V32.894C360.672,29.734,358.117,27.155,354.935,27.155z"/>
</g>
</svg>
