<?xml version="1.0" encoding="utf-8"?>
<!-- Generator: Adobe Illustrator 15.1.0, SVG Export Plug-In . SVG Version: 6.00 Build 0)  -->
<!DOCTYPE svg PUBLIC "-//W3C//DTD SVG 1.1//EN" "http://www.w3.org/Graphics/SVG/1.1/DTD/svg11.dtd">
<svg version="1.1" id="Layer_1" xmlns="http://www.w3.org/2000/svg" xmlns:xlink="http://www.w3.org/1999/xlink" x="0px" y="0px"
	 width="192px" height="192px" viewBox="0 0 192 192" enable-background="new 0 0 192 192" xml:space="preserve">
<ellipse fill="#B8DCD6" cx="96" cy="96" rx="96" ry="92"/>
<g>
	<g>
		<path fill="#2F3081" d="M944.009,586.639l-12.686-4.793c-3.087-1.167-4.658-4.646-3.491-7.733l4.424-11.71
			c1.167-3.087,4.647-4.658,7.734-3.491l12.685,4.794c3.087,1.166,4.658,4.646,3.492,7.733l-4.425,11.709
			C950.575,586.234,947.096,587.806,944.009,586.639z"/>
		
			<rect x="983.114" y="582.461" transform="matrix(0.9313 0.3642 -0.3642 0.9313 282.4483 -318.1086)" fill="#2A599C" width="2.99" height="14.649"/>
		
			<rect x="985.766" y="585.351" transform="matrix(0.9313 0.3643 -0.3643 0.9313 283.4254 -319.5756)" fill="#585857" width="5.862" height="12.069"/>
		
			<rect x="991.187" y="588.101" transform="matrix(0.9312 0.3645 -0.3645 0.9312 284.4316 -321.0477)" fill="#3D3D3C" width="2.99" height="9.688"/>
		
			<rect x="940.024" y="545.051" transform="matrix(0.9313 0.3642 -0.3642 0.9313 273.2792 -303.5851)" fill="#2A599C" width="2.99" height="55.374"/>
		<polygon fill="#38A7DF" points="953.313,606.897 953.389,609.841 962.617,613.341 964.839,608.761 		"/>
		<polygon opacity="0.6" fill="#38A7DF" points="965.738,591.732 956.501,606.998 962.368,608.458 970.974,599.402 973.021,599.928 
			977.034,594.147 964.814,590.055 		"/>
		<path fill="#38A7DF" d="M968.765,574.484l0.008-0.019c-0.035-0.014-0.069-0.024-0.104-0.038
			c-9.573-3.745-15.413-13.666-16.415-25.644l-9.688,24.461l0,0l-0.012,0.028l-0.011,0.028l0,0l-9.482,24.541
			c8.864-8.117,19.886-11.44,29.459-7.695c0.034,0.014,0.067,0.028,0.102,0.042l0.021-0.055l17.97,5.766l2.614-6.682l0.036-0.093
			l2.614-6.683L968.765,574.484z"/>
	</g>
	<path opacity="0.35" fill="#1D1D1B" d="M993.686,587.307l-5.419-2.142l0.475-1.199l-2.78-1.1l-0.502,1.269l0.492-1.245
		l-17.083-8.019l0.008-0.02c-0.034-0.013-0.069-0.024-0.104-0.038c-9.431-3.728-15.197-13.455-16.274-25.217l0.698-1.768
		l-2.78-1.099l-5.628,14.238l-4.681-1.788c-3.061-1.169-6.521,0.379-7.689,3.439l-2.77,7.254l64.828,23.167l1.415-3.582
		l-2.644-1.045L993.686,587.307z"/>
	<path fill="#FFFFFF" d="M908.354,572.536c-4.614-9.14-0.945-20.29,8.194-24.905c2.374-1.198,4.883-1.833,7.378-1.963l-0.672-1.331
		c-2.686,0.106-5.392,0.771-7.948,2.062c-9.55,4.821-13.383,16.471-8.562,26.021c0.959,1.899,2.191,3.568,3.62,4.992l1.038-0.524
		C910.211,575.62,909.177,574.167,908.354,572.536z"/>
	<path fill="#FFFFFF" d="M918.096,574.661c-4.082-7.06-1.668-16.093,5.393-20.176c1.834-1.06,3.801-1.678,5.779-1.895l-0.595-1.028
		c-2.131,0.206-4.253,0.857-6.228,1.999c-7.377,4.265-9.899,13.702-5.634,21.079c0.848,1.467,1.903,2.738,3.104,3.807l0.802-0.464
		C919.713,577.03,918.824,575.922,918.096,574.661z"/>
</g>
<g>
	<g>
		<path fill="#2F3081" d="M87.356,106.768l-17.512-6.617c-4.262-1.611-6.43-6.414-4.82-10.675l6.107-16.166
			c1.611-4.262,6.416-6.431,10.678-4.82l17.511,6.618c4.26,1.61,6.43,6.414,4.821,10.676l-6.108,16.163
			C96.421,106.21,91.618,108.379,87.356,106.768z"/>
		
			<rect x="141.342" y="101" transform="matrix(0.9313 0.3643 -0.3643 0.9313 50.3357 -44.6087)" fill="#2A599C" width="4.125" height="20.224"/>
		
			<rect x="145.002" y="104.991" transform="matrix(0.9313 0.3643 -0.3643 0.9313 51.5228 -46.5096)" fill="#585857" width="8.093" height="16.661"/>
		
			<rect x="152.486" y="108.786" transform="matrix(0.9313 0.3644 -0.3644 0.9313 52.6986 -48.3743)" fill="#3D3D3C" width="4.127" height="13.374"/>
		
			<rect x="81.855" y="49.355" transform="matrix(0.9312 0.3644 -0.3644 0.9312 37.6838 -24.5584)" fill="#2A599C" width="4.127" height="76.444"/>
		<polygon fill="#38A7DF" points="100.202,134.735 100.306,138.799 113.046,143.63 116.111,137.308 		"/>
		<polygon opacity="0.6" fill="#38A7DF" points="117.354,113.8 104.602,134.874 112.701,136.89 124.58,124.388 127.407,125.113 
			132.948,117.134 116.079,111.483 		"/>
		<path fill="#38A7DF" d="M121.531,89.989l0.013-0.026c-0.049-0.019-0.098-0.034-0.146-0.052
			c-13.215-5.17-21.278-18.866-22.661-35.401L85.362,88.277l0,0l-0.016,0.04l-0.015,0.039l0,0l-13.09,33.878
			c12.237-11.205,27.454-15.793,40.668-10.623c0.046,0.02,0.093,0.039,0.142,0.059l0.027-0.076l24.809,7.96l3.607-9.225l0.051-0.127
			l3.61-9.226L121.531,89.989z"/>
	</g>
	<path opacity="0.35" fill="#1D1D1B" d="M155.935,107.689l-7.48-2.956l0.656-1.655l-3.839-1.518l-0.693,1.75l0.68-1.718
		l-23.583-11.07l0.01-0.027c-0.046-0.018-0.095-0.034-0.141-0.053c-13.02-5.146-20.98-18.575-22.468-34.812l0.963-2.44l-3.837-1.517
		l-7.77,19.656l-6.462-2.469c-4.225-1.614-9.001,0.523-10.615,4.748l-3.824,10.014l89.497,31.981l1.953-4.944l-3.65-1.443
		L155.935,107.689z"/>
	<path fill="#FFFFFF" d="M38.134,87.299c-6.37-12.617-1.305-28.01,11.312-34.382c3.277-1.654,6.741-2.53,10.185-2.71l-0.927-1.837
		c-3.708,0.147-7.443,1.065-10.973,2.846c-13.184,6.656-18.475,22.738-11.819,35.922c1.324,2.622,3.025,4.926,4.998,6.892
		l1.434-0.724C40.698,91.557,39.271,89.55,38.134,87.299z"/>
	<path fill="#FFFFFF" d="M51.583,90.232c-5.635-9.746-2.302-22.216,7.444-27.853c2.532-1.463,5.247-2.316,7.979-2.616l-0.821-1.419
		c-2.942,0.285-5.871,1.184-8.597,2.76c-10.184,5.887-13.667,18.916-7.778,29.1c1.17,2.025,2.628,3.781,4.285,5.255l1.107-0.64
		C53.816,93.503,52.589,91.973,51.583,90.232z"/>
</g>
</svg>
