<?xml version="1.0" encoding="utf-8"?>
<!-- Generator: Adobe Illustrator 15.1.0, SVG Export Plug-In . SVG Version: 6.00 Build 0)  -->
<!DOCTYPE svg PUBLIC "-//W3C//DTD SVG 1.1//EN" "http://www.w3.org/Graphics/SVG/1.1/DTD/svg11.dtd">
<svg version="1.1" id="Layer_1" xmlns="http://www.w3.org/2000/svg" xmlns:xlink="http://www.w3.org/1999/xlink" x="0px" y="0px"
	 width="192px" height="192px" viewBox="0 0 192 192" enable-background="new 0 0 192 192" xml:space="preserve">
<ellipse fill="#8EC4C8" cx="95.984" cy="96" rx="96" ry="92"/>
<g>
	<rect x="41.547" y="97.017" fill="#FFFFFF" width="115.789" height="48.306"/>
	<path fill="#1D1D1B" d="M38.548,143.6l0.001,1.818c0.006,7.442,5.941,13.525,13.189,13.52l92.428-0.073
		c7.248-0.006,13.173-6.1,13.169-13.542l-0.004-1.723H38.548z"/>
	<path fill="#70706F" d="M158.923,98.982c-0.004-7.442-6.1-13.527-13.542-13.521l-94.902,0.075
		c-7.442,0.006-13.527,6.1-13.521,13.542l0.034,42.664c0.005,7.442,6.1,13.525,13.542,13.52l94.904-0.073
		c7.442-0.008,13.527-6.1,13.52-13.542L158.923,98.982z M46.636,106.851l103.933-0.083l0.004,5.246L46.64,112.097L46.636,106.851z
		 M46.662,138.98l-0.005-5.246l60.376-0.047l0.004,5.246L46.662,138.98z M46.65,125.211l-0.003-5.246l103.934-0.081l0.004,5.244
		L46.65,125.211z"/>
	<path fill="#191513" d="M153.509,78.854L42.333,78.942c-2.979,0.002-5.392,2.418-5.391,5.399l0.006,6.741
		c0.002,2.98,2.419,5.393,5.399,5.391l111.177-0.088c2.979-0.002,5.393-2.418,5.392-5.399l-0.006-6.741
		C158.908,81.265,156.489,78.852,153.509,78.854z"/>
	<path fill="#191513" d="M146.91,32.706L37.037,58.931c-2.466,0.588-3.987,3.063-3.398,5.529l2.027,8.496
		c0.588,2.465,3.063,3.987,5.529,3.398l109.874-26.225c2.466-0.588,3.986-3.063,3.398-5.527l-2.028-8.498
		C151.851,33.639,149.375,32.118,146.91,32.706z"/>
	<polygon fill="#FFFFFF" points="114.67,58.115 129.539,54.369 114.24,41.198 99.367,44.944 	"/>
	<polygon fill="#FFFFFF" points="63.531,70.284 78.403,66.539 63.102,53.37 48.23,57.114 	"/>
	<g>
		<path fill="#191513" d="M154.311,78.935l-112.79,0.169c-2.535,0.004-4.585,2.061-4.582,4.594l0.013,8.735
			c0.003,2.535,2.061,4.586,4.595,4.583l112.79-0.168c2.535-0.003,4.586-2.062,4.582-4.596l-0.013-8.735
			C158.9,80.982,156.846,78.931,154.311,78.935z"/>
		<polygon fill="#FFFFFF" points="142.534,96.128 157.871,95.915 146.021,79.57 130.686,79.783 		"/>
		<polygon fill="#FFFFFF" points="90.289,96.249 105.624,96.036 93.774,79.691 78.439,79.904 		"/>
	</g>
	<rect x="39.889" y="65.957" fill="#3D3D3C" width="18.252" height="22.747"/>
	<circle fill="#C7C6C5" cx="43.337" cy="83.875" r="1.353"/>
	<circle fill="#C7C6C5" cx="44.312" cy="72.397" r="2.621"/>
	<circle fill="#C7C6C5" cx="53.87" cy="83.865" r="1.353"/>
</g>
</svg>
