<svg xmlns="http://www.w3.org/2000/svg" viewBox="0 0 492 96" width="492" height="96"><path d="M64 51.3c-.1 0 0 29.9 0 29.9 0 3.8-3.2 7.1-7.5 7.1h-4.1v1.5h34.3v-1.5h-4.1c-4.2 0-7.5-3.4-7.5-7.1v-66.6c0-3.6 3.2-7.1 7.5-7.1h4.1v-1.5h-34.2v1.5h4.1c4.3 0 7.5 3.4 7.5 7.1v32.5h-40.7v-32.5c0-3.6 3.3-7.1 7.5-7.1h4.1v-1.5h-34.5v1.5h4.1c4.2 0 7.5 3.4 7.5 7.1v66.69999999999999c0 3.7-3.2 7.1-7.5 7.1h-4.1v1.5h34.3v-1.5h-4.1c-4.2 0-7.5-3.4-7.5-7.1 0 0 .1-29.9 0-29.9h40.8zM145.7 67.9c.3 4.9-2.8 12.4-7 16.2-4.1 3.7-9.9 6.9-17.6 6.9-8.8 0-16.4-4.7-19.2-5.8-1.7-.6-3.9-.6-5.2.2-1.5.9-2.5 2.5-2.8 5.3h-1.3v-29h1.3c1.2 8.9 5.3 14.2 7.9 17.2 4.2 4.9 12.2 7.6 19.9 6.4 6.1-1 12.8-7.6 12.1-15.8-.3-3-.9-7.3-7.1-11.3-3.9-2.5-9.4-6.1-14.6-9.6-6.6-4.4-12.5-9.1-14.2-11-2.2-2.6-4.9-6.2-4.9-11.9 0-4.9 1.9-10.6 5.9-14.3 4-3.8 9.4-6.6 17.2-6.6 7.8 0 13.6 4.1 15.6 5.1 2 .9 4.2.7 5.5 0 1.2-.7 2.1-1.8 2.4-4.6h1.3v27.5h-1.3c-1.2-8.9-5.1-15.6-7.8-18.1-2.7-2.5-8-5.9-15.9-4.3-7.6 1.5-11.2 4.9-11.9 10.9-.5 4.6 2 7.4 3.4 9.2 2.9 3.5 21.6 14.1 30 21.4 4.4 3.6 7.8 8.1 8.3 16M173 85.1c5.8 1.8 16.9 3.2 24.6-2.3 9.2-6.6 11.2-22.8-1.9-31.2-5.3-3.4-18.4-3.2-22.7-2.1v35.6zm0-40.5c4.1 1.1 16.2 1.3 20.9-1.6 7.4-4.7 9.9-12.2 8.6-18.8-.8-4-2.9-7.7-6.6-10.2-7.2-5.1-17.5-4.2-22.9-2.6v33.2zm27.1 2.4c14.9 5.1 19.2 15.7 16.4 26.5-3.3 12.8-17.7 15.4-22.3 16-2.1.3-7.5.3-12.8.3h-31.2v-1.5h4.9c3.1 0 6.7-2.6 6.7-6.6v-67c0-4-3.6-6.7-6.7-6.7h-4.9v-1.6h29.8c7.2 0 11.1.7 13.6 1.2 4.2.8 16.6 4.5 19.5 16 2.3 8.9-2.2 20.2-13 23.4"/><path d="M295.1 7.4l1.2 28.4-1.7.1c-.8-7.2-3.5-12.2-6.9-15.5-1-.9-2.8-2.9-5.5-4.6-4.5-2.8-11.1-5.3-19-3.9-11.9 2.1-18 10-21 17.5-3.8 9.3-6.1 25.2.2 38.6 5.2 10.9 15.1 15.4 22.8 16.6 6.5 1 21 .7 32.1-14.2l1.8 1.2c-8.6 12.1-20 19.9-33 19.8-16.7-.2-27.2-9.3-32-14.8-5.1-5.8-8.9-16.7-9-26.2 0-8.5 1.8-17.9 4.9-23.4 5-9.6 16-19 30.4-20.4 10.8-1.1 17.9 1.1 23.9 4.5 3 1.7 4.7 1.9 6.4 1.2 1.6-.7 3-2.1 3-4.9h1.4z"/><path fill="#fff" d="M365.8 6.1h83.8v83.7h-83.8z"/><path fill="#DB0D16" d="M323.9 47.9l41.9 41.9v-83.8zM365.8 89.8h83.8l-41.9-41.9zM407.7 47.9l41.9-41.9h-83.8zM449.6 6v83.8l41.9-41.9z"/></svg>