<?xml version="1.0" encoding="utf-8"?>
<!-- Generator: Adobe Illustrator 15.1.0, SVG Export Plug-In . SVG Version: 6.00 Build 0)  -->
<!DOCTYPE svg PUBLIC "-//W3C//DTD SVG 1.1//EN" "http://www.w3.org/Graphics/SVG/1.1/DTD/svg11.dtd">
<svg version="1.1" id="Layer_1" xmlns="http://www.w3.org/2000/svg" xmlns:xlink="http://www.w3.org/1999/xlink" x="0px" y="0px"
	 width="216.679px" height="400px" viewBox="183.321 0 216.679 400" enable-background="new 183.321 0 216.679 400"
	 xml:space="preserve">
<g>
	<path fill="#333333" d="M353.203,0.883c3.292,0,6.584,1.256,9.096,3.769l32.324,32.322c2.413,2.412,3.769,5.685,3.769,9.097
		c0,3.411-1.355,6.685-3.769,9.098L280.891,168.902l113.733,113.732c5.023,5.024,5.023,13.17,0,18.193l-32.325,32.324
		c-5.023,5.024-13.17,5.024-18.193,0L188.952,177.999c-2.413-2.413-3.768-5.685-3.768-9.097s1.354-6.685,3.768-9.097L344.105,4.651
		C346.617,2.139,349.91,0.883,353.203,0.883z"/>
</g>
</svg>
