<?xml version="1.0" encoding="utf-8"?>
<!-- Generator: Adobe Illustrator 15.1.0, SVG Export Plug-In . SVG Version: 6.00 Build 0)  -->
<!DOCTYPE svg PUBLIC "-//W3C//DTD SVG 1.1//EN" "http://www.w3.org/Graphics/SVG/1.1/DTD/svg11.dtd">
<svg version="1.1" id="Layer_1" xmlns="http://www.w3.org/2000/svg" xmlns:xlink="http://www.w3.org/1999/xlink" x="0px" y="0px"
	 width="400px" height="400px" viewBox="0 0 400 400" enable-background="new 0 0 400 400" xml:space="preserve">
<g>
	<path d="M102.072,68.889V42.151H61.961V68.89H48.604v294.081h66.834V68.889H102.072z M75.333,336.23h-13.37v-13.357h13.372
		L75.333,336.23L75.333,336.23z M75.333,309.502h-13.37v-13.367h13.372L75.333,309.502L75.333,309.502z M75.333,282.764h-13.37
		v-13.368h13.372L75.333,282.764L75.333,282.764z M75.333,256.041h-13.37v-13.375h13.372L75.333,256.041L75.333,256.041z
		 M75.333,229.296h-13.37v-13.372h13.372L75.333,229.296L75.333,229.296z M75.333,202.558h-13.37v-13.371h13.372L75.333,202.558
		L75.333,202.558z M75.333,175.836h-13.37v-13.371h13.372L75.333,175.836L75.333,175.836z M75.333,149.097h-13.37v-13.373h13.372
		L75.333,149.097L75.333,149.097z M75.333,122.351h-13.37v-13.369h13.372L75.333,122.351L75.333,122.351z M102.072,336.23H88.702
		v-13.357h13.371V336.23z M102.072,309.502H88.702v-13.367h13.371V309.502z M102.072,282.764H88.702v-13.368h13.371V282.764z
		 M102.072,256.041H88.702v-13.375h13.371V256.041z M102.072,229.296H88.702v-13.372h13.371V229.296z M102.072,202.558H88.702
		v-13.371h13.371V202.558z M102.072,175.836H88.702v-13.371h13.371V175.836z M102.072,149.097H88.702v-13.373h13.371V149.097z
		 M102.072,122.351H88.702v-13.369h13.371V122.351z"/>
	<path d="M208.998,42.151v320.822h66.837V2.053L208.998,42.151z M235.739,336.23h-13.366v-13.357h13.366V336.23z M235.739,309.502
		h-13.366v-13.367h13.366V309.502z M235.739,282.764h-13.366v-13.368h13.366V282.764z M235.739,256.041h-13.366v-13.375h13.366
		V256.041z M235.739,229.296h-13.366v-13.372h13.366V229.296z M235.739,202.558h-13.366v-13.371h13.366V202.558z M235.739,175.836
		h-13.366v-13.371h13.366V175.836z M235.739,149.097h-13.366v-13.373h13.366V149.097z M235.739,122.351h-13.366v-13.369h13.366
		V122.351z M235.739,95.63h-13.366V82.261h13.366V95.63z M235.739,68.889h-13.366V55.521h13.366V68.889z M262.483,336.23h-13.376
		v-13.357h13.376V336.23z M262.483,309.502h-13.376v-13.367h13.376V309.502z M262.483,282.764h-13.376v-13.368h13.376V282.764z
		 M262.483,256.041h-13.376v-13.375h13.376V256.041z M262.483,229.296h-13.376v-13.372h13.376V229.296z M262.483,202.558h-13.376
		v-13.371h13.376V202.558z M262.483,175.836h-13.376v-13.371h13.376V175.836z M262.483,149.097h-13.376v-13.373h13.376V149.097z
		 M262.483,122.351h-13.376v-13.369h13.376V122.351z M262.483,95.63h-13.376V82.261h13.376V95.63z M262.483,68.889h-13.376V55.521
		h13.376V68.889z"/>
	<path d="M128.794,362.971h66.836V108.982h-66.836V362.971z M155.536,322.873h-13.374v-13.372h13.374V322.873z M155.536,296.135
		h-13.374v-13.371h13.374V296.135z M155.536,269.396h-13.374v-13.353h13.374V269.396z M155.536,242.666h-13.374v-13.37h13.374
		V242.666z M155.536,215.926h-13.374v-13.368h13.374V215.926z M155.536,189.188h-13.374v-13.352h13.374V189.188z M155.536,162.465
		h-13.374v-13.369h13.374V162.465z M155.536,135.724h-13.374v-13.373h13.374V135.724z M182.276,322.873h-13.368v-13.372h13.368
		V322.873z M182.276,296.135h-13.368v-13.371h13.368V296.135z M182.276,269.396h-13.368v-13.353h13.368V269.396z M182.276,242.666
		h-13.368v-13.37h13.368V242.666z M182.276,215.926h-13.368v-13.368h13.368V215.926z M182.276,189.188h-13.368v-13.352h13.368
		V189.188z M182.276,162.465h-13.368v-13.369h13.368V162.465z M182.276,135.724h-13.368v-13.373h13.368V135.724z"/>
	<path d="M342.685,135.724v-13.373h-13.372v13.373h-13.366v-13.373h-13.372v13.373h-13.368v227.248h66.835V135.724H342.685z
		 M315.945,322.873h-13.373v-13.372h13.373V322.873z M315.945,296.135h-13.373v-13.371h13.373V296.135z M315.945,269.396h-13.373
		v-13.353h13.373V269.396z M315.945,242.666h-13.373v-13.37h13.373V242.666z M315.945,215.926h-13.373v-13.368h13.373V215.926z
		 M315.945,189.188h-13.373v-13.352h13.373V189.188z M315.945,162.465h-13.373v-13.369h13.373V162.465z M342.685,322.873h-13.372
		v-13.372h13.372V322.873z M342.685,296.135h-13.372v-13.371h13.372V296.135z M342.685,269.396h-13.372v-13.353h13.372V269.396z
		 M342.685,242.666h-13.372v-13.37h13.372V242.666z M342.685,215.926h-13.372v-13.368h13.372V215.926z M342.685,189.188h-13.372
		v-13.352h13.372V189.188z M342.685,162.465h-13.372v-13.369h13.372V162.465z"/>
</g>
</svg>
