<?xml version="1.0" encoding="utf-8"?>
<!-- Generator: Adobe Illustrator 15.1.0, SVG Export Plug-In . SVG Version: 6.00 Build 0)  -->
<!DOCTYPE svg PUBLIC "-//W3C//DTD SVG 1.1//EN" "http://www.w3.org/Graphics/SVG/1.1/DTD/svg11.dtd">
<svg version="1.1" id="Layer_1" xmlns="http://www.w3.org/2000/svg" xmlns:xlink="http://www.w3.org/1999/xlink" x="0px" y="0px"
	 width="400px" height="400px" viewBox="0 0 400 400" enable-background="new 0 0 400 400" xml:space="preserve">
<g>
	<path d="M320.834,309.638c-57.626,46.342-85.97,44.811-99.991,53.974c-5.423,0.156-36.624,0.156-42.047,0
		c-14.021-9.161-42.366-7.633-99.992-53.974C20.25,263.304,18.074,186.012,19.63,147.501c11.334-0.893,13.409,28.493,44.848,60.35
		c31.381,32.001,52.965,45.673,85.425,63.808c9.076,5.033,24.191,22.214,27.636,38.906c-0.261-24.625-0.532-89.786-0.494-89.784
		c0.023,0.079-45.109-5.959-74.252-34.71C31.889,117.672,81.319,26.014,107.41,4.02c13.701,10.149,34.562,30.543,44.675,47.185
		c10.686-17.363,29.644-37.032,47.734-49.676c18.091,12.643,37.05,32.314,47.734,49.676c10.111-16.642,30.974-37.036,44.674-47.185
		c26.092,21.994,75.521,113.651,4.622,182.05c-29.145,28.752-74.28,34.783-74.257,34.71c0.034,0-0.236,65.16-0.493,89.789
		c3.446-16.7,18.56-33.878,27.635-38.912c32.459-18.135,54.045-31.807,85.43-63.808c31.44-31.854,33.51-61.24,44.846-60.349
		C381.569,186.012,379.392,263.304,320.834,309.638z"/>
</g>
</svg>
