<?xml version="1.0" encoding="utf-8"?>
<!-- Generator: Adobe Illustrator 15.1.0, SVG Export Plug-In . SVG Version: 6.00 Build 0)  -->
<!DOCTYPE svg PUBLIC "-//W3C//DTD SVG 1.1//EN" "http://www.w3.org/Graphics/SVG/1.1/DTD/svg11.dtd">
<svg version="1.1" id="Layer_1" xmlns="http://www.w3.org/2000/svg" xmlns:xlink="http://www.w3.org/1999/xlink" x="0px" y="0px"
	 width="400px" height="400px" viewBox="0 0 400 400" enable-background="new 0 0 400 400" xml:space="preserve">
<g>
	<path d="M268.501,185.605v25.097c4.573,1.993,9.804,4.302,15.646,6.882c5.871,2.564,11.908,5.219,18.133,7.941
		c6.231,2.733,12.525,5.414,18.883,8.156c6.372,2.715,12.419,5.233,18.155,7.633c5.695,2.338,10.852,4.438,15.432,6.314
		c4.59,1.872,8.278,3.277,11.141,4.271c6.013,2.154,10.896,5.396,14.607,9.787c3.728,4.35,6.643,8.785,8.812,13.403
		c2.554,5.291,4.418,10.869,5.562,16.742v27.242H61.219v-27.242c1.298-5.873,3.204-11.451,5.773-16.742
		c2.146-4.62,5.101-9.055,8.804-13.403c3.731-4.393,8.522-7.633,14.377-9.787c2.995-0.991,6.939-2.447,11.808-4.396
		c4.886-1.932,10.306-4.166,16.306-6.642c6.006-2.504,12.34-5.188,19.006-8.053c6.642-2.858,13.244-5.709,19.829-8.574
		c6.579-2.889,12.808-5.572,18.665-8.155c5.882-2.59,11.027-4.872,15.473-6.862V184.75c-0.292-1.141-0.775-2.909-1.395-5.278
		c-0.667-2.355-1.327-4.738-2.045-7.182c-0.862-2.836-1.859-5.924-3-9.221c-4.156-7.721-7.453-16.477-9.895-26.282
		c-2.409-9.792-3.642-20.195-3.642-31.229c0-14.435,1.543-26.682,4.615-36.686c3.083-10.015,7.266-18.154,12.574-24.451
		c5.268-6.296,11.468-10.899,18.561-13.731c7.068-2.895,14.683-4.306,22.83-4.306c8.027,0,15.558,1.395,22.646,4.183
		c7.092,2.806,13.303,7.302,18.656,13.509c5.374,6.233,9.585,14.391,12.684,24.481c3.08,10.057,4.602,22.427,4.602,36.997
		c0,10.751-1.184,20.914-3.544,30.583c-2.374,9.673-5.63,18.336-9.745,26.104c-1.146,3.537-2.238,6.896-3.235,10.044
		c-0.845,2.743-1.649,5.338-2.358,7.827C268.854,182.65,268.501,184.482,268.501,185.605L268.501,185.605z"/>
	<path d="M51.359,267.664c2.77-5.928,6.455-11.555,11.248-17.188c5.642-6.636,12.902-11.621,21.583-14.817l0.268-0.099l0.268-0.092
		c2.819-0.933,6.562-2.326,10.891-4.061c4.665-1.844,9.778-3.95,15.696-6.389l0.31-0.127c6.033-2.52,12.368-5.203,18.826-7.979
		c6.621-2.854,13.202-5.69,19.711-8.522c3.136-1.377,6.191-2.707,9.164-4.004c1.486-0.645,2.944-1.281,4.386-1.908
		c-2.09-0.877-4.228-1.777-6.452-2.721c-3.728-1.605-7.394-3.179-11.029-4.769c-3.635-1.587-7.141-3.148-10.57-4.617
		c-3.415-1.513-6.465-2.862-9.137-4.02v-14.646c0-0.66,0.22-1.723,0.618-3.208c0.431-1.436,0.892-2.953,1.386-4.555
		c0.592-1.831,1.206-3.808,1.883-5.861c2.411-4.53,4.317-9.597,5.687-15.219c1.363-5.654,2.071-11.574,2.071-17.84
		c0-8.499-0.902-15.725-2.676-21.587c-1.817-5.895-4.271-10.645-7.407-14.288c-3.127-3.63-6.753-6.254-10.878-7.873
		c-4.149-1.636-8.527-2.442-13.224-2.442c-4.75,0-9.172,0.824-13.328,2.501c-4.135,1.681-7.742,4.349-10.804,8.022
		c-3.106,3.66-5.549,8.414-7.333,14.274c-1.791,5.802-2.69,12.965-2.69,21.392c0,6.418,0.704,12.504,2.113,18.214
		c1.422,5.712,3.35,10.797,5.759,15.34c0.681,1.9,1.281,3.701,1.766,5.367c0.419,1.423,0.81,2.801,1.201,4.196
		c0.36,1.378,0.648,2.4,0.774,3.073v14.274c-2.544,1.154-5.561,2.472-8.989,4.014c-3.399,1.489-7.049,3.061-10.907,4.736
		c-3.816,1.666-7.683,3.33-11.536,4.979c-3.914,1.696-7.614,3.271-11.103,4.725c-3.499,1.453-6.671,2.742-9.512,3.867
		c-2.832,1.125-5.126,1.996-6.88,2.564c-3.44,1.261-6.218,3.162-8.367,5.709c-2.211,2.536-3.913,5.145-5.164,7.828
		c-1.494,3.07-2.616,6.342-3.36,9.762v43.7h41.741C48.515,274.033,49.848,270.787,51.359,267.664z"/>
</g>
</svg>
