<?xml version="1.0" encoding="utf-8"?>
<!-- Generator: Adobe Illustrator 15.1.0, SVG Export Plug-In . SVG Version: 6.00 Build 0)  -->
<!DOCTYPE svg PUBLIC "-//W3C//DTD SVG 1.1//EN" "http://www.w3.org/Graphics/SVG/1.1/DTD/svg11.dtd">
<svg version="1.1" id="Layer_1" xmlns="http://www.w3.org/2000/svg" xmlns:xlink="http://www.w3.org/1999/xlink" x="0px" y="0px"
	 width="353.5px" height="400px" viewBox="0 0 353.5 400" enable-background="new 0 0 353.5 400" xml:space="preserve">
<g>
	<path fill="#231F20" d="M252.08,208.62l0.131-46.239c0.037-12.193,10.041-22.14,22.229-22.106l50.101,0.139
		c12.191,0.031,22.141,10.034,22.108,22.229l-0.135,46.248c-0.035,12.189-10.032,22.135-22.227,22.103l-50.098-0.142
		C261.993,230.818,252.049,220.818,252.08,208.62z"/>
	
		<rect x="51.997" y="151.135" transform="matrix(1 -0.0089 0.0089 1 -1.681 0.539)" fill="#231F20" width="15.602" height="76.512"/>
	
		<rect x="21.574" y="158.093" transform="matrix(1 -0.0088 0.0088 1 -1.6678 0.332)" fill="#231F20" width="30.616" height="63.031"/>
	<rect x="6.732" y="164.542" transform="matrix(1 -0.009 0.009 1 -1.7093 0.1387)" fill="#231F20" width="15.612" height="50.596"/>
	
		<rect x="293.976" y="41.722" transform="matrix(1 -0.0089 0.0089 1 -1.6428 2.6876)" fill="#231F20" width="15.614" height="289.181"/>
	<polygon fill="#231F20" enable-background="new    " points="155.897,227.523 88.655,224.775 97.494,260.445 108.463,261.693 
		133.612,321.886 164.959,325.668 148.271,233.997 	"/>
	<path fill="#231F20" d="M67.274,151.222l0.331,37.473l0.009,0.518l0.324,37.469l62.461,5.278l-0.006,0.306
		c0.198-0.002,0.392-0.01,0.579-0.017c33.552,0.205,128.412,44.146,165.4,92.329l-0.638-137.385l0,0l0.002-0.157l-0.002-0.163l0,0
		l-1.793-137.375c-31.112,49.132-132.188,93.739-163.748,94.611c-0.189,0.001-0.386-0.015-0.583-0.013l0.008,0.11L67.274,151.222z"
		/>
</g>
</svg>
