<?xml version="1.0" encoding="utf-8"?>
<!-- Generator: Adobe Illustrator 15.1.0, SVG Export Plug-In . SVG Version: 6.00 Build 0)  -->
<!DOCTYPE svg PUBLIC "-//W3C//DTD SVG 1.1//EN" "http://www.w3.org/Graphics/SVG/1.1/DTD/svg11.dtd">
<svg version="1.1" id="Layer_1" xmlns="http://www.w3.org/2000/svg" xmlns:xlink="http://www.w3.org/1999/xlink" x="0px" y="0px"
	 width="500px" height="500px" viewBox="0 0 500 500" enable-background="new 0 0 500 500" xml:space="preserve">
<g>
	<g>
		
			<rect x="109.307" y="103.432" transform="matrix(0.9914 0.1307 -0.1307 0.9914 34.3538 -30.9067)" fill="#F7EBD6" width="286.753" height="285.775"/>
		
			<rect x="52.037" y="173.944" transform="matrix(0.1307 -0.9914 0.9914 0.1307 -75.3386 389.1757)" fill="#2692B9" width="264.423" height="127.207"/>
		
			<rect x="246.302" y="122.672" transform="matrix(0.9914 0.1307 -0.1307 0.9914 36.0107 -39.024)" fill="#27AAE1" width="138.122" height="264.426"/>
		<g id="t9utVD.tif_1_" opacity="0.55">
		</g>
		<line opacity="0.23" fill="none" stroke="#FFFFFF" stroke-miterlimit="10" x1="147.595" y1="100.397" x2="114.357" y2="360.896"/>
		<line opacity="0.23" fill="none" stroke="#FFFFFF" stroke-miterlimit="10" x1="157.515" y1="101.663" x2="124.277" y2="362.162"/>
		<line opacity="0.23" fill="none" stroke="#FFFFFF" stroke-miterlimit="10" x1="166.589" y1="103.435" x2="133.352" y2="363.934"/>
		<line opacity="0.23" fill="none" stroke="#FFFFFF" stroke-miterlimit="10" x1="176.509" y1="104.7" x2="143.271" y2="365.199"/>
		<line opacity="0.23" fill="none" stroke="#FFFFFF" stroke-miterlimit="10" x1="186.587" y1="104.474" x2="153.35" y2="364.973"/>
		<line opacity="0.23" fill="none" stroke="#FFFFFF" stroke-miterlimit="10" x1="196.507" y1="105.739" x2="163.27" y2="366.238"/>
		<line opacity="0.23" fill="none" stroke="#FFFFFF" stroke-miterlimit="10" x1="205.581" y1="107.511" x2="172.344" y2="368.008"/>
		<line opacity="0.23" fill="none" stroke="#FFFFFF" stroke-miterlimit="10" x1="215.501" y1="108.776" x2="182.264" y2="369.275"/>
		<line opacity="0.23" fill="none" stroke="#FFFFFF" stroke-miterlimit="10" x1="224.5" y1="108.793" x2="191.264" y2="369.291"/>
		<line opacity="0.23" fill="none" stroke="#FFFFFF" stroke-miterlimit="10" x1="233.575" y1="110.564" x2="200.338" y2="371.062"/>
		<line opacity="0.23" fill="none" stroke="#FFFFFF" stroke-miterlimit="10" x1="243.495" y1="111.83" x2="210.258" y2="372.328"/>
		<line opacity="0.23" fill="none" stroke="#FFFFFF" stroke-miterlimit="10" x1="251.492" y1="112.846" x2="218.256" y2="373.344"/>
		<line opacity="0.23" fill="none" stroke="#FFFFFF" stroke-miterlimit="10" x1="272.525" y1="116.775" x2="239.289" y2="377.273"/>
		<line opacity="0.23" fill="none" stroke="#FFFFFF" stroke-miterlimit="10" x1="260.628" y1="115.216" x2="227.391" y2="375.715"/>
		<line opacity="0.23" fill="none" stroke="#FFFFFF" stroke-miterlimit="10" x1="282.445" y1="118.041" x2="249.208" y2="378.539"/>
		<line opacity="0.23" fill="none" stroke="#FFFFFF" stroke-miterlimit="10" x1="291.52" y1="119.812" x2="258.282" y2="380.311"/>
		<line opacity="0.23" fill="none" stroke="#FFFFFF" stroke-miterlimit="10" x1="301.439" y1="121.078" x2="268.202" y2="381.576"/>
		<line opacity="0.23" fill="none" stroke="#FFFFFF" stroke-miterlimit="10" x1="311.518" y1="120.852" x2="278.28" y2="381.35"/>
		<line opacity="0.23" fill="none" stroke="#FFFFFF" stroke-miterlimit="10" x1="321.438" y1="122.117" x2="288.2" y2="382.615"/>
		<line opacity="0.23" fill="none" stroke="#FFFFFF" stroke-miterlimit="10" x1="330.512" y1="123.889" x2="297.275" y2="384.387"/>
		<line opacity="0.23" fill="none" stroke="#FFFFFF" stroke-miterlimit="10" x1="340.432" y1="125.154" x2="307.194" y2="385.652"/>
		<line opacity="0.23" fill="none" stroke="#FFFFFF" stroke-miterlimit="10" x1="349.432" y1="125.172" x2="316.194" y2="385.67"/>
		<line opacity="0.23" fill="none" stroke="#FFFFFF" stroke-miterlimit="10" x1="358.506" y1="126.943" x2="325.27" y2="387.441"/>
		<line opacity="0.23" fill="none" stroke="#FFFFFF" stroke-miterlimit="10" x1="368.426" y1="128.209" x2="335.188" y2="388.707"/>
		<line opacity="0.23" fill="none" stroke="#FFFFFF" stroke-miterlimit="10" x1="376.424" y1="129.224" x2="343.187" y2="389.723"/>
		<line opacity="0.23" fill="none" stroke="#FFFFFF" stroke-miterlimit="10" x1="385.348" y1="130.394" x2="352.11" y2="390.893"/>
		<line opacity="0.23" fill="none" stroke="#FFFFFF" stroke-miterlimit="10" x1="394.271" y1="131.563" x2="361.034" y2="392.062"/>
		<line opacity="0.23" fill="none" stroke="#FFFFFF" stroke-miterlimit="10" x1="399.991" y1="140.47" x2="139.493" y2="107.232"/>
		<line opacity="0.23" fill="none" stroke="#FFFFFF" stroke-miterlimit="10" x1="398.726" y1="150.389" x2="138.228" y2="117.152"/>
		<line opacity="0.23" fill="none" stroke="#FFFFFF" stroke-miterlimit="10" x1="396.955" y1="159.464" x2="136.457" y2="126.227"/>
		<line opacity="0.23" fill="none" stroke="#FFFFFF" stroke-miterlimit="10" x1="395.688" y1="169.383" x2="135.191" y2="136.146"/>
		<line opacity="0.23" fill="none" stroke="#FFFFFF" stroke-miterlimit="10" x1="395.916" y1="179.462" x2="135.418" y2="146.225"/>
		<line opacity="0.23" fill="none" stroke="#FFFFFF" stroke-miterlimit="10" x1="394.65" y1="189.381" x2="134.152" y2="156.145"/>
		<line opacity="0.23" fill="none" stroke="#FFFFFF" stroke-miterlimit="10" x1="392.879" y1="198.456" x2="132.381" y2="165.219"/>
		<line opacity="0.23" fill="none" stroke="#FFFFFF" stroke-miterlimit="10" x1="391.613" y1="208.375" x2="131.115" y2="175.139"/>
		<line opacity="0.23" fill="none" stroke="#FFFFFF" stroke-miterlimit="10" x1="391.596" y1="217.375" x2="131.098" y2="184.139"/>
		<line opacity="0.23" fill="none" stroke="#FFFFFF" stroke-miterlimit="10" x1="389.824" y1="226.45" x2="129.326" y2="193.213"/>
		<line opacity="0.23" fill="none" stroke="#FFFFFF" stroke-miterlimit="10" x1="388.559" y1="236.369" x2="128.061" y2="203.133"/>
		<line opacity="0.23" fill="none" stroke="#FFFFFF" stroke-miterlimit="10" x1="387.543" y1="244.367" x2="127.045" y2="211.131"/>
		<line opacity="0.23" fill="none" stroke="#FFFFFF" stroke-miterlimit="10" x1="383.613" y1="265.4" x2="123.116" y2="232.164"/>
		<line opacity="0.23" fill="none" stroke="#FFFFFF" stroke-miterlimit="10" x1="385.174" y1="253.502" x2="124.676" y2="220.266"/>
		<line opacity="0.23" fill="none" stroke="#FFFFFF" stroke-miterlimit="10" x1="382.348" y1="275.32" x2="121.851" y2="242.083"/>
		<line opacity="0.23" fill="none" stroke="#FFFFFF" stroke-miterlimit="10" x1="380.577" y1="284.395" x2="120.079" y2="251.158"/>
		<line opacity="0.23" fill="none" stroke="#FFFFFF" stroke-miterlimit="10" x1="379.312" y1="294.314" x2="118.813" y2="261.078"/>
		<line opacity="0.23" fill="none" stroke="#FFFFFF" stroke-miterlimit="10" x1="379.538" y1="304.393" x2="119.04" y2="271.156"/>
		<line opacity="0.23" fill="none" stroke="#FFFFFF" stroke-miterlimit="10" x1="378.272" y1="314.312" x2="117.774" y2="281.076"/>
		<line opacity="0.23" fill="none" stroke="#FFFFFF" stroke-miterlimit="10" x1="376.501" y1="323.387" x2="116.003" y2="290.15"/>
		<line opacity="0.23" fill="none" stroke="#FFFFFF" stroke-miterlimit="10" x1="375.235" y1="333.307" x2="114.737" y2="300.07"/>
		<line opacity="0.23" fill="none" stroke="#FFFFFF" stroke-miterlimit="10" x1="375.218" y1="342.307" x2="114.72" y2="309.07"/>
		<line opacity="0.23" fill="none" stroke="#FFFFFF" stroke-miterlimit="10" x1="373.446" y1="351.381" x2="112.948" y2="318.145"/>
		<line opacity="0.23" fill="none" stroke="#FFFFFF" stroke-miterlimit="10" x1="372.181" y1="361.301" x2="111.683" y2="328.064"/>
		<line opacity="0.23" fill="none" stroke="#FFFFFF" stroke-miterlimit="10" x1="371.165" y1="369.299" x2="110.667" y2="336.062"/>
		<line opacity="0.23" fill="none" stroke="#FFFFFF" stroke-miterlimit="10" x1="369.995" y1="378.223" x2="109.497" y2="344.986"/>
		<line opacity="0.23" fill="none" stroke="#FFFFFF" stroke-miterlimit="10" x1="368.825" y1="387.146" x2="108.327" y2="353.908"/>
		
			<rect x="314.648" y="336.8" transform="matrix(-0.9914 -0.1307 0.1307 -0.9914 644.7417 782.7297)" fill="#FFFFFF" width="66.815" height="66.815"/>
		<polygon fill="#FCCC91" points="384.388,341.301 319.3,332.721 310.721,397.811 		"/>
	</g>
	<g>
		<polygon fill="#FFFFFF" points="205.581,279.492 156.543,272.783 156.21,270.115 205.955,276.547 		"/>
		<path fill="none" stroke="#FFFFFF" stroke-width="2" stroke-miterlimit="10" d="M217.271,159.084
			c0.093-0.015,0.19-0.025,0.282-0.041c-5.946-16.744-12.358-22.766-15.011-24.928l-2.951-3.007c0,0-0.147,0.058-0.418,0.175
			c-0.233-0.182-0.361-0.273-0.361-0.273l-3.603,1.772c-3.106,1.428-10.815,6.044-20.76,20.739c0.086,0.038,0.178,0.073,0.263,0.111
			c-8.663,12.592-16.421,31.768-17.07,60.338c-0.488,21.511-0.731,33.414-0.836,39.678l0.07,3.801l0.333,15l47.819,6.973
			l2.181-12.639c1.122-0.303,1.827-5.139,1.827-5.139s0.506-1.861,9.638-39.908C225.338,193.973,222.497,173.443,217.271,159.084z"
			/>
		<circle fill="none" stroke="#FFFFFF" stroke-miterlimit="10" cx="191.586" cy="192.572" r="21.149"/>
		<circle fill="none" stroke="#FFFFFF" stroke-miterlimit="10" cx="191.586" cy="192.572" r="18.088"/>
		<polygon fill="none" stroke="#FFFFFF" stroke-miterlimit="10" points="133.378,265.709 157.709,243.544 157.02,271.176 
			141.503,310.744 		"/>
		<polygon fill="none" stroke="#FFFFFF" stroke-miterlimit="10" points="229.653,277.957 211.646,250.408 205.396,277.33 
			210.51,319.523 		"/>
	</g>
	<g>
		<path fill="#FFFFFF" d="M265.29,246.981l10.44,1.291l-0.244,1.972l-10.44-1.291l-1.285,10.392l-1.972-0.244l1.285-10.392
			l-10.392-1.285l0.244-1.972l10.392,1.285l1.291-10.44l1.973,0.244L265.29,246.981z"/>
	</g>
	<g>
		<path fill="#FFFFFF" d="M254.616,314.519c-0.069,0.102-0.154,0.147-0.257,0.136c-0.104-0.013-0.262-0.104-0.479-0.269l0.014-0.119
			c0.011-0.088,0.026-0.222,0.048-0.399c0.021-0.179,0.037-0.307,0.046-0.386c0.393-3.279,0.181-4.969-0.636-5.066
			c-0.256-0.03-0.554,0.125-0.894,0.465c-0.858,0.839-1.372,1.964-1.541,3.377c-0.022,0.188-0.028,0.467-0.017,0.832
			c0.011,0.367,0.005,0.645-0.018,0.833c-0.018,0.147-0.126,0.21-0.327,0.186c-0.382-0.045-0.535-0.379-0.461-1.002l0.403-3.363
			c0.011-0.089,0.03-0.217,0.06-0.384c0.03-0.167,0.05-0.294,0.061-0.383c0.016-0.129,0.021-0.318,0.017-0.57
			s-0.001-0.436,0.013-0.554c0.01-0.08,0.083-0.163,0.219-0.252c0.136-0.09,0.238-0.13,0.308-0.122
			c0.128,0.016,0.239,0.099,0.331,0.25c-0.107,0.64-0.167,1.013-0.18,1.121c-0.019,0.148-0.03,0.292-0.037,0.432
			c0.094-0.02,0.231-0.169,0.415-0.446c0.232-0.353,0.421-0.591,0.565-0.714c0.271-0.248,0.56-0.354,0.865-0.317
			c0.118,0.014,0.292,0.08,0.518,0.197c0.51,0.262,0.852,0.633,1.024,1.114c0.291,0.826,0.361,1.883,0.207,3.167L254.616,314.519z"
			/>
		<path fill="#FFFFFF" d="M260.279,311.785c-0.103,0.857-0.307,1.565-0.614,2.12c-0.423,0.771-1.005,1.113-1.746,1.024
			c-0.188-0.022-0.433-0.107-0.736-0.254c-0.236-0.118-0.473-0.238-0.708-0.356c-0.027,0.059-0.045,0.121-0.054,0.19
			c-0.006,0.049-0.009,0.121-0.01,0.217c-0.001,0.094-0.005,0.166-0.011,0.216c-0.018,0.147-0.112,0.213-0.28,0.192
			c-0.167-0.02-0.297-0.106-0.39-0.257c-0.061-0.078-0.08-0.376-0.058-0.894c0.019-0.409,0.041-0.728,0.068-0.954l0.011-0.09
			l1.271-8.234l0.207,0.024c0.139,0.017,0.261,0.104,0.367,0.261c0.107,0.158,0.151,0.312,0.134,0.46
			c-0.044,0.365-0.156,0.903-0.337,1.613c-0.18,0.71-0.292,1.248-0.336,1.613c-0.005,0.04-0.027,0.228-0.067,0.562
			c0.084-0.02,0.196-0.121,0.338-0.304c0.178-0.23,0.326-0.387,0.446-0.474c0.22-0.153,0.472-0.214,0.759-0.18
			c0.483,0.058,0.9,0.309,1.247,0.751c0.314,0.397,0.5,0.855,0.559,1.375C260.368,310.752,260.349,311.211,260.279,311.785z
			 M259.484,311.771c0.074-0.613,0.074-1.152-0.003-1.612c-0.104-0.716-0.378-1.102-0.823-1.155
			c-0.543-0.064-1.021,0.285-1.434,1.05c-0.321,0.604-0.522,1.229-0.6,1.873c-0.068,0.574-0.028,1.077,0.12,1.507
			c0.183,0.575,0.525,0.893,1.029,0.952c0.503,0.061,0.922-0.252,1.254-0.936C259.257,312.965,259.409,312.405,259.484,311.771z"/>
		<path fill="#FFFFFF" d="M261.967,315.008c-0.017,0.139-0.124,0.246-0.323,0.322c-0.157,0.061-0.315,0.082-0.474,0.062
			c-0.169-0.02-0.309-0.096-0.424-0.229c-0.113-0.135-0.162-0.28-0.143-0.438c0.04-0.336,0.233-0.484,0.58-0.442
			c0.196,0.023,0.383,0.104,0.557,0.239C261.914,314.658,261.989,314.82,261.967,315.008z"/>
		<path fill="#FFFFFF" d="M270.377,315.455c-0.042,0.346-0.338,0.607-0.891,0.782c-0.457,0.136-0.888,0.181-1.293,0.132
			c-0.267-0.032-0.564-0.133-0.896-0.304c-0.179-0.104-0.454-0.348-0.829-0.735c-0.41-0.423-0.606-0.704-0.59-0.844
			c0.037-0.308,0.236-0.426,0.599-0.353l0.088,0.011c-0.016,0.303,0.263,0.664,0.832,1.087c0.516,0.387,0.94,0.599,1.276,0.639
			c0.435,0.052,0.67-0.07,0.706-0.367c0.021-0.178-0.217-0.457-0.712-0.838c-0.68-0.514-1.138-0.915-1.375-1.204
			c-0.479-0.59-0.679-1.228-0.598-1.91c0.062-0.516,0.254-0.989,0.577-1.423c0.372-0.518,0.791-0.749,1.256-0.693
			c0.335,0.04,0.721,0.245,1.158,0.611c0.438,0.368,0.677,0.716,0.718,1.041c0.046,0.275,0.049,0.592,0.007,0.948
			c-0.047,0.385-0.165,0.797-0.358,1.234c-0.098,0.059-0.205,0.081-0.323,0.066c-0.069-0.008-0.175-0.048-0.316-0.12
			c-0.143-0.071-0.209-0.139-0.202-0.198c-0.004,0.04,0.062-0.062,0.202-0.306c0.099-0.158,0.175-0.46,0.229-0.904
			c0.127-1.058-0.142-1.626-0.804-1.705c-0.346-0.041-0.649,0.158-0.913,0.599c-0.223,0.355-0.357,0.726-0.403,1.113
			c-0.059,0.484,0.166,0.988,0.676,1.511c0.169,0.182,0.646,0.586,1.434,1.212C270.152,314.951,270.4,315.256,270.377,315.455z"/>
		<path fill="#FFFFFF" d="M275.853,315.426c-0.029,0.238-0.271,0.535-0.723,0.889c-0.454,0.354-0.813,0.551-1.077,0.59
			c-0.359,0.067-0.653,0.088-0.88,0.061c-0.722-0.086-1.243-0.415-1.566-0.985c-0.3-0.508-0.405-1.134-0.316-1.877
			c0.092-0.762,0.356-1.594,0.794-2.495c0.546-1.119,1.12-1.644,1.722-1.572c0.287,0.035,0.65,0.222,1.091,0.56
			c0.441,0.338,0.676,0.64,0.705,0.903c0.032,0.315,0.03,0.62-0.005,0.916c-0.13,1.087-0.358,1.611-0.685,1.572
			c-0.078-0.01-0.169-0.05-0.271-0.122c-0.102-0.073-0.147-0.147-0.139-0.227c0.005-0.04,0.03-0.09,0.078-0.149
			c0.046-0.06,0.076-0.099,0.089-0.117c0.055-0.123,0.11-0.418,0.166-0.883c0.131-1.097-0.05-1.674-0.545-1.732
			c-0.543-0.065-1.048,0.381-1.513,1.341c-0.349,0.743-0.565,1.459-0.648,2.152c-0.064,0.535-0.033,0.991,0.092,1.368
			c0.171,0.492,0.494,0.768,0.968,0.824c0.287,0.034,0.642-0.075,1.062-0.329c0.377-0.228,0.668-0.479,0.872-0.758
			c0.052-0.097,0.128-0.228,0.229-0.397c0.059-0.064,0.131-0.09,0.22-0.079c0.06,0.007,0.123,0.082,0.19,0.227
			C275.831,315.248,275.86,315.355,275.853,315.426z"/>
		<path fill="#FFFFFF" d="M280.849,318.019c-0.017,0.139-0.135,0.194-0.352,0.169c-0.236-0.028-0.368-0.145-0.395-0.348
			c-0.006-0.031,0.013-0.225,0.055-0.581c0.012-0.098,0.006-0.179-0.016-0.241c-0.602,0.339-1.224,0.471-1.866,0.394
			c-0.444-0.053-0.859-0.229-1.245-0.526c-0.44-0.333-0.638-0.706-0.588-1.121c0.049-0.405,0.378-0.768,0.987-1.085
			c0.556-0.295,1.052-0.415,1.486-0.363l1.468,0.176c0.066-0.052,0.107-0.152,0.125-0.301c0.079-0.662,0.085-1.167,0.018-1.517
			c-0.11-0.584-0.429-0.907-0.952-0.971c-0.375-0.045-0.749,0.15-1.122,0.588c-0.338,0.399-0.531,0.798-0.579,1.193
			c-0.002,0.02-0.006,0.049-0.01,0.089c-0.005,0.04-0.008,0.063-0.01,0.073c-0.009,0.08-0.054,0.114-0.132,0.104
			c-0.099-0.012-0.201-0.083-0.306-0.217c-0.104-0.132-0.15-0.243-0.14-0.333c0.033-0.275,0.157-0.613,0.377-1.014
			c0.218-0.399,0.438-0.697,0.662-0.891c0.279-0.236,0.602-0.334,0.967-0.29c0.563,0.067,1.061,0.308,1.493,0.721
			c0.457,0.444,0.658,0.94,0.603,1.484L280.849,318.019z M280.344,315.568c0.048-0.395-0.234-0.629-0.847-0.702
			c-0.484-0.058-0.919-0.026-1.306,0.1c-0.49,0.162-0.76,0.459-0.812,0.894c-0.031,0.267,0.066,0.489,0.296,0.667
			c0.191,0.154,0.432,0.247,0.717,0.282c0.425,0.051,0.845-0.04,1.259-0.271C280.063,316.307,280.295,315.983,280.344,315.568z"/>
		<path fill="#FFFFFF" d="M283.065,317.698c-0.03,0.257-0.185,0.369-0.461,0.336c-0.435-0.052-0.539-0.972-0.315-2.76l0.84-6.647
			c0.014-0.109,0.018-0.267,0.013-0.473c-0.007-0.206-0.003-0.358,0.009-0.457c0.205-0.115,0.37-0.167,0.499-0.151
			c0.139,0.017,0.27,0.083,0.396,0.198s0.183,0.242,0.166,0.381c-0.013,0.099-0.052,0.224-0.12,0.376
			c-0.083,0.19-0.133,0.309-0.148,0.357c-0.199,0.658-0.37,1.589-0.515,2.795c-0.233,1.946-0.351,2.885-0.352,2.814
			c-0.116,1.218-0.146,2.142-0.091,2.771c-0.004,0.029,0.01,0.098,0.041,0.207C283.061,317.555,283.073,317.639,283.065,317.698z"/>
		<path fill="#FFFFFF" d="M288.229,318.901c-0.017,0.139-0.134,0.195-0.352,0.169c-0.236-0.028-0.368-0.144-0.395-0.348
			c-0.006-0.031,0.013-0.224,0.055-0.58c0.012-0.098,0.006-0.179-0.016-0.242c-0.602,0.339-1.224,0.471-1.866,0.394
			c-0.444-0.053-0.859-0.229-1.245-0.526c-0.44-0.333-0.637-0.706-0.588-1.121c0.049-0.405,0.377-0.767,0.987-1.084
			c0.556-0.295,1.052-0.416,1.486-0.364l1.468,0.176c0.066-0.052,0.107-0.151,0.125-0.3c0.079-0.662,0.085-1.168,0.018-1.517
			c-0.11-0.585-0.428-0.908-0.952-0.971c-0.375-0.045-0.749,0.149-1.122,0.588c-0.338,0.399-0.531,0.797-0.578,1.192
			c-0.003,0.02-0.007,0.049-0.011,0.089c-0.005,0.04-0.008,0.063-0.009,0.073c-0.01,0.08-0.055,0.114-0.133,0.105
			c-0.099-0.012-0.201-0.084-0.306-0.217s-0.15-0.244-0.14-0.333c0.033-0.276,0.157-0.614,0.377-1.014
			c0.218-0.4,0.438-0.697,0.662-0.891c0.279-0.237,0.602-0.334,0.967-0.29c0.563,0.067,1.061,0.307,1.493,0.72
			c0.456,0.445,0.658,0.94,0.603,1.485L288.229,318.901z M287.724,316.452c0.048-0.395-0.234-0.63-0.847-0.703
			c-0.484-0.058-0.919-0.025-1.306,0.1c-0.49,0.162-0.761,0.46-0.812,0.895c-0.031,0.267,0.066,0.489,0.296,0.666
			c0.191,0.155,0.432,0.248,0.717,0.282c0.425,0.051,0.845-0.04,1.259-0.271C287.443,317.189,287.674,316.867,287.724,316.452z"/>
		<path fill="#FFFFFF" d="M299.531,315.023c-0.113,0.939-0.349,1.852-0.705,2.742c-0.502,1.263-1.084,1.854-1.746,1.774
			c-0.484-0.058-0.863-0.407-1.137-1.053c-0.093-0.312-0.186-0.628-0.277-0.949l-0.062,0.021c-0.186,0.38-0.376,0.758-0.571,1.135
			c-0.263,0.43-0.601,0.62-1.015,0.57c-1.256-0.15-1.703-1.732-1.342-4.746c0.082-0.691,0.167-1.231,0.254-1.623
			c0.08-0.09,0.176-0.129,0.284-0.116s0.232,0.071,0.371,0.172c0.139,0.102,0.201,0.207,0.188,0.316
			c-0.016,0.129-0.072,0.324-0.169,0.588c-0.097,0.265-0.155,0.476-0.174,0.634c-0.308,2.569-0.129,3.894,0.532,3.972
			c0.425,0.052,0.823-0.393,1.196-1.33c0.297-0.716,0.475-1.371,0.536-1.965l0.17-1.423c0.025-0.207,0.155-0.297,0.393-0.269
			c0.286,0.034,0.406,0.25,0.359,0.645c-0.006,0.049-0.022,0.123-0.048,0.22c-0.028,0.097-0.044,0.17-0.05,0.22l-0.218,1.822
			c-0.051,0.425-0.032,0.888,0.059,1.391c0.11,0.664,0.324,1.016,0.641,1.054c0.424,0.051,0.845-0.446,1.261-1.488
			c0.315-0.805,0.511-1.517,0.586-2.14c0.074-0.622,0.081-1.007,0.019-1.155c0.001-0.01-0.029-0.058-0.088-0.146
			c-0.061-0.088-0.088-0.146-0.084-0.175c0.013-0.108,0.071-0.208,0.178-0.295c0.105-0.087,0.212-0.125,0.32-0.112
			C299.549,313.357,299.662,313.928,299.531,315.023z"/>
		<path fill="#FFFFFF" d="M301.584,314.188c-0.021,0.178-0.095,0.439-0.222,0.784c-0.126,0.346-0.2,0.608-0.222,0.786l-0.392,3.274
			c-0.026,0.219-0.012,0.521,0.042,0.907c-0.049,0.074-0.108,0.107-0.179,0.1c-0.483-0.058-0.696-0.319-0.641-0.784l0.65-5.438
			c0.137-0.054,0.264-0.073,0.383-0.06c0.118,0.015,0.237,0.063,0.357,0.148C301.522,313.994,301.596,314.089,301.584,314.188z
			 M302.132,311.998c-0.04,0.336-0.218,0.485-0.534,0.447c-0.188-0.022-0.352-0.112-0.494-0.27
			c-0.142-0.157-0.202-0.325-0.181-0.504c0.04-0.335,0.228-0.483,0.564-0.443c0.197,0.023,0.359,0.109,0.488,0.255
			C302.104,311.629,302.155,311.801,302.132,311.998z"/>
		<path fill="#FFFFFF" d="M303.027,320.087c-0.03,0.257-0.185,0.369-0.461,0.337c-0.435-0.053-0.539-0.973-0.315-2.761l0.84-6.647
			c0.014-0.108,0.018-0.267,0.013-0.473c-0.007-0.205-0.003-0.358,0.009-0.457c0.205-0.115,0.37-0.167,0.499-0.151
			c0.139,0.017,0.271,0.083,0.397,0.198c0.127,0.116,0.182,0.242,0.165,0.381c-0.012,0.099-0.052,0.224-0.12,0.376
			c-0.083,0.19-0.133,0.31-0.148,0.358c-0.199,0.657-0.37,1.589-0.515,2.795c-0.233,1.946-0.351,2.884-0.352,2.813
			c-0.116,1.219-0.146,2.142-0.091,2.771c-0.004,0.029,0.01,0.099,0.041,0.207C303.022,319.944,303.035,320.027,303.027,320.087z"/>
		<path fill="#FFFFFF" d="M304.983,320.321c-0.03,0.257-0.185,0.369-0.461,0.336c-0.435-0.052-0.54-0.972-0.316-2.76l0.841-6.647
			c0.014-0.109,0.018-0.267,0.012-0.473s-0.002-0.358,0.01-0.457c0.204-0.115,0.37-0.167,0.498-0.151
			c0.139,0.017,0.271,0.083,0.397,0.198c0.127,0.116,0.183,0.242,0.166,0.381c-0.013,0.099-0.052,0.224-0.121,0.376
			c-0.082,0.19-0.132,0.31-0.147,0.357c-0.199,0.658-0.371,1.589-0.516,2.795c-0.233,1.946-0.351,2.885-0.352,2.814
			c-0.115,1.218-0.146,2.142-0.09,2.771c-0.004,0.029,0.01,0.098,0.041,0.207C304.979,320.178,304.991,320.262,304.983,320.321z"/>
		<path fill="#FFFFFF" d="M315.623,321.851c-0.223,0.103-0.389,0.148-0.497,0.136c-0.068-0.009-0.164-0.055-0.283-0.141
			c0.019-0.158,0.051-0.425,0.096-0.802c0.041-0.346,0.073-0.613,0.096-0.802c0.365-3.051,0.236-4.613-0.389-4.688
			c-0.37-0.045-0.749,0.392-1.135,1.308c-0.306,0.734-0.489,1.365-0.553,1.889l-0.177,1.481c-0.01,0.079-0.001,0.193,0.026,0.342
			s0.037,0.257,0.029,0.325c-0.01,0.08-0.074,0.151-0.192,0.219c-0.118,0.066-0.218,0.094-0.296,0.085
			c-0.09-0.011-0.181-0.084-0.274-0.222c-0.094-0.136-0.136-0.249-0.125-0.338l0.356-2.979c0.038-0.315,0.032-0.722-0.02-1.219
			c-0.065-0.63-0.195-0.955-0.394-0.979c-0.108-0.014-0.288,0.105-0.538,0.356c-0.854,0.859-1.364,1.979-1.53,3.364
			c-0.02,0.168-0.03,0.419-0.03,0.756c0,0.335-0.01,0.581-0.028,0.739c-0.036,0.297-0.177,0.431-0.424,0.401
			c-0.119-0.015-0.217-0.077-0.294-0.186c-0.034-0.055-0.051-0.282-0.053-0.684c-0.008-0.362-0.004-0.606,0.012-0.735l0.419-3.497
			c0.12-1.008,0.3-1.498,0.537-1.469c0.099,0.012,0.193,0.07,0.287,0.178c0.092,0.105,0.132,0.208,0.12,0.308
			c-0.024,0.207-0.086,0.475-0.187,0.804c-0.11,0.429-0.178,0.695-0.2,0.803l0.064,0.082c0.239-0.402,0.479-0.805,0.716-1.206
			c0.331-0.512,0.681-0.746,1.046-0.702c0.515,0.062,0.893,0.668,1.136,1.819c0.113-0.106,0.266-0.339,0.459-0.696
			c0.193-0.356,0.358-0.608,0.496-0.752c0.216-0.215,0.463-0.306,0.739-0.272c0.267,0.032,0.542,0.246,0.824,0.641
			c0.525,0.717,0.688,1.916,0.487,3.599L315.623,321.851z"/>
		<path fill="#FFFFFF" d="M320.815,322.802c-0.017,0.139-0.134,0.194-0.351,0.169c-0.236-0.028-0.368-0.145-0.395-0.348
			c-0.006-0.031,0.013-0.225,0.055-0.581c0.012-0.098,0.006-0.179-0.017-0.241c-0.602,0.339-1.223,0.471-1.865,0.394
			c-0.444-0.053-0.859-0.229-1.245-0.526c-0.441-0.333-0.637-0.706-0.588-1.121c0.049-0.405,0.377-0.768,0.987-1.085
			c0.556-0.295,1.052-0.415,1.486-0.363l1.468,0.176c0.065-0.052,0.107-0.151,0.125-0.3c0.079-0.662,0.085-1.168,0.017-1.518
			c-0.109-0.584-0.428-0.907-0.951-0.97c-0.375-0.045-0.75,0.149-1.122,0.587c-0.338,0.399-0.531,0.798-0.578,1.193
			c-0.003,0.02-0.007,0.049-0.011,0.089c-0.005,0.04-0.008,0.063-0.009,0.073c-0.01,0.08-0.055,0.114-0.133,0.104
			c-0.1-0.012-0.201-0.083-0.306-0.217c-0.104-0.132-0.151-0.243-0.141-0.333c0.033-0.275,0.158-0.613,0.377-1.014
			c0.218-0.399,0.438-0.697,0.662-0.891c0.28-0.236,0.602-0.334,0.968-0.29c0.563,0.067,1.061,0.308,1.492,0.721
			c0.457,0.445,0.659,0.94,0.604,1.484L320.815,322.802z M320.312,320.352c0.048-0.395-0.235-0.629-0.847-0.702
			c-0.485-0.058-0.919-0.026-1.306,0.1c-0.49,0.162-0.761,0.459-0.813,0.894c-0.031,0.267,0.066,0.49,0.297,0.667
			c0.191,0.154,0.431,0.247,0.717,0.282c0.425,0.051,0.845-0.04,1.258-0.271C320.031,321.09,320.262,320.768,320.312,320.352z"/>
		<path fill="#FFFFFF" d="M327.052,323.698c-0.271,0.169-0.482,0.243-0.631,0.226c-0.218-0.025-0.558-0.383-1.019-1.068
			c-0.578-0.881-0.885-1.344-0.919-1.388c-0.107-0.113-0.288-0.371-0.542-0.772c-0.221-0.336-0.424-0.577-0.607-0.719l-0.31,0.323
			l-0.176,1.468c-0.011,0.089,0.009,0.22,0.059,0.391c0.049,0.172,0.068,0.302,0.058,0.391c-0.007,0.06-0.057,0.11-0.146,0.154
			s-0.17,0.062-0.238,0.054c-0.396-0.047-0.568-0.282-0.517-0.707l0.248-2.075c0.015-0.128,0.053-0.317,0.113-0.565
			c0.06-0.248,0.096-0.437,0.111-0.565l0.489-4.091c0.069-0.582,0.104-1.044,0.098-1.386c0.006-0.049-0.005-0.16-0.03-0.333
			c-0.01-0.143-0.01-0.257,0.001-0.347c0.012-0.099,0.1-0.188,0.265-0.269s0.307-0.113,0.425-0.099
			c0.089,0.011,0.183,0.048,0.279,0.115s0.142,0.14,0.133,0.218c-0.002,0.01-0.042,0.127-0.122,0.348
			c-0.105,0.258-0.204,0.771-0.297,1.543l-0.577,4.289l0.066,0.083c0.341-0.159,0.82-0.472,1.44-0.939
			c0.389-0.314,0.778-0.628,1.169-0.943c0.634-0.504,0.999-0.752,1.1-0.739c0.148,0.018,0.26,0.099,0.332,0.243
			c0.073,0.143,0.097,0.289,0.069,0.436l-0.024,0.073c-0.407,0.202-1.017,0.58-1.828,1.134c-0.933,0.64-1.413,1.079-1.441,1.315
			c-0.011,0.089,0.111,0.329,0.367,0.72c0.401,0.6,0.797,1.198,1.188,1.796c0.544,0.757,1.021,1.266,1.434,1.525L327.052,323.698z"
			/>
		<path fill="#FFFFFF" d="M331.238,322.125c-0.052,0.435-0.39,0.791-1.015,1.066c-0.562,0.253-1.073,0.352-1.538,0.297
			c-1.324-0.159-1.886-1.078-1.685-2.757c0.089-0.741,0.317-1.521,0.687-2.339c0.487-1.063,1.008-1.562,1.562-1.496
			c0.474,0.057,0.964,0.359,1.47,0.905c0.505,0.547,0.73,1.058,0.674,1.532c-0.074,0.611-0.385,1.115-0.933,1.512
			c-0.549,0.395-1.135,0.556-1.756,0.48c-0.061-0.007-0.18-0.071-0.36-0.193c-0.182-0.121-0.307-0.188-0.376-0.195
			c-0.129-0.016-0.197,0.017-0.206,0.095c-0.137,1.137,0.171,1.75,0.923,1.84c0.385,0.047,0.756-0.04,1.112-0.258
			c0.215-0.124,0.461-0.331,0.736-0.618c0.217-0.226,0.355-0.334,0.414-0.326C331.175,321.696,331.271,321.849,331.238,322.125z
			 M330.542,319.276c0.042-0.346-0.019-0.681-0.18-1.006c-0.162-0.325-0.405-0.508-0.731-0.547
			c-0.396-0.047-0.746,0.161-1.053,0.626c-0.256,0.391-0.411,0.808-0.464,1.252c-0.034,0.287,0.027,0.537,0.188,0.753
			c0.159,0.213,0.383,0.338,0.668,0.372c0.405,0.049,0.762-0.084,1.071-0.397C330.324,320.043,330.492,319.691,330.542,319.276z"/>
		<path fill="#FFFFFF" d="M338.512,319.75c-0.085,0.049-0.279,0.076-0.579,0.08c-0.332,0-0.523,0.013-0.575,0.036
			c-0.023,0.108-0.094,0.655-0.212,1.644c-0.093,0.771-0.145,1.29-0.157,1.559c-0.013,0.109-0.01,0.285,0.013,0.529
			c0.021,0.242,0.023,0.429,0.008,0.557c-0.009,0.079-0.068,0.151-0.177,0.219c-0.108,0.066-0.202,0.096-0.28,0.087
			c-0.198-0.023-0.332-0.245-0.402-0.665c-0.043-0.305-0.049-0.592-0.017-0.858c0.166-1.393,0.289-2.421,0.369-3.083
			c-0.053-0.056-0.273-0.082-0.664-0.079c-0.313,0.003-0.454-0.129-0.423-0.396c0.045-0.376,0.466-0.501,1.263-0.376l0.515-2.659
			c0.003-0.029-0.004-0.077-0.021-0.145c-0.018-0.067-0.025-0.115-0.021-0.146c0.007-0.059,0.054-0.111,0.141-0.157
			c0.085-0.044,0.181-0.055,0.289-0.032c0.343,0.071,0.494,0.265,0.457,0.581c-0.03,0.246-0.109,0.613-0.237,1.1
			c-0.128,0.484-0.207,0.847-0.235,1.084c-0.015,0.118-0.018,0.232-0.011,0.344l0.82,0.053c0.276,0.033,0.401,0.159,0.376,0.376
			C338.73,319.56,338.652,319.676,338.512,319.75z"/>
		<path fill="#FFFFFF" d="M342.604,325.381c-0.089,0.068-0.241,0.091-0.459,0.064c-0.108-0.013-0.214-0.096-0.315-0.249
			c0.102-0.849,0.183-1.526,0.243-2.03c0.3-2.51,0.032-3.813-0.803-3.913c-0.353-0.042-0.672,0.129-0.958,0.517
			c-0.249,0.331-0.395,0.685-0.439,1.06c-0.005,0.04-0.025,0.1-0.06,0.181c-0.036,0.081-0.056,0.141-0.061,0.18l-0.227,1.898
			c-0.021,0.168-0.024,0.413-0.012,0.734c0.011,0.322,0.007,0.562-0.013,0.721c-0.019,0.158-0.146,0.222-0.383,0.193
			c-0.168-0.02-0.3-0.115-0.395-0.287c-0.094-0.172-0.132-0.342-0.111-0.51l1.182-9.118c-0.014-0.061-0.016-0.121-0.009-0.18
			c0.021-0.179,0.131-0.256,0.329-0.232c0.099,0.012,0.236,0.096,0.412,0.253c0.177,0.156,0.26,0.279,0.249,0.369
			c-0.028,0.238-0.116,0.573-0.264,1.009c-0.146,0.435-0.235,0.767-0.263,0.995c-0.002,0.02-0.071,0.68-0.206,1.979
			c0.404-0.281,0.705-0.411,0.903-0.387c0.316,0.037,0.686,0.177,1.108,0.417c0.815,0.459,1.134,1.449,0.952,2.971L342.604,325.381z
			"/>
		<path fill="#FFFFFF" d="M345.494,319.442c-0.021,0.178-0.095,0.44-0.222,0.784c-0.126,0.346-0.2,0.608-0.222,0.786l-0.392,3.274
			c-0.026,0.219-0.012,0.521,0.042,0.907c-0.05,0.074-0.108,0.108-0.179,0.1c-0.483-0.058-0.696-0.319-0.641-0.784l0.65-5.438
			c0.137-0.054,0.264-0.073,0.383-0.059c0.118,0.014,0.237,0.062,0.357,0.147C345.433,319.25,345.506,319.344,345.494,319.442z
			 M346.042,317.253c-0.04,0.336-0.218,0.485-0.534,0.447c-0.188-0.022-0.354-0.112-0.494-0.27
			c-0.142-0.157-0.202-0.324-0.181-0.503c0.04-0.335,0.228-0.484,0.564-0.444c0.197,0.024,0.359,0.109,0.488,0.255
			C346.014,316.885,346.065,317.056,346.042,317.253z"/>
		<path fill="#FFFFFF" d="M350.002,324.985c-0.042,0.346-0.338,0.606-0.891,0.781c-0.457,0.136-0.888,0.181-1.293,0.132
			c-0.267-0.032-0.565-0.133-0.896-0.304c-0.179-0.104-0.455-0.347-0.829-0.735c-0.41-0.423-0.607-0.704-0.591-0.844
			c0.037-0.308,0.237-0.426,0.599-0.353l0.089,0.011c-0.016,0.303,0.262,0.664,0.832,1.087c0.516,0.387,0.94,0.599,1.276,0.639
			c0.435,0.052,0.669-0.07,0.705-0.367c0.021-0.178-0.216-0.457-0.711-0.838c-0.681-0.514-1.138-0.915-1.375-1.204
			c-0.479-0.59-0.679-1.228-0.598-1.91c0.062-0.516,0.254-0.989,0.577-1.422c0.372-0.519,0.791-0.75,1.256-0.694
			c0.335,0.04,0.721,0.245,1.158,0.611c0.437,0.368,0.676,0.716,0.718,1.041c0.046,0.275,0.049,0.592,0.007,0.948
			c-0.047,0.385-0.166,0.797-0.359,1.234c-0.097,0.059-0.204,0.081-0.322,0.067c-0.069-0.009-0.175-0.049-0.316-0.121
			c-0.143-0.071-0.209-0.138-0.202-0.198c-0.004,0.041,0.062-0.062,0.201-0.305c0.1-0.159,0.176-0.461,0.229-0.905
			c0.127-1.058-0.142-1.626-0.804-1.705c-0.347-0.041-0.65,0.158-0.913,0.599c-0.223,0.355-0.357,0.726-0.403,1.113
			c-0.059,0.484,0.166,0.988,0.676,1.511c0.168,0.183,0.646,0.586,1.433,1.212C349.777,324.48,350.025,324.786,350.002,324.985z"/>
		<path fill="#FFFFFF" d="M359.648,317.738c-0.023,0.198-0.185,0.279-0.481,0.244c-0.059-0.008-0.102-0.023-0.129-0.047
			c0.011-0.428-0.241-0.674-0.754-0.735c-0.484-0.059-0.927,0.452-1.326,1.531c-0.271,0.762-0.45,1.5-0.535,2.215
			c0.07-0.002,0.159,0.009,0.267,0.032c0.238,0.028,0.371,0.044,0.4,0.048c0.366,0.044,0.534,0.174,0.509,0.391
			c-0.009,0.069-0.029,0.167-0.064,0.293c-0.17,0.069-0.426,0.084-0.766,0.044c-0.26-0.031-0.422-0.03-0.486,0.002
			c-0.076,0.382-0.176,1.076-0.296,2.083l-0.128,1.067c-0.057,0.475-0.055,0.961,0.004,1.459c0.016,0.052,0.02,0.098,0.015,0.137
			c-0.027,0.236-0.209,0.336-0.545,0.296c-0.297-0.036-0.397-0.454-0.302-1.254c0.26-2.174,0.435-3.455,0.521-3.847
			c0.021,0.003-0.231-0.027-0.755-0.09c-0.229-0.027-0.329-0.149-0.303-0.366c0.034-0.287,0.25-0.407,0.646-0.359l0.533,0.063
			c0.043-0.194,0.093-0.444,0.148-0.748c0.463-2.609,1.357-3.836,2.68-3.678C359.352,316.621,359.733,317.027,359.648,317.738z"/>
		<path fill="#FFFFFF" d="M359.089,326.797c-0.03,0.257-0.185,0.369-0.461,0.336c-0.435-0.052-0.539-0.972-0.315-2.76l0.84-6.648
			c0.014-0.108,0.019-0.266,0.013-0.472c-0.007-0.206-0.003-0.359,0.009-0.458c0.205-0.115,0.371-0.166,0.499-0.15
			c0.139,0.016,0.271,0.082,0.397,0.197c0.127,0.116,0.182,0.243,0.165,0.382c-0.013,0.099-0.052,0.224-0.12,0.376
			c-0.083,0.189-0.133,0.309-0.148,0.357c-0.199,0.657-0.37,1.589-0.515,2.795c-0.233,1.946-0.351,2.885-0.352,2.813
			c-0.115,1.219-0.146,2.143-0.091,2.771c-0.004,0.029,0.01,0.099,0.042,0.207C359.084,326.653,359.097,326.737,359.089,326.797z"/>
		<path fill="#FFFFFF" d="M365.028,321.766c-0.135,0.424-0.263,0.851-0.389,1.276c-0.147,0.453-0.246,0.882-0.294,1.287
			l-0.556,4.639c-0.079,0.661-0.342,1.164-0.788,1.507c-0.447,0.342-1.006,0.473-1.679,0.393c-0.365-0.044-0.764-0.191-1.195-0.444
			c-0.497-0.279-0.825-0.595-0.983-0.944c-0.039-0.095-0.053-0.187-0.042-0.275c0.034-0.287,0.19-0.414,0.466-0.381
			c0.059,0.007,0.121,0.035,0.186,0.083c0.146,0.198,0.294,0.391,0.442,0.578c0.299,0.347,0.705,0.552,1.219,0.612
			c0.652,0.078,1.115-0.096,1.387-0.525c0.162-0.271,0.288-0.781,0.379-1.533c0.012-0.099,0.016-0.299,0.011-0.599
			c-0.01-0.253,0.006-0.471,0.049-0.656c-0.308,0.224-0.523,0.363-0.651,0.418c-0.234,0.113-0.479,0.153-0.735,0.122
			c-0.672-0.08-1.15-0.402-1.433-0.968c-0.252-0.491-0.336-1.087-0.253-1.788c0.16-1.335,0.314-2.458,0.465-3.373
			c0.076-0.311,0.269-0.448,0.575-0.411c0.375,0.045,0.535,0.128,0.479,0.252c-0.248,0.491-0.48,1.632-0.694,3.42
			c-0.166,1.383,0.146,2.121,0.932,2.215c0.48,0.058,0.908-0.267,1.282-0.974c0.284-0.547,0.457-1.111,0.517-1.696l0.202-1.689
			c0.03-0.167,0.068-0.378,0.114-0.633c0.045-0.254,0.221-0.354,0.523-0.298C364.916,321.45,365.069,321.579,365.028,321.766z"/>
		<path fill="#FFFFFF" d="M367.119,327.036c-0.082,0.682-0.504,0.977-1.265,0.886c-0.139-0.018-0.39-0.138-0.753-0.361
			c-0.062-0.158-0.081-0.324-0.06-0.502c0.035-0.297,0.142-0.484,0.322-0.564c0.128-0.063,0.341-0.078,0.637-0.043
			C366.781,326.544,367.154,326.739,367.119,327.036z M368.634,318.273c-0.069,0.071-0.159,0.196-0.271,0.372
			c-0.564,1.377-0.999,2.909-1.301,4.595c-0.007,0.061-0.032,0.165-0.075,0.315c-0.044,0.15-0.069,0.269-0.08,0.358
			c-0.015,0.117,0.02,0.504,0.102,1.154c-0.044,0.036-0.121,0.086-0.229,0.153c-0.041,0.005-0.115,0.001-0.224-0.012
			c-0.139-0.017-0.246-0.05-0.319-0.099c-0.075-0.209-0.082-0.57-0.021-1.084l0.018-0.148l1.047-5.106
			c0.005-0.039-0.01-0.163-0.044-0.373c-0.036-0.21-0.058-0.325-0.064-0.346c0.251-0.171,0.515-0.239,0.791-0.207
			C368.21,317.877,368.433,318.019,368.634,318.273z"/>
	</g>
	<g>
		<path fill="#FFFFFF" d="M128.583,342.586c-0.086,0.049-0.28,0.076-0.58,0.08c-0.332,0-0.523,0.013-0.575,0.036
			c-0.023,0.107-0.094,0.655-0.212,1.644c-0.093,0.771-0.145,1.29-0.157,1.559c-0.013,0.109-0.01,0.284,0.013,0.529
			c0.021,0.242,0.023,0.428,0.008,0.557c-0.009,0.078-0.068,0.15-0.177,0.219c-0.108,0.066-0.202,0.096-0.28,0.087
			c-0.198-0.024-0.332-0.245-0.402-0.665c-0.043-0.305-0.049-0.592-0.017-0.858c0.166-1.393,0.289-2.421,0.369-3.083
			c-0.053-0.056-0.273-0.082-0.664-0.079c-0.313,0.003-0.454-0.129-0.423-0.396c0.045-0.376,0.466-0.501,1.263-0.376l0.515-2.659
			c0.003-0.029-0.004-0.077-0.021-0.146c-0.018-0.066-0.024-0.114-0.021-0.145c0.007-0.059,0.053-0.112,0.14-0.157
			c0.085-0.044,0.181-0.056,0.289-0.032c0.343,0.071,0.494,0.264,0.457,0.58c-0.03,0.247-0.109,0.614-0.237,1.101
			c-0.128,0.484-0.207,0.847-0.235,1.084c-0.015,0.118-0.018,0.232-0.011,0.344l0.82,0.053c0.276,0.033,0.401,0.159,0.376,0.376
			C128.801,342.396,128.723,342.511,128.583,342.586z"/>
		<path fill="#FFFFFF" d="M132.675,348.216c-0.089,0.069-0.241,0.091-0.459,0.065c-0.108-0.014-0.214-0.096-0.315-0.249
			c0.102-0.849,0.183-1.526,0.243-2.03c0.3-2.51,0.032-3.813-0.803-3.913c-0.353-0.043-0.672,0.129-0.957,0.516
			c-0.25,0.332-0.396,0.685-0.44,1.06c-0.005,0.041-0.025,0.101-0.06,0.182c-0.036,0.081-0.056,0.141-0.061,0.18l-0.227,1.897
			c-0.021,0.168-0.024,0.413-0.012,0.735c0.011,0.322,0.007,0.562-0.013,0.721c-0.019,0.158-0.146,0.222-0.383,0.193
			c-0.168-0.021-0.3-0.115-0.395-0.287c-0.094-0.173-0.132-0.343-0.111-0.511l1.182-9.117c-0.014-0.061-0.016-0.122-0.009-0.181
			c0.021-0.178,0.131-0.255,0.329-0.231c0.099,0.012,0.236,0.096,0.412,0.253c0.177,0.156,0.26,0.279,0.249,0.369
			c-0.028,0.238-0.116,0.573-0.264,1.009c-0.146,0.435-0.235,0.766-0.263,0.994c-0.002,0.02-0.071,0.681-0.206,1.98
			c0.404-0.281,0.705-0.411,0.903-0.388c0.316,0.038,0.686,0.178,1.108,0.418c0.815,0.459,1.134,1.448,0.952,2.97L132.675,348.216z"
			/>
		<path fill="#FFFFFF" d="M138.085,346.969c-0.052,0.435-0.39,0.79-1.014,1.066c-0.562,0.253-1.075,0.352-1.54,0.296
			c-1.322-0.158-1.885-1.077-1.684-2.756c0.089-0.741,0.317-1.521,0.687-2.339c0.487-1.063,1.008-1.562,1.562-1.496
			c0.475,0.057,0.965,0.359,1.471,0.905c0.505,0.547,0.73,1.057,0.674,1.531c-0.074,0.612-0.386,1.116-0.934,1.513
			c-0.548,0.395-1.134,0.555-1.756,0.48c-0.06-0.007-0.179-0.071-0.36-0.193s-0.307-0.188-0.375-0.195
			c-0.129-0.016-0.198,0.017-0.207,0.095c-0.136,1.137,0.171,1.75,0.923,1.84c0.385,0.046,0.757-0.04,1.112-0.258
			c0.216-0.124,0.461-0.331,0.735-0.618c0.218-0.226,0.356-0.334,0.416-0.327C138.021,346.54,138.118,346.692,138.085,346.969z
			 M137.39,344.12c0.042-0.346-0.02-0.681-0.181-1.007c-0.162-0.324-0.405-0.507-0.73-0.546c-0.396-0.047-0.747,0.161-1.053,0.626
			c-0.257,0.391-0.412,0.808-0.465,1.252c-0.034,0.287,0.027,0.537,0.188,0.752c0.16,0.214,0.383,0.339,0.669,0.373
			c0.405,0.049,0.761-0.084,1.07-0.398C137.172,344.887,137.34,344.535,137.39,344.12z"/>
		<path fill="#FFFFFF" d="M145.625,344.008c-0.005,0.04-0.02,0.124-0.044,0.25c-0.153,0.184-0.288,0.266-0.406,0.252
			c-0.079-0.01-0.143-0.066-0.189-0.172c0.044-0.626-0.176-0.969-0.66-1.026c-0.315-0.038-0.696,0.508-1.143,1.637
			c-0.169,0.41-0.296,0.972-0.381,1.684c-0.108,0.908-0.152,1.47-0.127,1.684c0.006,0.03,0.024,0.095,0.052,0.193
			c0.028,0.1,0.04,0.173,0.034,0.223c-0.026,0.217-0.188,0.308-0.484,0.272c-0.335-0.04-0.482-0.232-0.441-0.579
			c0.006-0.05,0.026-0.119,0.063-0.21c0.034-0.091,0.056-0.161,0.062-0.211c0.065-0.544,0.138-1.361,0.22-2.454
			c0.079-1.093,0.152-1.91,0.217-2.454c0.024-0.198,0.073-0.315,0.148-0.35c0.073-0.037,0.21-0.043,0.408-0.02
			c0.246,0.029,0.379,0.135,0.397,0.317c-0.014,0.2-0.027,0.394-0.04,0.582c0.305-0.364,0.479-0.569,0.524-0.614
			c0.247-0.22,0.49-0.317,0.727-0.289c0.178,0.021,0.35,0.098,0.514,0.227c0.092,0.072,0.21,0.242,0.353,0.51
			C145.571,343.727,145.637,343.909,145.625,344.008z"/>
		<path fill="#FFFFFF" d="M150.188,346.944c-0.102,0.851-0.379,1.568-0.829,2.156c-0.536,0.706-1.198,1.014-1.988,0.919
			c-0.801-0.096-1.361-0.478-1.683-1.148c-0.265-0.553-0.346-1.254-0.244-2.104c0.101-0.839,0.388-1.642,0.859-2.407
			c0.594-0.941,1.256-1.368,1.987-1.28c0.188,0.022,0.441,0.163,0.762,0.423C149.994,344.256,150.373,345.403,150.188,346.944z
			 M149.479,346.845c0.075-0.632,0.061-1.21-0.047-1.735c-0.163-0.729-0.502-1.127-1.016-1.188
			c-0.593-0.071-1.104,0.265-1.533,1.004c-0.33,0.572-0.535,1.204-0.618,1.896c-0.074,0.623-0.048,1.157,0.079,1.604
			c0.188,0.613,0.553,0.952,1.097,1.018c0.592,0.071,1.082-0.211,1.469-0.847C149.208,348.1,149.397,347.517,149.479,346.845z"/>
		<path fill="#FFFFFF" d="M155.418,348.972c-0.029,0.238-0.271,0.535-0.723,0.89c-0.453,0.354-0.814,0.55-1.078,0.59
			c-0.358,0.066-0.652,0.087-0.879,0.061c-0.722-0.087-1.243-0.416-1.566-0.986c-0.301-0.508-0.405-1.133-0.316-1.876
			c0.092-0.762,0.355-1.594,0.794-2.495c0.546-1.12,1.119-1.645,1.722-1.572c0.287,0.034,0.65,0.222,1.092,0.56
			c0.439,0.338,0.674,0.64,0.703,0.903c0.032,0.314,0.031,0.62-0.004,0.916c-0.131,1.087-0.359,1.611-0.685,1.572
			c-0.079-0.01-0.169-0.051-0.271-0.123c-0.103-0.072-0.148-0.147-0.139-0.227c0.005-0.04,0.03-0.089,0.077-0.148
			c0.047-0.061,0.077-0.1,0.09-0.117c0.056-0.124,0.109-0.418,0.165-0.883c0.131-1.097-0.05-1.674-0.544-1.733
			c-0.543-0.065-1.048,0.382-1.513,1.341c-0.35,0.743-0.566,1.459-0.649,2.152c-0.064,0.535-0.032,0.992,0.093,1.368
			c0.171,0.493,0.493,0.768,0.968,0.824c0.287,0.034,0.641-0.075,1.062-0.328c0.378-0.228,0.669-0.479,0.873-0.759
			c0.052-0.096,0.127-0.228,0.229-0.396c0.058-0.064,0.131-0.091,0.22-0.08c0.06,0.008,0.123,0.082,0.189,0.228
			C155.396,348.795,155.426,348.901,155.418,348.972z"/>
		<path fill="#FFFFFF" d="M161.106,351.798c-0.271,0.169-0.482,0.243-0.631,0.226c-0.218-0.025-0.557-0.383-1.018-1.068
			c-0.579-0.881-0.886-1.344-0.919-1.388c-0.108-0.113-0.289-0.37-0.543-0.772c-0.221-0.336-0.423-0.576-0.607-0.719l-0.31,0.324
			l-0.176,1.467c-0.011,0.09,0.01,0.22,0.059,0.391c0.05,0.172,0.069,0.302,0.059,0.391c-0.007,0.06-0.057,0.11-0.147,0.154
			c-0.09,0.044-0.17,0.062-0.238,0.054c-0.396-0.047-0.568-0.282-0.517-0.707l0.248-2.075c0.015-0.128,0.053-0.316,0.113-0.565
			c0.06-0.248,0.097-0.437,0.112-0.565l0.489-4.09c0.069-0.582,0.103-1.045,0.097-1.387c0.006-0.049-0.005-0.16-0.029-0.333
			c-0.011-0.142-0.011-0.257,0-0.347c0.012-0.099,0.101-0.188,0.265-0.269c0.165-0.08,0.307-0.113,0.425-0.099
			c0.09,0.011,0.183,0.049,0.279,0.115c0.098,0.067,0.142,0.14,0.133,0.218c-0.002,0.01-0.042,0.127-0.121,0.348
			c-0.106,0.258-0.204,0.771-0.297,1.543l-0.578,4.29l0.066,0.083c0.341-0.159,0.82-0.473,1.44-0.94
			c0.389-0.313,0.779-0.628,1.169-0.942c0.634-0.505,1-0.752,1.1-0.74c0.148,0.018,0.26,0.099,0.332,0.243
			c0.074,0.143,0.097,0.289,0.07,0.436l-0.024,0.073c-0.408,0.202-1.017,0.58-1.828,1.134c-0.934,0.641-1.414,1.079-1.442,1.315
			c-0.011,0.089,0.111,0.329,0.368,0.72c0.4,0.601,0.796,1.198,1.188,1.796c0.543,0.757,1.021,1.266,1.433,1.525L161.106,351.798z"
			/>
		<path fill="#FFFFFF" d="M165.293,350.225c-0.052,0.435-0.39,0.791-1.014,1.066c-0.562,0.253-1.074,0.352-1.539,0.297
			c-1.324-0.159-1.886-1.078-1.685-2.757c0.089-0.741,0.317-1.52,0.687-2.339c0.487-1.063,1.008-1.562,1.562-1.496
			c0.475,0.057,0.965,0.359,1.471,0.905c0.505,0.547,0.73,1.058,0.674,1.532c-0.073,0.612-0.386,1.115-0.934,1.512
			c-0.548,0.395-1.134,0.556-1.756,0.481c-0.06-0.008-0.179-0.072-0.36-0.194c-0.182-0.121-0.307-0.187-0.375-0.195
			c-0.129-0.016-0.198,0.018-0.207,0.096c-0.137,1.137,0.172,1.75,0.923,1.84c0.385,0.046,0.757-0.041,1.112-0.259
			c0.216-0.124,0.461-0.331,0.736-0.618c0.217-0.226,0.355-0.334,0.415-0.326C165.229,349.797,165.326,349.948,165.293,350.225z
			 M164.598,347.376c0.042-0.346-0.02-0.681-0.181-1.006c-0.162-0.325-0.405-0.507-0.73-0.546c-0.396-0.048-0.747,0.161-1.053,0.625
			c-0.257,0.391-0.412,0.808-0.465,1.252c-0.034,0.287,0.027,0.537,0.188,0.753c0.16,0.213,0.383,0.338,0.669,0.372
			c0.405,0.049,0.761-0.084,1.07-0.397C164.381,348.143,164.548,347.791,164.598,347.376z"/>
		<path fill="#FFFFFF" d="M168.966,347.419c-0.085,0.049-0.279,0.076-0.58,0.08c-0.331,0-0.522,0.013-0.575,0.036
			c-0.022,0.107-0.093,0.655-0.211,1.644c-0.093,0.771-0.146,1.29-0.158,1.559c-0.013,0.109-0.009,0.284,0.014,0.528
			c0.02,0.242,0.022,0.43,0.007,0.558c-0.009,0.079-0.067,0.151-0.177,0.219c-0.107,0.066-0.201,0.096-0.28,0.087
			c-0.197-0.023-0.331-0.245-0.401-0.665c-0.044-0.305-0.049-0.592-0.017-0.858c0.166-1.393,0.289-2.421,0.369-3.083
			c-0.053-0.056-0.273-0.082-0.665-0.079c-0.312,0.003-0.453-0.129-0.422-0.396c0.045-0.376,0.467-0.501,1.263-0.376l0.515-2.659
			c0.003-0.029-0.004-0.077-0.021-0.146c-0.018-0.066-0.025-0.114-0.021-0.145c0.007-0.059,0.054-0.111,0.14-0.157
			c0.086-0.044,0.182-0.056,0.289-0.032c0.344,0.071,0.494,0.264,0.457,0.58c-0.03,0.247-0.108,0.614-0.237,1.101
			c-0.127,0.484-0.206,0.847-0.234,1.084c-0.015,0.118-0.018,0.232-0.011,0.343l0.82,0.054c0.276,0.033,0.401,0.159,0.376,0.376
			C169.185,347.229,169.105,347.344,168.966,347.419z"/>
	</g>
	<g>
		<path fill="#FFFFFF" d="M294.586,153.105c-0.004,0.03-0.104,0.369-0.302,1.018c-0.385,1.297-0.619,2.281-0.699,2.953l-0.367,3.066
			c-0.101,0.84-0.112,1.354-0.035,1.544c0.008,0.021,0.042,0.076,0.102,0.163s0.087,0.155,0.081,0.205
			c-0.02,0.167-0.115,0.242-0.283,0.222c-0.157-0.019-0.353-0.108-0.584-0.266c-0.059-0.178-0.078-0.345-0.06-0.503l0.796-6.655
			c-0.045-0.044-0.117-0.112-0.216-0.205l0.043-0.356c0.027-0.227,0.164-0.662,0.411-1.303c0.263-0.69,0.448-1.029,0.558-1.016
			c0.147,0.018,0.281,0.171,0.403,0.462C294.554,152.725,294.604,152.947,294.586,153.105z"/>
		<path fill="#FFFFFF" d="M295.817,162.032c-0.017,0.139-0.124,0.246-0.323,0.322c-0.158,0.062-0.316,0.082-0.475,0.063
			c-0.168-0.021-0.309-0.097-0.423-0.23c-0.113-0.135-0.161-0.28-0.143-0.438c0.04-0.336,0.233-0.483,0.579-0.442
			c0.197,0.023,0.383,0.104,0.558,0.24C295.765,161.683,295.84,161.845,295.817,162.032z"/>
		<path fill="#FFFFFF" d="M305.456,154.227c-0.023,0.198-0.185,0.279-0.481,0.243c-0.059-0.007-0.102-0.022-0.129-0.047
			c0.012-0.428-0.24-0.674-0.753-0.735c-0.485-0.058-0.927,0.453-1.326,1.531c-0.271,0.762-0.45,1.501-0.535,2.216
			c0.069-0.002,0.159,0.009,0.267,0.031c0.237,0.028,0.37,0.045,0.4,0.048c0.365,0.044,0.534,0.174,0.509,0.391
			c-0.009,0.07-0.03,0.167-0.065,0.294c-0.17,0.068-0.426,0.084-0.765,0.043c-0.261-0.031-0.422-0.029-0.487,0.002
			c-0.076,0.382-0.176,1.077-0.296,2.084l-0.128,1.067c-0.057,0.475-0.055,0.961,0.004,1.458c0.016,0.053,0.021,0.098,0.016,0.138
			c-0.027,0.236-0.21,0.336-0.545,0.295c-0.297-0.035-0.397-0.453-0.302-1.253c0.26-2.174,0.435-3.456,0.52-3.847
			c0.021,0.003-0.231-0.027-0.755-0.09c-0.228-0.027-0.328-0.149-0.303-0.366c0.034-0.287,0.25-0.407,0.646-0.36l0.533,0.064
			c0.043-0.195,0.094-0.444,0.149-0.749c0.463-2.609,1.355-3.836,2.68-3.677C305.158,153.109,305.541,153.516,305.456,154.227z"/>
		<path fill="#FFFFFF" d="M308.106,158.197c-0.036,0.307-0.123,0.76-0.261,1.359c-0.137,0.6-0.23,1.122-0.284,1.566
			c-0.021,0.178-0.045,0.519-0.069,1.021c-0.025,0.503-0.051,0.864-0.077,1.081c-0.052,0.436-0.133,0.691-0.242,0.768
			c-0.063,0.032-0.151,0.043-0.26,0.03c-0.217-0.026-0.354-0.138-0.41-0.336c-0.017-0.191-0.035-0.38-0.054-0.562
			c-0.34,0.405-0.861,0.623-1.566,0.654c-0.261,0.008-0.544-0.142-0.848-0.449c-0.277-0.275-0.452-0.537-0.522-0.787
			c-0.099-0.344-0.093-0.982,0.02-1.915l0.387-3.231c-0.024-0.305,0.161-0.433,0.557-0.385c0.276,0.033,0.396,0.207,0.358,0.523
			c-0.057,0.475-0.146,1.09-0.267,1.847c-0.146,0.964-0.233,1.581-0.266,1.848c-0.052,0.354-0.017,0.719,0.109,1.095
			c0.146,0.448,0.372,0.69,0.679,0.727c0.505,0.061,0.935-0.228,1.293-0.866c0.257-0.48,0.422-1.021,0.494-1.625l0.232-1.941
			c0.01-0.078-0.005-0.192-0.042-0.343c-0.037-0.148-0.05-0.269-0.039-0.358c0.006-0.049,0.017-0.103,0.035-0.161
			c0.152-0.111,0.3-0.164,0.438-0.157C307.951,157.611,308.153,157.812,308.106,158.197z"/>
		<path fill="#FFFFFF" d="M313.037,164.483c-0.069,0.102-0.154,0.148-0.258,0.136c-0.103-0.013-0.262-0.103-0.478-0.269l0.014-0.119
			c0.011-0.088,0.026-0.222,0.048-0.399c0.021-0.179,0.037-0.307,0.046-0.386c0.393-3.279,0.181-4.969-0.636-5.066
			c-0.256-0.03-0.554,0.125-0.894,0.465c-0.858,0.839-1.372,1.965-1.541,3.378c-0.022,0.188-0.028,0.466-0.017,0.832
			c0.011,0.366,0.005,0.645-0.018,0.833c-0.018,0.147-0.126,0.209-0.327,0.186c-0.382-0.046-0.535-0.38-0.46-1.003l0.402-3.363
			c0.011-0.088,0.029-0.217,0.06-0.384s0.05-0.294,0.061-0.383c0.016-0.129,0.021-0.318,0.017-0.569
			c-0.006-0.252-0.001-0.437,0.013-0.555c0.01-0.08,0.083-0.163,0.219-0.252c0.136-0.09,0.238-0.13,0.308-0.121
			c0.128,0.015,0.239,0.099,0.331,0.249c-0.107,0.64-0.167,1.014-0.18,1.122c-0.019,0.148-0.03,0.291-0.037,0.431
			c0.094-0.02,0.231-0.168,0.415-0.446c0.232-0.353,0.421-0.59,0.565-0.714c0.271-0.248,0.559-0.354,0.865-0.317
			c0.118,0.015,0.292,0.08,0.518,0.197c0.509,0.263,0.852,0.633,1.024,1.114c0.291,0.827,0.361,1.883,0.207,3.167L313.037,164.483z"
			/>
		<path fill="#FFFFFF" d="M318.624,163.518c-0.029,0.238-0.27,0.535-0.722,0.89c-0.453,0.354-0.814,0.55-1.078,0.59
			c-0.358,0.067-0.652,0.087-0.88,0.061c-0.721-0.087-1.242-0.415-1.566-0.986c-0.3-0.507-0.405-1.133-0.316-1.876
			c0.092-0.762,0.356-1.594,0.795-2.495c0.546-1.12,1.119-1.645,1.722-1.572c0.287,0.034,0.65,0.222,1.09,0.56
			c0.441,0.338,0.676,0.64,0.705,0.903c0.032,0.315,0.031,0.62-0.004,0.916c-0.131,1.087-0.359,1.611-0.686,1.572
			c-0.078-0.01-0.168-0.05-0.271-0.123c-0.102-0.072-0.147-0.147-0.138-0.227c0.005-0.04,0.029-0.089,0.077-0.148
			c0.047-0.061,0.077-0.1,0.09-0.117c0.054-0.124,0.109-0.418,0.165-0.883c0.131-1.097-0.05-1.674-0.544-1.733
			c-0.543-0.064-1.048,0.382-1.514,1.342c-0.349,0.742-0.565,1.458-0.648,2.151c-0.064,0.535-0.032,0.992,0.092,1.368
			c0.172,0.493,0.494,0.768,0.969,0.824c0.286,0.034,0.641-0.074,1.062-0.328c0.378-0.228,0.669-0.479,0.873-0.759
			c0.051-0.096,0.127-0.228,0.228-0.396c0.059-0.064,0.131-0.091,0.221-0.079c0.059,0.007,0.123,0.082,0.189,0.227
			C318.604,163.341,318.632,163.447,318.624,163.518z"/>
		<path fill="#FFFFFF" d="M321.991,160.746c-0.085,0.049-0.279,0.076-0.579,0.08c-0.332,0-0.523,0.013-0.576,0.036
			c-0.022,0.108-0.093,0.655-0.211,1.644c-0.093,0.771-0.145,1.291-0.157,1.56c-0.013,0.109-0.01,0.284,0.013,0.528
			c0.021,0.242,0.022,0.429,0.007,0.557c-0.009,0.079-0.067,0.151-0.176,0.22c-0.108,0.066-0.202,0.096-0.281,0.086
			c-0.197-0.023-0.331-0.245-0.401-0.665c-0.043-0.305-0.049-0.592-0.017-0.857c0.166-1.393,0.289-2.422,0.369-3.084
			c-0.053-0.056-0.273-0.082-0.664-0.079c-0.313,0.003-0.454-0.128-0.423-0.396c0.045-0.375,0.467-0.5,1.263-0.375l0.515-2.66
			c0.003-0.029-0.004-0.076-0.021-0.145c-0.018-0.066-0.025-0.115-0.021-0.146c0.007-0.059,0.054-0.111,0.141-0.156
			c0.085-0.045,0.181-0.056,0.288-0.033c0.344,0.071,0.495,0.265,0.458,0.581c-0.03,0.247-0.109,0.613-0.238,1.1
			c-0.127,0.484-0.206,0.847-0.234,1.084c-0.015,0.118-0.018,0.232-0.011,0.344l0.82,0.054c0.276,0.033,0.401,0.159,0.376,0.376
			C322.21,160.557,322.131,160.672,321.991,160.746z"/>
		<path fill="#FFFFFF" d="M324.128,159.858c-0.021,0.178-0.096,0.44-0.222,0.785c-0.127,0.345-0.2,0.607-0.222,0.785l-0.392,3.274
			c-0.026,0.219-0.013,0.521,0.042,0.908c-0.05,0.074-0.109,0.107-0.179,0.1c-0.484-0.059-0.697-0.319-0.642-0.784l0.65-5.438
			c0.137-0.055,0.264-0.074,0.383-0.06c0.118,0.015,0.238,0.063,0.358,0.147C324.065,159.666,324.14,159.76,324.128,159.858z
			 M324.676,157.67c-0.04,0.336-0.219,0.484-0.535,0.447c-0.188-0.023-0.352-0.113-0.494-0.271c-0.142-0.156-0.201-0.324-0.18-0.503
			c0.04-0.335,0.227-0.484,0.563-0.443c0.198,0.023,0.359,0.109,0.488,0.254C324.646,157.301,324.699,157.473,324.676,157.67z"/>
		<path fill="#FFFFFF" d="M329.148,163.376c-0.102,0.851-0.379,1.568-0.829,2.156c-0.536,0.706-1.199,1.013-1.989,0.919
			c-0.801-0.096-1.361-0.479-1.683-1.148c-0.264-0.553-0.345-1.254-0.243-2.104c0.101-0.839,0.388-1.642,0.859-2.407
			c0.593-0.941,1.256-1.368,1.987-1.281c0.188,0.023,0.44,0.164,0.761,0.424C328.953,160.687,329.333,161.835,329.148,163.376z
			 M328.438,163.275c0.075-0.632,0.06-1.21-0.047-1.734c-0.164-0.73-0.503-1.127-1.016-1.188c-0.594-0.071-1.104,0.264-1.534,1.004
			c-0.329,0.571-0.534,1.204-0.617,1.896c-0.074,0.623-0.049,1.157,0.079,1.604c0.187,0.613,0.552,0.952,1.096,1.018
			c0.593,0.07,1.083-0.212,1.469-0.847C328.168,164.531,328.357,163.947,328.438,163.275z"/>
		<path fill="#FFFFFF" d="M334.229,167.02c-0.069,0.102-0.154,0.148-0.257,0.136c-0.104-0.013-0.263-0.103-0.479-0.269l0.014-0.119
			c0.011-0.088,0.026-0.222,0.048-0.399c0.021-0.179,0.037-0.307,0.046-0.386c0.393-3.279,0.181-4.969-0.636-5.066
			c-0.256-0.03-0.554,0.125-0.894,0.465c-0.858,0.839-1.372,1.965-1.541,3.378c-0.022,0.188-0.028,0.466-0.017,0.832
			c0.011,0.366,0.005,0.645-0.018,0.833c-0.018,0.147-0.126,0.209-0.327,0.186c-0.382-0.046-0.535-0.379-0.46-1.002l0.402-3.363
			c0.011-0.089,0.03-0.218,0.06-0.385c0.03-0.166,0.05-0.294,0.061-0.383c0.016-0.129,0.021-0.318,0.017-0.569
			c-0.006-0.253-0.001-0.437,0.013-0.555c0.01-0.08,0.083-0.163,0.219-0.252c0.136-0.09,0.238-0.13,0.308-0.122
			c0.128,0.016,0.239,0.1,0.331,0.25c-0.107,0.641-0.167,1.014-0.18,1.122c-0.019,0.148-0.03,0.291-0.037,0.431
			c0.094-0.02,0.231-0.168,0.415-0.446c0.232-0.353,0.421-0.591,0.565-0.714c0.271-0.248,0.559-0.354,0.865-0.317
			c0.118,0.015,0.292,0.081,0.518,0.198c0.509,0.262,0.852,0.632,1.024,1.113c0.291,0.826,0.361,1.883,0.207,3.167L334.229,167.02z"
			/>
		<path fill="#FFFFFF" d="M339.631,166.717c-0.042,0.346-0.338,0.607-0.891,0.782c-0.457,0.136-0.888,0.181-1.293,0.132
			c-0.267-0.032-0.565-0.133-0.896-0.304c-0.179-0.104-0.455-0.348-0.829-0.735c-0.41-0.423-0.607-0.704-0.591-0.844
			c0.037-0.308,0.237-0.426,0.599-0.353l0.089,0.011c-0.016,0.303,0.262,0.664,0.832,1.087c0.516,0.387,0.939,0.599,1.276,0.639
			c0.435,0.052,0.669-0.07,0.705-0.367c0.021-0.178-0.216-0.457-0.711-0.839c-0.681-0.513-1.138-0.914-1.375-1.203
			c-0.479-0.59-0.679-1.228-0.598-1.91c0.062-0.516,0.254-0.99,0.577-1.423c0.372-0.518,0.791-0.749,1.256-0.693
			c0.335,0.04,0.721,0.245,1.158,0.611c0.437,0.368,0.676,0.716,0.718,1.041c0.046,0.275,0.049,0.592,0.007,0.948
			c-0.047,0.385-0.166,0.797-0.359,1.234c-0.097,0.059-0.204,0.081-0.322,0.066c-0.069-0.008-0.175-0.048-0.316-0.12
			c-0.143-0.072-0.209-0.139-0.202-0.198c-0.004,0.04,0.062-0.062,0.201-0.306c0.1-0.158,0.176-0.46,0.229-0.904
			c0.127-1.058-0.142-1.626-0.804-1.705c-0.347-0.041-0.65,0.158-0.913,0.599c-0.223,0.355-0.357,0.726-0.403,1.113
			c-0.059,0.484,0.166,0.988,0.676,1.511c0.168,0.182,0.646,0.586,1.433,1.212C339.406,166.213,339.654,166.518,339.631,166.717z"/>
		<path fill="#FFFFFF" d="M296.585,182.867c-0.028,0.238-0.11,0.349-0.249,0.332c0.01,0.001-0.066-0.033-0.228-0.103
			c-0.238-0.108-0.52-0.183-0.847-0.222c-1.373-0.164-2.805-0.14-4.292,0.073c-0.021,0.007-0.206,0.045-0.556,0.114
			c-0.276,0.057-0.45,0.081-0.52,0.073c-0.386-0.046-0.556-0.248-0.513-0.604c0.02-0.168,0.124-0.336,0.314-0.504
			c0.339-0.23,0.847-0.585,1.526-1.064c0.95-0.668,1.84-1.479,2.666-2.432c1.021-1.171,1.584-2.19,1.688-3.06
			c0.055-0.455-0.057-0.852-0.331-1.19c-0.275-0.339-0.646-0.535-1.11-0.591c-0.483-0.059-1.013,0.076-1.588,0.402
			c-0.575,0.328-0.96,0.711-1.153,1.148c-0.074,0.292-0.153,0.583-0.239,0.873c-0.132,0.436-0.286,0.642-0.465,0.62
			c-0.068-0.008-0.173-0.083-0.312-0.224c-0.139-0.142-0.203-0.244-0.196-0.303c0.066-0.553,0.391-1.126,0.972-1.717
			c0.536-0.548,1.088-0.922,1.653-1.125c0.483-0.184,0.986-0.243,1.51-0.181c0.633,0.076,1.155,0.378,1.567,0.909
			c0.413,0.529,0.582,1.106,0.507,1.729c-0.118,0.988-0.723,2.019-1.812,3.09c-0.649,0.645-1.623,1.414-2.923,2.312
			c-0.274,0.197-0.461,0.335-0.561,0.413c-0.201,0.177-0.348,0.35-0.438,0.519c0.038,0.096,0.117,0.149,0.236,0.164l0.074-0.006
			l5.18-0.192c0.159,0.009,0.284,0.101,0.373,0.271C296.585,182.543,296.605,182.7,296.585,182.867z"/>
		<path fill="#FFFFFF" d="M298.509,183.504c-0.017,0.139-0.124,0.246-0.324,0.322c-0.157,0.061-0.315,0.082-0.474,0.063
			c-0.168-0.021-0.309-0.098-0.423-0.231s-0.162-0.279-0.143-0.438c0.04-0.335,0.232-0.483,0.578-0.441
			c0.197,0.023,0.383,0.104,0.558,0.239C298.455,183.154,298.531,183.317,298.509,183.504z"/>
		<path fill="#FFFFFF" d="M305.922,179.972c-0.086,0.051-0.279,0.077-0.58,0.081c-0.332,0-0.522,0.014-0.576,0.035
			c-0.022,0.109-0.093,0.657-0.211,1.645c-0.093,0.771-0.145,1.291-0.157,1.56c-0.013,0.108-0.01,0.284,0.012,0.527
			c0.021,0.242,0.024,0.429,0.009,0.557c-0.01,0.08-0.068,0.152-0.177,0.22s-0.203,0.097-0.281,0.088
			c-0.198-0.024-0.332-0.246-0.401-0.666c-0.044-0.305-0.049-0.592-0.018-0.858c0.167-1.393,0.29-2.42,0.369-3.082
			c-0.053-0.057-0.273-0.083-0.664-0.079c-0.313,0.002-0.454-0.13-0.422-0.396c0.045-0.375,0.466-0.501,1.264-0.375l0.513-2.659
			c0.004-0.029-0.003-0.078-0.02-0.146c-0.018-0.067-0.024-0.115-0.021-0.145c0.007-0.061,0.053-0.112,0.14-0.157
			c0.084-0.045,0.182-0.056,0.289-0.034c0.342,0.072,0.494,0.266,0.456,0.582c-0.029,0.247-0.108,0.613-0.236,1.1
			c-0.128,0.485-0.207,0.847-0.235,1.084c-0.015,0.119-0.019,0.233-0.011,0.344l0.819,0.053c0.276,0.033,0.402,0.16,0.376,0.377
			C306.14,179.783,306.062,179.898,305.922,179.972z"/>
		<path fill="#FFFFFF" d="M311.156,179.441c-0.134,0.424-0.263,0.851-0.388,1.276c-0.147,0.454-0.246,0.882-0.295,1.288
			l-0.555,4.639c-0.079,0.661-0.342,1.163-0.79,1.505c-0.447,0.343-1.005,0.474-1.677,0.394c-0.365-0.044-0.764-0.192-1.195-0.444
			c-0.497-0.279-0.825-0.594-0.983-0.943c-0.039-0.095-0.053-0.188-0.043-0.275c0.035-0.287,0.19-0.414,0.467-0.381
			c0.059,0.007,0.121,0.035,0.186,0.082c0.146,0.198,0.294,0.391,0.441,0.579c0.3,0.347,0.706,0.55,1.22,0.611
			c0.651,0.078,1.114-0.097,1.387-0.525c0.162-0.271,0.287-0.781,0.377-1.532c0.012-0.1,0.017-0.299,0.013-0.601
			c-0.011-0.252,0.006-0.47,0.049-0.654c-0.309,0.224-0.525,0.363-0.652,0.417c-0.233,0.112-0.479,0.153-0.736,0.123
			c-0.672-0.08-1.148-0.403-1.431-0.968c-0.253-0.492-0.337-1.088-0.253-1.789c0.16-1.334,0.314-2.458,0.464-3.372
			c0.076-0.312,0.269-0.449,0.575-0.413c0.375,0.045,0.536,0.13,0.48,0.254c-0.249,0.49-0.48,1.632-0.694,3.42
			c-0.166,1.383,0.144,2.121,0.931,2.215c0.48,0.058,0.909-0.268,1.283-0.974c0.284-0.548,0.457-1.113,0.517-1.697l0.202-1.688
			c0.03-0.168,0.068-0.379,0.113-0.635c0.045-0.254,0.22-0.354,0.524-0.297C311.043,179.127,311.198,179.256,311.156,179.441z"/>
		<path fill="#FFFFFF" d="M316.29,182.265c-0.117,0.979-0.358,1.782-0.725,2.41c-0.494,0.871-1.158,1.259-1.988,1.159
			c-0.543-0.064-0.986-0.375-1.331-0.926c-0.074,0.021-0.144,0.323-0.213,0.905c-0.154,1.285-0.199,2.201-0.135,2.75
			c0.004,0.051,0.037,0.175,0.099,0.373c0.062,0.197,0.09,0.317,0.085,0.356c-0.019,0.156-0.127,0.225-0.325,0.201
			c-0.237-0.028-0.398-0.083-0.483-0.164c-0.086-0.079-0.141-0.315-0.163-0.711c-0.021-0.332-0.02-0.593,0.003-0.781l0.45-3.764
			c0.041-0.346,0.114-0.809,0.221-1.386c0.116-0.678,0.193-1.14,0.231-1.386c0.042-0.266,0.083-0.612,0.125-1.038
			c0.064-0.543,0.106-0.894,0.125-1.052c0.082-0.682,0.301-1.001,0.657-0.959c0.177,0.021,0.259,0.097,0.243,0.225
			c-0.029,0.247-0.093,0.605-0.189,1.075s-0.158,0.822-0.187,1.06l0.06,0.008c0.263-0.278,0.527-0.563,0.793-0.854
			c0.309-0.312,0.66-0.447,1.056-0.399c0.661,0.079,1.124,0.436,1.39,1.068C316.308,180.944,316.375,181.554,316.29,182.265z
			 M315.542,182.236c0.062-0.523,0.062-0.98-0.001-1.369c-0.102-0.573-0.341-0.883-0.716-0.928c-0.276-0.032-0.643,0.17-1.095,0.606
			c-0.398,0.384-0.691,0.789-0.883,1.217c-0.148,0.323-0.297,0.807-0.444,1.449c-0.097,0.47-0.143,0.695-0.14,0.675
			c-0.004,0.03,0.033,0.086,0.114,0.164c0.054,0.047,0.107,0.1,0.16,0.155c0.131,0.246,0.263,0.495,0.397,0.746
			c0.135,0.253,0.364,0.397,0.688,0.436c0.542,0.065,1.003-0.33,1.385-1.187C315.28,183.592,315.458,182.938,315.542,182.236z"/>
		<path fill="#FFFFFF" d="M321.114,185.037c-0.053,0.435-0.39,0.791-1.016,1.065c-0.562,0.254-1.073,0.353-1.538,0.297
			c-1.323-0.158-1.885-1.077-1.684-2.757c0.089-0.74,0.317-1.521,0.686-2.338c0.488-1.063,1.009-1.562,1.562-1.496
			c0.474,0.057,0.963,0.358,1.47,0.905c0.505,0.546,0.729,1.057,0.673,1.53c-0.073,0.613-0.384,1.117-0.933,1.513
			c-0.548,0.395-1.134,0.556-1.755,0.48c-0.061-0.007-0.18-0.07-0.361-0.193c-0.181-0.122-0.306-0.187-0.375-0.194
			c-0.129-0.016-0.197,0.016-0.207,0.095c-0.136,1.136,0.172,1.749,0.924,1.839c0.385,0.047,0.755-0.04,1.112-0.258
			c0.215-0.124,0.46-0.33,0.735-0.618c0.217-0.225,0.356-0.333,0.415-0.326C321.051,184.608,321.147,184.761,321.114,185.037z
			 M320.418,182.188c0.041-0.347-0.019-0.681-0.181-1.007c-0.161-0.325-0.405-0.508-0.731-0.547
			c-0.396-0.047-0.746,0.162-1.053,0.627c-0.256,0.391-0.411,0.808-0.465,1.251c-0.034,0.287,0.029,0.537,0.188,0.753
			c0.161,0.214,0.384,0.339,0.67,0.373c0.405,0.049,0.762-0.085,1.07-0.398C320.2,182.954,320.368,182.604,320.418,182.188z"/>
		<path fill="#FFFFFF" d="M326.021,186.238c-0.042,0.346-0.339,0.607-0.891,0.782c-0.457,0.136-0.888,0.181-1.293,0.132
			c-0.267-0.032-0.566-0.134-0.896-0.305c-0.178-0.103-0.453-0.348-0.828-0.734c-0.411-0.423-0.607-0.705-0.59-0.844
			c0.036-0.308,0.235-0.426,0.599-0.353l0.088,0.011c-0.016,0.301,0.262,0.664,0.831,1.086c0.516,0.387,0.941,0.6,1.277,0.64
			c0.435,0.052,0.67-0.071,0.705-0.368c0.021-0.178-0.217-0.457-0.712-0.838c-0.679-0.513-1.138-0.915-1.374-1.204
			c-0.48-0.589-0.68-1.228-0.598-1.91c0.062-0.516,0.253-0.989,0.576-1.423c0.372-0.518,0.791-0.749,1.256-0.693
			c0.335,0.04,0.722,0.245,1.159,0.612c0.438,0.368,0.677,0.715,0.718,1.04c0.046,0.276,0.049,0.593,0.006,0.948
			c-0.046,0.385-0.164,0.797-0.357,1.235c-0.098,0.058-0.206,0.08-0.324,0.066c-0.069-0.009-0.174-0.049-0.316-0.121
			c-0.142-0.072-0.208-0.138-0.201-0.197c-0.005,0.04,0.062-0.062,0.202-0.307c0.099-0.157,0.175-0.459,0.229-0.904
			c0.126-1.057-0.142-1.625-0.804-1.704c-0.346-0.041-0.65,0.158-0.914,0.599c-0.223,0.355-0.356,0.726-0.403,1.112
			c-0.058,0.485,0.167,0.988,0.676,1.512c0.17,0.182,0.647,0.585,1.435,1.211C325.796,185.734,326.045,186.039,326.021,186.238z"/>
		<path fill="#FFFFFF" d="M295.117,201.166c-0.075,0.633-0.33,1.168-0.764,1.607c-1.041,1.078-2.337,1.524-3.888,1.339
			c-0.662-0.079-1.304-0.237-1.928-0.472c-0.315-0.128-0.64-0.361-0.968-0.702c-0.375-0.386-0.545-0.721-0.511-1.007
			c0.011-0.09,0.067-0.173,0.173-0.251c0.104-0.077,0.201-0.11,0.291-0.1c0.157,0.019,0.291,0.165,0.398,0.438
			c0.067,0.197,0.134,0.396,0.2,0.595c0.251,0.501,0.902,0.814,1.952,0.94c0.712,0.085,1.388,0.021,2.025-0.193
			c0.691-0.238,1.24-0.623,1.646-1.156c0.289-0.396,0.451-0.748,0.487-1.055c0.067-0.562-0.181-1.089-0.746-1.578
			c-0.512-0.42-1.065-0.668-1.659-0.739c-0.119-0.014-0.49,0.06-1.111,0.221c-0.623,0.161-1.116,0.22-1.483,0.177
			c-0.347-0.042-0.51-0.142-0.491-0.3c0.018-0.148,0.119-0.302,0.303-0.46c0.185-0.158,0.564-0.224,1.143-0.194
			c0.689,0.022,1.11,0.013,1.267-0.028c0.342-0.089,0.788-0.392,1.342-0.906c0.519-0.489,0.811-0.996,0.873-1.521
			c0.041-0.345-0.028-0.64-0.21-0.881c-0.182-0.243-0.446-0.384-0.791-0.426c-0.387-0.046-0.883,0.032-1.494,0.234
			c-0.61,0.203-1.058,0.438-1.34,0.704c-0.067,0.062-0.092,0.185-0.073,0.367c-0.199,0.156-0.404,0.317-0.614,0.483
			c-0.317,0.231-0.532,0.341-0.641,0.328c-0.09-0.011-0.186-0.062-0.289-0.154c-0.105-0.092-0.152-0.179-0.143-0.258
			c0.02-0.168,0.161-0.391,0.426-0.67c0.481-0.505,1.133-0.927,1.956-1.271c0.864-0.356,1.628-0.496,2.29-0.417
			c0.553,0.066,0.997,0.273,1.332,0.618c0.334,0.345,0.468,0.795,0.401,1.349c-0.057,0.475-0.289,0.952-0.698,1.435
			c-0.341,0.42-0.749,0.777-1.226,1.07c0.016,0.042,0.277,0.159,0.785,0.35c0.555,0.227,0.975,0.488,1.259,0.782
			C295.025,199.918,295.199,200.484,295.117,201.166z"/>
		<path fill="#FFFFFF" d="M296.726,204.44c-0.017,0.139-0.125,0.245-0.324,0.322c-0.157,0.061-0.315,0.082-0.474,0.062
			c-0.169-0.02-0.309-0.097-0.424-0.229c-0.114-0.135-0.161-0.28-0.143-0.438c0.04-0.336,0.233-0.484,0.579-0.442
			c0.197,0.023,0.383,0.104,0.558,0.24C296.672,204.09,296.748,204.253,296.726,204.44z"/>
		<path fill="#FFFFFF" d="M305.135,204.889c-0.041,0.346-0.338,0.607-0.89,0.782c-0.457,0.135-0.889,0.18-1.294,0.131
			c-0.267-0.032-0.565-0.133-0.896-0.304c-0.178-0.104-0.455-0.348-0.829-0.735c-0.411-0.423-0.607-0.704-0.591-0.844
			c0.037-0.308,0.237-0.425,0.599-0.353l0.088,0.011c-0.015,0.303,0.263,0.665,0.833,1.087c0.515,0.387,0.94,0.599,1.276,0.639
			c0.436,0.052,0.67-0.069,0.705-0.367c0.021-0.178-0.216-0.457-0.711-0.838c-0.681-0.514-1.138-0.915-1.374-1.204
			c-0.48-0.589-0.68-1.228-0.598-1.91c0.062-0.516,0.253-0.989,0.576-1.423c0.372-0.518,0.791-0.749,1.255-0.693
			c0.336,0.04,0.723,0.245,1.159,0.611c0.438,0.368,0.676,0.716,0.717,1.041c0.048,0.276,0.051,0.592,0.008,0.948
			c-0.046,0.385-0.166,0.797-0.358,1.234c-0.098,0.059-0.206,0.081-0.324,0.067c-0.068-0.009-0.174-0.049-0.315-0.121
			s-0.209-0.139-0.202-0.197c-0.005,0.039,0.062-0.062,0.202-0.307c0.099-0.158,0.175-0.46,0.228-0.904
			c0.127-1.058-0.14-1.626-0.802-1.705c-0.347-0.041-0.651,0.159-0.914,0.6c-0.223,0.354-0.357,0.726-0.403,1.112
			c-0.059,0.484,0.167,0.988,0.675,1.511c0.169,0.182,0.647,0.586,1.434,1.212C304.91,204.384,305.159,204.689,305.135,204.889z"/>
		<path fill="#FFFFFF" d="M310.653,202.739c-0.117,0.979-0.359,1.782-0.725,2.41c-0.495,0.871-1.158,1.259-1.988,1.159
			c-0.543-0.064-0.986-0.373-1.331-0.925c-0.074,0.02-0.144,0.322-0.214,0.905c-0.153,1.285-0.199,2.201-0.134,2.75
			c0.004,0.051,0.037,0.175,0.098,0.372c0.061,0.198,0.09,0.317,0.086,0.356c-0.02,0.158-0.127,0.225-0.325,0.201
			c-0.237-0.028-0.398-0.083-0.484-0.163c-0.085-0.08-0.14-0.316-0.162-0.711c-0.021-0.333-0.021-0.594,0.002-0.781l0.451-3.765
			c0.041-0.345,0.114-0.807,0.22-1.386c0.117-0.678,0.194-1.139,0.232-1.386c0.041-0.266,0.082-0.611,0.124-1.037
			c0.065-0.543,0.107-0.894,0.126-1.052c0.082-0.682,0.3-1.002,0.656-0.96c0.177,0.021,0.26,0.098,0.244,0.226
			c-0.029,0.247-0.094,0.604-0.189,1.075c-0.097,0.469-0.158,0.822-0.188,1.059l0.061,0.008c0.263-0.278,0.527-0.562,0.793-0.853
			c0.308-0.313,0.66-0.446,1.055-0.399c0.662,0.079,1.125,0.436,1.391,1.067C310.67,201.42,310.738,202.028,310.653,202.739z
			 M309.904,202.711c0.062-0.523,0.063-0.979,0-1.367c-0.103-0.574-0.342-0.883-0.718-0.928c-0.276-0.033-0.641,0.168-1.094,0.604
			c-0.397,0.384-0.69,0.789-0.883,1.218c-0.148,0.322-0.296,0.807-0.443,1.449c-0.097,0.471-0.143,0.695-0.141,0.675
			c-0.003,0.03,0.034,0.085,0.115,0.164c0.053,0.048,0.107,0.099,0.16,0.155c0.131,0.245,0.263,0.495,0.396,0.746
			c0.136,0.252,0.365,0.396,0.688,0.435c0.541,0.065,1.002-0.329,1.384-1.187C309.644,204.067,309.82,203.412,309.904,202.711z"/>
		<path fill="#FFFFFF" d="M315.176,207.4c-0.017,0.138-0.133,0.194-0.35,0.168c-0.238-0.028-0.369-0.144-0.395-0.348
			c-0.007-0.031,0.012-0.224,0.055-0.58c0.012-0.098,0.005-0.179-0.017-0.242c-0.603,0.339-1.224,0.471-1.867,0.395
			c-0.443-0.054-0.858-0.229-1.243-0.527c-0.441-0.333-0.638-0.706-0.588-1.121c0.048-0.405,0.377-0.767,0.986-1.084
			c0.557-0.295,1.052-0.415,1.485-0.363l1.469,0.176c0.066-0.053,0.107-0.152,0.126-0.301c0.079-0.662,0.084-1.168,0.016-1.517
			c-0.109-0.585-0.428-0.908-0.951-0.971c-0.375-0.045-0.75,0.149-1.123,0.588c-0.337,0.4-0.53,0.798-0.577,1.192
			c-0.003,0.02-0.006,0.049-0.011,0.089s-0.008,0.064-0.009,0.073c-0.01,0.08-0.055,0.115-0.134,0.106
			c-0.099-0.013-0.199-0.085-0.305-0.218c-0.104-0.133-0.151-0.244-0.141-0.333c0.033-0.276,0.159-0.614,0.377-1.014
			c0.219-0.4,0.439-0.697,0.662-0.891c0.28-0.237,0.602-0.334,0.969-0.29c0.562,0.067,1.061,0.307,1.491,0.72
			c0.458,0.445,0.659,0.94,0.604,1.485L315.176,207.4z M314.673,204.95c0.047-0.395-0.236-0.63-0.848-0.703
			c-0.485-0.058-0.92-0.025-1.306,0.1c-0.49,0.162-0.761,0.46-0.812,0.895c-0.032,0.267,0.066,0.489,0.295,0.667
			c0.193,0.154,0.433,0.247,0.719,0.281c0.425,0.051,0.845-0.04,1.258-0.271C314.391,205.688,314.623,205.365,314.673,204.95z"/>
		<path fill="#FFFFFF" d="M320.524,208.041c-0.017,0.138-0.134,0.193-0.351,0.168c-0.236-0.028-0.368-0.145-0.394-0.348
			c-0.007-0.031,0.012-0.225,0.055-0.581c0.012-0.098,0.005-0.179-0.017-0.241c-0.603,0.339-1.224,0.471-1.867,0.394
			c-0.444-0.054-0.858-0.229-1.243-0.526c-0.441-0.333-0.638-0.706-0.588-1.121c0.048-0.405,0.377-0.768,0.986-1.085
			c0.557-0.295,1.051-0.415,1.485-0.362l1.469,0.176c0.066-0.053,0.107-0.153,0.126-0.302c0.079-0.662,0.084-1.167,0.016-1.517
			c-0.11-0.584-0.427-0.907-0.95-0.971c-0.375-0.045-0.75,0.15-1.124,0.588c-0.338,0.4-0.53,0.799-0.577,1.193
			c-0.003,0.02-0.006,0.049-0.011,0.089s-0.008,0.064-0.009,0.073c-0.01,0.08-0.055,0.115-0.134,0.105
			c-0.099-0.012-0.2-0.084-0.305-0.218c-0.104-0.132-0.151-0.244-0.141-0.333c0.033-0.276,0.158-0.613,0.377-1.014
			c0.219-0.399,0.439-0.697,0.662-0.891c0.279-0.236,0.603-0.334,0.968-0.29c0.562,0.067,1.062,0.308,1.492,0.721
			c0.457,0.444,0.659,0.94,0.603,1.484L320.524,208.041z M320.021,205.59c0.047-0.395-0.236-0.629-0.848-0.702
			c-0.485-0.059-0.92-0.026-1.306,0.099c-0.49,0.163-0.761,0.46-0.812,0.895c-0.032,0.267,0.065,0.489,0.295,0.668
			c0.192,0.153,0.433,0.246,0.719,0.28c0.425,0.051,0.845-0.039,1.258-0.271C319.739,206.328,319.972,206.005,320.021,205.59z"/>
		<path fill="#FFFFFF" d="M325.875,208.681c-0.017,0.138-0.133,0.194-0.352,0.168c-0.236-0.028-0.367-0.144-0.393-0.347
			c-0.007-0.031,0.012-0.225,0.055-0.581c0.012-0.098,0.005-0.179-0.017-0.241c-0.603,0.339-1.225,0.47-1.867,0.394
			c-0.444-0.054-0.858-0.229-1.243-0.526c-0.441-0.333-0.638-0.707-0.588-1.121c0.048-0.406,0.377-0.768,0.986-1.085
			c0.557-0.295,1.051-0.415,1.485-0.363l1.468,0.176c0.067-0.052,0.108-0.152,0.127-0.301c0.079-0.662,0.084-1.168,0.016-1.517
			c-0.11-0.585-0.428-0.908-0.951-0.971c-0.375-0.045-0.75,0.15-1.123,0.588c-0.338,0.4-0.531,0.798-0.578,1.192
			c-0.003,0.02-0.006,0.049-0.011,0.089s-0.008,0.064-0.009,0.073c-0.01,0.08-0.054,0.116-0.133,0.106
			c-0.099-0.012-0.199-0.085-0.305-0.218c-0.104-0.133-0.151-0.244-0.141-0.333c0.033-0.276,0.158-0.614,0.377-1.014
			c0.219-0.4,0.439-0.697,0.662-0.891c0.279-0.237,0.602-0.334,0.967-0.29c0.564,0.067,1.062,0.307,1.493,0.72
			c0.457,0.445,0.658,0.941,0.603,1.485L325.875,208.681z M325.372,206.23c0.047-0.395-0.236-0.629-0.848-0.703
			c-0.485-0.058-0.92-0.025-1.306,0.1c-0.49,0.162-0.761,0.46-0.812,0.895c-0.032,0.267,0.066,0.489,0.295,0.667
			c0.193,0.154,0.433,0.247,0.719,0.281c0.425,0.051,0.845-0.039,1.258-0.271C325.09,206.969,325.322,206.646,325.372,206.23z"/>
		<path fill="#FFFFFF" d="M331.652,207.376c-0.028,0.238-0.27,0.536-0.723,0.89s-0.813,0.551-1.078,0.59
			c-0.358,0.067-0.652,0.088-0.879,0.061c-0.722-0.086-1.243-0.415-1.565-0.986c-0.301-0.507-0.405-1.133-0.316-1.876
			c0.091-0.762,0.355-1.594,0.794-2.495c0.545-1.119,1.119-1.645,1.722-1.572c0.287,0.035,0.649,0.222,1.091,0.56
			c0.439,0.338,0.674,0.64,0.704,0.903c0.031,0.315,0.03,0.621-0.005,0.916c-0.13,1.087-0.359,1.611-0.685,1.572
			c-0.079-0.01-0.169-0.05-0.271-0.123c-0.103-0.071-0.147-0.146-0.138-0.226c0.004-0.04,0.03-0.09,0.077-0.149
			s0.077-0.098,0.089-0.117c0.056-0.123,0.109-0.418,0.165-0.883c0.131-1.097-0.049-1.674-0.543-1.733
			c-0.543-0.064-1.049,0.383-1.513,1.342c-0.351,0.742-0.567,1.459-0.65,2.152c-0.063,0.535-0.032,0.991,0.093,1.368
			c0.171,0.492,0.494,0.767,0.969,0.824c0.287,0.034,0.64-0.075,1.062-0.328c0.378-0.228,0.669-0.48,0.872-0.76
			c0.052-0.095,0.127-0.227,0.229-0.396c0.058-0.064,0.131-0.09,0.22-0.079c0.06,0.007,0.123,0.082,0.19,0.227
			C331.631,207.199,331.661,207.306,331.652,207.376z"/>
		<path fill="#FFFFFF" d="M336.726,208.055c-0.052,0.435-0.39,0.791-1.014,1.066c-0.562,0.253-1.074,0.352-1.538,0.297
			c-1.324-0.159-1.886-1.078-1.685-2.757c0.088-0.741,0.317-1.52,0.686-2.339c0.489-1.063,1.008-1.562,1.562-1.496
			c0.475,0.057,0.965,0.359,1.471,0.905c0.506,0.547,0.73,1.058,0.674,1.532c-0.073,0.611-0.385,1.115-0.933,1.512
			c-0.549,0.395-1.135,0.556-1.757,0.48c-0.06-0.007-0.179-0.071-0.36-0.193c-0.181-0.121-0.306-0.188-0.374-0.195
			c-0.129-0.016-0.198,0.017-0.208,0.095c-0.136,1.137,0.172,1.75,0.923,1.841c0.385,0.046,0.757-0.041,1.113-0.259
			c0.216-0.124,0.46-0.331,0.736-0.618c0.216-0.225,0.354-0.334,0.414-0.326C336.662,207.626,336.759,207.778,336.726,208.055z
			 M336.031,205.206c0.041-0.346-0.02-0.681-0.182-1.006s-0.405-0.508-0.73-0.547c-0.396-0.047-0.746,0.162-1.053,0.626
			c-0.257,0.391-0.411,0.808-0.465,1.252c-0.034,0.287,0.028,0.537,0.188,0.753c0.16,0.213,0.384,0.338,0.67,0.372
			c0.405,0.049,0.762-0.084,1.07-0.397C335.813,205.973,335.981,205.621,336.031,205.206z"/>
		<path fill="#FFFFFF" d="M339.292,208.979c-0.082,0.682-0.503,0.976-1.264,0.885c-0.139-0.017-0.39-0.137-0.754-0.36
			c-0.062-0.158-0.081-0.325-0.06-0.503c0.036-0.297,0.143-0.484,0.322-0.563c0.129-0.064,0.341-0.079,0.637-0.044
			C338.954,208.487,339.327,208.683,339.292,208.979z M340.807,200.216c-0.069,0.072-0.158,0.196-0.271,0.373
			c-0.565,1.376-0.999,2.908-1.301,4.595c-0.008,0.06-0.033,0.164-0.075,0.314c-0.044,0.15-0.07,0.27-0.081,0.358
			c-0.014,0.118,0.02,0.504,0.103,1.155c-0.045,0.035-0.121,0.086-0.229,0.152c-0.041,0.006-0.115,0.002-0.224-0.012
			c-0.139-0.017-0.244-0.049-0.318-0.099c-0.075-0.209-0.083-0.57-0.021-1.084l0.019-0.148l1.047-5.105
			c0.004-0.039-0.011-0.164-0.045-0.374c-0.036-0.209-0.057-0.325-0.064-0.346c0.251-0.171,0.515-0.239,0.791-0.206
			C340.383,199.819,340.605,199.961,340.807,200.216z"/>
		<path fill="#FFFFFF" d="M342.389,209.35c-0.082,0.682-0.503,0.977-1.263,0.885c-0.139-0.017-0.39-0.137-0.754-0.36
			c-0.062-0.158-0.082-0.325-0.061-0.503c0.036-0.297,0.144-0.483,0.323-0.563c0.129-0.063,0.34-0.079,0.636-0.043
			C342.051,208.857,342.424,209.053,342.389,209.35z M343.904,200.586c-0.069,0.072-0.16,0.197-0.271,0.373
			c-0.565,1.377-1,2.908-1.302,4.595c-0.008,0.06-0.033,0.165-0.076,0.315c-0.042,0.15-0.068,0.269-0.079,0.357
			c-0.014,0.118,0.019,0.505,0.102,1.155c-0.045,0.036-0.12,0.086-0.229,0.153c-0.04,0.005-0.115,0.001-0.224-0.012
			c-0.139-0.017-0.244-0.05-0.318-0.099c-0.075-0.209-0.082-0.57-0.021-1.084l0.019-0.148l1.046-5.106
			c0.004-0.039-0.01-0.163-0.045-0.374c-0.036-0.209-0.056-0.324-0.063-0.345c0.25-0.172,0.514-0.24,0.79-0.207
			C343.479,200.19,343.703,200.332,343.904,200.586z"/>
		<path fill="#FFFFFF" d="M345.486,209.721c-0.082,0.682-0.503,0.976-1.264,0.885c-0.139-0.017-0.39-0.137-0.754-0.36
			c-0.062-0.158-0.081-0.325-0.06-0.503c0.036-0.297,0.143-0.484,0.322-0.563c0.129-0.063,0.341-0.079,0.636-0.044
			C345.148,209.229,345.521,209.424,345.486,209.721z M347,200.957c-0.068,0.072-0.158,0.197-0.27,0.373
			c-0.565,1.376-0.999,2.908-1.302,4.595c-0.008,0.06-0.032,0.164-0.075,0.314s-0.069,0.27-0.08,0.358
			c-0.014,0.118,0.019,0.504,0.102,1.155c-0.044,0.035-0.12,0.086-0.229,0.153c-0.041,0.005-0.115,0-0.225-0.013
			c-0.139-0.017-0.244-0.049-0.317-0.099c-0.075-0.209-0.083-0.57-0.021-1.084l0.019-0.148l1.047-5.105
			c0.004-0.039-0.011-0.164-0.046-0.374c-0.035-0.209-0.056-0.325-0.063-0.346c0.25-0.171,0.515-0.239,0.791-0.206
			C346.577,200.561,346.8,200.702,347,200.957z"/>
	</g>
	<g>
		<path fill="#FFFFFF" d="M365.31,258.607l-13.183,10.67l-2.477,2.005c-0.327,0.265-0.739,0.374-1.121,0.31
			c-0.383-0.064-0.736-0.302-0.961-0.659l-1.686-2.703l-4.488-7.193c-0.223-0.358-0.304-0.816-0.231-1.249
			c0.073-0.433,0.299-0.84,0.627-1.105l2.476-2.004c0.328-0.266,0.738-0.374,1.121-0.31c0.383,0.063,0.736,0.301,0.96,0.659
			l3.644,5.859l11.947-9.686c0.327-0.265,0.738-0.373,1.122-0.31c0.382,0.064,0.735,0.302,0.958,0.659l1.687,2.703
			c0.224,0.358,0.304,0.815,0.231,1.249C365.863,257.935,365.637,258.342,365.31,258.607z"/>
	</g>
	<g>
		<path fill="none" stroke="#FFFFFF" stroke-width="3" stroke-miterlimit="10" d="M191.649,315.025c0,0,10.397,19.758-13.673,35.953
			"/>
		
			<line fill="none" stroke="#FFFFFF" stroke-width="3" stroke-miterlimit="10" x1="190.037" y1="312.939" x2="185.037" y2="324.506"/>
		
			<line fill="none" stroke="#FFFFFF" stroke-width="3" stroke-miterlimit="10" x1="203.037" y1="319.879" x2="190.037" y2="312.939"/>
	</g>
	<path fill="#FFFFFF" d="M297.41,238.09l0.376-0.206c0,0,24.798,0.955,26.375-2.293c0.498,0.062,0.498,0.062,0.498,0.062
		s-0.971,7.753-1.185,9.465c-1.039,1.482-6.294,2.289-13.164,2.588c-6.185,0.269-10.278,0.127-14.156,0.409L297.41,238.09z"/>
	<path fill="#FFFFFF" d="M320.297,271.695c-1.041,1.482-6.293,2.289-13.163,2.59c-6.185,0.268-10.28,0.125-14.155,0.408
		l1.257-10.025l0.372-0.207c0,0,25.314,0.938,26.925-2.623C321.257,264.029,320.511,269.982,320.297,271.695z"/>
	<path fill="#FFFFFF" d="M321.959,258.42c-1.04,1.482-6.291,2.289-13.162,2.588c-6.187,0.27-10.279,0.125-14.155,0.408l1.256-10.023
		l0.374-0.207c0,0,25.313,0.938,26.923-2.624C322.92,250.753,322.175,256.707,321.959,258.42z"/>
</g>
</svg>
