<?xml version="1.0" encoding="utf-8"?>
<!-- Generator: Adobe Illustrator 15.1.0, SVG Export Plug-In . SVG Version: 6.00 Build 0)  -->
<!DOCTYPE svg PUBLIC "-//W3C//DTD SVG 1.1//EN" "http://www.w3.org/Graphics/SVG/1.1/DTD/svg11.dtd">
<svg version="1.1" id="Layer_1" xmlns="http://www.w3.org/2000/svg" xmlns:xlink="http://www.w3.org/1999/xlink" x="0px" y="0px"
	 width="500px" height="500px" viewBox="0 0 500 500" enable-background="new 0 0 500 500" xml:space="preserve">
<g>
	<circle fill="#042742" cx="258.702" cy="246.936" r="145"/>
	<g>
		<path fill="#EF424F" d="M226.95,279.977l0.267-0.266c0,0-0.122-0.036-0.354-0.095c-0.059-0.231-0.096-0.354-0.096-0.354
			l-0.266,0.268c-5.001-1.161-35.644-6.326-66.769,32.039c-34.026,41.943-20.745,25.918-20.745,25.918s2.87,7.662,6.453,11.814
			c3.37,3.904,4.54,6.726,4.667,7.047l-0.01,0.011c0,0,0.011,0.004,0.016,0.006c0.002,0.005,0.006,0.017,0.006,0.017l0.01-0.01
			c0.322,0.127,3.143,1.297,7.048,4.667c4.152,3.583,11.814,6.453,11.814,6.453s-16.025,13.281,25.917-20.745
			C233.276,315.621,228.111,284.979,226.95,279.977z"/>
		<polygon fill="#F69F37" points="131.715,349.555 84.443,422.063 144.587,361.92 		"/>
		<polygon fill="#F7B74A" points="156.611,374.451 84.102,421.723 144.246,361.578 		"/>
		
			<rect x="125.968" y="348.006" transform="matrix(0.7071 0.7071 -0.7071 0.7071 294.9291 -0.2591)" fill="#CF3743" width="43.62" height="15.751"/>
		
			<rect x="154.531" y="360.658" transform="matrix(0.7071 0.7071 -0.7071 0.7071 307.5706 -5.5044)" fill="#EF424F" width="11.799" height="15.752"/>
		<polygon fill="#BE5354" points="174.099,388.127 176.224,361.599 158.9,375.717 141.283,405.226 		"/>
		<rect x="123.389" y="360.475" transform="matrix(0.7071 0.7071 -0.7071 0.7071 297.9549 4.0154)" width="41.483" height="2.4"/>
		<polygon fill="#972A2B" points="118.608,332.635 145.136,330.51 131.018,347.834 101.509,365.452 		"/>
		<path fill="#CF3743" d="M158.827,361.285c47.14-35.168,63.496-70.419,67.923-82.227c-6.693-1.346-36.153-4.676-66.062,32.191
			c-34.026,41.943-20.745,25.918-20.745,25.918s2.87,7.662,6.453,11.814c3.37,3.904,4.54,6.726,4.667,7.048l-0.01,0.01
			c0,0,0.011,0.004,0.016,0.006c0.002,0.005,0.006,0.017,0.006,0.017l0.01-0.01c0.322,0.127,3.143,1.297,7.048,4.667
			C158.354,360.91,158.587,361.1,158.827,361.285z"/>
		<path fill="#B54042" d="M200.404,281.239c2.495,4.694,6.127,9.608,10.718,14.198c4.561,4.561,9.441,8.177,14.108,10.67
			c4.485-13.649,2.702-23.791,2.077-26.486l0.267-0.266c0,0-0.122-0.037-0.354-0.096c-0.059-0.231-0.096-0.354-0.096-0.354
			l-0.266,0.267C224.165,278.549,214.037,276.767,200.404,281.239z"/>
		<path fill="#972A2B" d="M227.355,279.142c-1.007-0.227-2.886-0.575-5.479-0.746c-4.91-0.261-12.139,0.148-20.726,3.042
			c2.491,4.634,6.081,9.474,10.606,14c1.687,1.687,3.418,3.242,5.165,4.662C222.555,290.801,225.736,283.445,227.355,279.142z"/>
		<circle fill="#27AAE1" cx="192.028" cy="314.69" r="17.101"/>
		<circle fill="#AADAD1" cx="192.028" cy="314.69" r="14.626"/>
	</g>
	<g>
		
			<ellipse transform="matrix(-0.9904 0.1385 -0.1385 -0.9904 269.1118 321.9248)" fill="#F07F5E" cx="123.356" cy="170.325" rx="58.433" ry="58.942"/>
		<path opacity="0.17" d="M93.99,221.051c-6.731-8.131-11.369-18.163-12.938-29.384c-4.508-32.239,17.972-62.028,50.211-66.537
			c13.708-1.917,26.966,1.06,38.034,7.578c-12.609-15.229-32.581-23.768-53.6-20.828c-32.239,4.509-54.719,34.298-50.211,66.537
			C68.078,196.947,79.03,212.24,93.99,221.051z"/>
		<path fill="#82C1C4" d="M22.53,200.029c2.449,7.54,23.866,7.872,53.779,2.121c-1.128-1.407-2.201-2.865-3.201-4.379
			c-16.855,2.183-28.273,1.098-29.841-3.73c-2.915-8.977,29.313-27.488,71.985-41.347s79.627-17.815,82.542-8.839
			c1.373,4.228-5.05,10.569-16.684,17.543c0.133,1.971,0.168,3.928,0.107,5.867c24.484-12.054,39.315-23.748,37.025-30.799
			c-3.692-11.369-50.497-6.356-104.542,11.195C59.656,165.214,18.837,188.66,22.53,200.029z"/>
		<path opacity="0.34" fill="#414042" d="M22.53,200.029c2.449,7.54,23.866,7.872,53.779,2.121
			c-1.128-1.407-2.201-2.865-3.201-4.379c-16.855,2.183-28.273,1.098-29.841-3.73c-1.79-5.512,9.676-14.621,28.672-24.039
			c-0.253-2.193-0.217-4.39,0.101-6.576C40.261,177.416,19.873,191.849,22.53,200.029z"/>
	</g>
	<path fill="#AADAD1" d="M374.074,270.75c-32.271,0-58.434,26.389-58.434,58.941c0,16.555,6.775,31.505,17.669,42.212
		c10.323-6.091,20.055-13.569,28.923-22.437c20.465-20.465,33.527-45.524,39.201-71.857
		C393.27,273.236,383.961,270.75,374.074,270.75z"/>
	<polygon fill="#F7EBD6" points="379.621,248.75 375.49,243.383 368.729,243.742 372.557,238.156 370.125,231.836 376.621,233.75 
		381.881,229.484 382.066,236.254 387.749,239.938 381.369,242.207 	"/>
	<polygon fill="#F7EBD6" points="207.537,222.645 203.904,221.711 201.076,224.176 200.84,220.432 197.623,218.504 201.11,217.123 
		201.95,213.468 204.341,216.357 208.077,216.026 206.067,219.193 	"/>
	<path fill="#F7EBD6" d="M314.567,382.013l-1.946-1.263l-0.188-6.77l-5.26,4.266l-6.495-1.914l2.431,6.32l-3.281,4.788
		C304.815,385.904,309.737,384.1,314.567,382.013z"/>
	<polygon fill="#F7EBD6" points="297.33,139.742 307.258,137.944 297.326,136.232 295.427,125.741 293.617,136.24 283.688,138.037 
		293.621,139.75 295.52,150.241 	"/>
	<polygon fill="#F7EBD6" points="264.269,231.178 268.118,230.481 264.268,229.817 263.53,225.749 262.828,229.82 258.979,230.518 
		262.83,231.182 263.566,235.249 	"/>
	<polygon fill="#F7EBD6" points="348.621,193.75 352.471,193.053 348.619,192.389 347.883,188.321 347.181,192.393 343.331,193.089 
		347.182,193.753 347.918,197.821 	"/>
	<polygon fill="#F7EBD6" points="261.621,349.75 265.471,349.053 261.619,348.389 260.883,344.321 260.181,348.393 256.331,349.089 
		260.182,349.753 260.918,353.821 	"/>
	<polygon fill="#F7EBD6" points="240.061,165.107 243.91,164.411 240.059,163.747 239.322,159.679 238.621,163.75 234.771,164.447 
		238.622,165.111 239.358,169.179 	"/>
	<polygon fill="#F7EBD6" points="140.621,277.75 144.47,277.053 140.619,276.389 139.883,272.321 139.181,276.393 135.331,277.089 
		139.182,277.753 139.918,281.821 	"/>
	<path opacity="0.14" d="M391.43,307.588c4.45-9.672,7.795-19.726,10.004-29.979c-8.164-4.373-17.473-6.859-27.359-6.859
		c-0.299,0-0.592,0.018-0.889,0.022C382.438,280.868,388.906,293.541,391.43,307.588z"/>
	<circle fill="#82C1C4" cx="336.621" cy="315.75" r="9"/>
	<circle fill="#82C1C4" cx="369.621" cy="309.75" r="6"/>
	<circle fill="#82C1C4" cx="384.621" cy="286.75" r="9.75"/>
	<path fill="#5FA3A2" d="M389.271,295.787c3.574-1.446,6.1-4.944,6.1-9.037c0-5.385-4.365-9.75-9.75-9.75
		c-1.928,0-3.721,0.567-5.234,1.533C384.064,283.821,387.062,289.615,389.271,295.787z"/>
	<path fill="#82C1C4" d="M368.573,341.365c-1.081-1.578-2.896-2.615-4.952-2.615c-3.314,0-6,2.687-6,6
		c0,2.251,1.24,4.209,3.074,5.236C363.461,347.195,366.081,344.316,368.573,341.365z"/>
	<path fill="#82C1C4" d="M350.621,283.75c3.312,0,6-2.687,6-6c0-1.422-0.498-2.725-1.323-3.753
		c-3.671,1.488-7.157,3.335-10.415,5.509C345.635,281.963,347.918,283.75,350.621,283.75z"/>
	<path fill="#82C1C4" d="M322.621,339.75c-1.872,0-3.654,0.374-5.287,1.04c1.475,9.584,5.253,18.394,10.726,25.864
		c5.03-2.123,8.562-7.102,8.562-12.904C336.621,346.018,330.353,339.75,322.621,339.75z"/>
</g>
</svg>
