<?xml version="1.0" encoding="utf-8"?>
<!-- Generator: Adobe Illustrator 15.1.0, SVG Export Plug-In . SVG Version: 6.00 Build 0)  -->
<!DOCTYPE svg PUBLIC "-//W3C//DTD SVG 1.1//EN" "http://www.w3.org/Graphics/SVG/1.1/DTD/svg11.dtd">
<svg version="1.1" id="Layer_1" xmlns="http://www.w3.org/2000/svg" xmlns:xlink="http://www.w3.org/1999/xlink" x="0px" y="0px"
	 width="320px" height="160px" viewBox="0 0 320 160" enable-background="new 0 0 320 160" xml:space="preserve">
<g>
	<path fill="#EF6A50" d="M219.857,27.296c2.258,0,4.222,0.786,5.891,2.356c1.62,1.719,2.43,3.731,2.43,6.038
		c0,2.356-0.81,4.344-2.43,5.964c-1.669,1.669-3.633,2.503-5.891,2.503c-2.356,0-4.37-0.834-6.038-2.503
		c-1.669-1.571-2.503-3.559-2.503-5.964c0-2.356,0.834-4.369,2.503-6.038C215.487,28.082,217.501,27.296,219.857,27.296z
		 M213.378,56.971h12.665v76.579h-12.665V56.971z"/>
	<path fill="#EF6A50" d="M280.9,55.277c2.404,0,4.908,0.184,7.511,0.553c2.602,0.368,5.154,1.067,7.658,2.098
		c2.503,1.081,4.871,2.541,7.105,4.381c2.233,1.841,4.209,4.234,5.928,7.179c1.717,2.995,3.067,6.59,4.05,10.788
		c0.981,4.198,1.473,9.193,1.473,14.984c0,5.793-0.491,10.788-1.473,14.985c-0.982,4.197-2.333,7.769-4.05,10.714
		c-1.719,2.995-3.694,5.425-5.928,7.289c-2.234,1.867-4.603,3.314-7.105,4.345c-2.504,1.079-5.057,1.805-7.658,2.172
		c-2.603,0.369-5.106,0.553-7.511,0.553c-2.356,0-4.823-0.184-7.4-0.553c-2.577-0.367-5.117-1.093-7.621-2.172
		c-2.504-1.03-4.86-2.478-7.069-4.345c-2.208-1.864-4.173-4.294-5.891-7.289c-1.719-2.945-3.068-6.517-4.05-10.714
		c-0.982-4.197-1.473-9.192-1.473-14.985c0-5.791,0.49-10.786,1.473-14.984c0.981-4.197,2.331-7.792,4.05-10.788
		c1.718-2.945,3.683-5.338,5.891-7.179c2.209-1.841,4.565-3.301,7.069-4.381c2.504-1.031,5.031-1.73,7.584-2.098
		C276.016,55.461,278.495,55.277,280.9,55.277z M280.9,65.66c-2.798,0-5.438,0.442-7.916,1.325c-2.479,0.884-4.651,2.43-6.517,4.639
		c-1.914,2.258-3.437,5.277-4.565,9.057c-1.13,3.781-1.693,8.641-1.693,14.579c0,5.892,0.563,10.74,1.693,14.543
		c1.129,3.806,2.651,6.812,4.565,9.021c1.865,2.259,4.037,3.817,6.517,4.676c2.479,0.86,5.118,1.289,7.916,1.289
		c2.847,0,5.534-0.429,8.062-1.289c2.528-0.858,4.75-2.417,6.664-4.676c1.914-2.209,3.424-5.215,4.528-9.021
		c1.105-3.803,1.657-8.651,1.657-14.543c0-5.938-0.552-10.798-1.657-14.579c-1.104-3.779-2.614-6.798-4.528-9.057
		c-1.914-2.209-4.136-3.755-6.664-4.639C286.435,66.102,283.747,65.66,280.9,65.66z"/>
</g>
<g>
	<path fill="#EF6A50" d="M179.706,126.408c-1.186,15.662-16.38,29.76-33.094,30.803c-35.593,2.024-71.187,2.024-106.78,0
		c-16.716-1.043-31.911-15.141-33.097-30.803c-2.144-30.952-2.144-61.905,0-92.857C7.922,17.889,23.117,3.791,39.833,2.748
		c35.593-2.025,71.187-2.025,106.78,0c16.715,1.043,31.908,15.142,33.094,30.803C181.85,64.503,181.85,95.456,179.706,126.408z
		 M42.696,125.94c18.278,0.548,36.555,0.798,54.833,0.751c0.011-3.527,0.021-7.055,0.029-10.582
		c-18.403,0.036-36.805-0.158-55.208-0.582C42.451,118.999,42.566,122.47,42.696,125.94z M126.231,112.677
		c-0.835,0.834-1.49,1.798-1.965,2.892c-0.478,1.095-0.726,2.248-0.749,3.457c-0.022,1.209,0.183,2.345,0.618,3.399
		c0.433,1.057,1.047,1.989,1.842,2.795c0.795,0.807,1.711,1.427,2.752,1.863c1.039,0.436,2.156,0.64,3.351,0.61
		c1.194-0.028,2.337-0.285,3.427-0.77c1.091-0.484,2.055-1.146,2.897-1.983c1.73-1.726,2.64-3.81,2.712-6.255
		c0.074-2.493-0.713-4.56-2.363-6.211c-0.802-0.8-1.741-1.409-2.819-1.824c-1.077-0.414-2.222-0.614-3.429-0.596
		C130.041,110.092,127.948,110.963,126.231,112.677z"/>
</g>
</svg>
