<?xml version="1.0" encoding="utf-8"?>
<!-- Generator: Adobe Illustrator 15.1.0, SVG Export Plug-In . SVG Version: 6.00 Build 0)  -->
<!DOCTYPE svg PUBLIC "-//W3C//DTD SVG 1.1//EN" "http://www.w3.org/Graphics/SVG/1.1/DTD/svg11.dtd">
<svg version="1.1" id="Layer_1" xmlns="http://www.w3.org/2000/svg" xmlns:xlink="http://www.w3.org/1999/xlink" x="0px" y="0px"
	 width="192px" height="192px" viewBox="0 0 192 192" enable-background="new 0 0 192 192" xml:space="preserve">
<ellipse fill="#8EC4C8" cx="96" cy="96" rx="96" ry="92"/>
<g>
	<g>
		<path fill="#FFFFFF" d="M107.434,99.14v-0.003c-0.007,0.002-0.015,0.002-0.021,0.002c-0.008,0-0.015,0-0.023-0.002v0.003
			c-28.417,0.667-58.701,17.705-48.571,36.881c8.374,15.85,26.999,17.383,48.571,18.035v0.002c0.009-0.002,0.016-0.002,0.023-0.002
			c0.007,0,0.015,0,0.021,0.002v-0.002c21.574-0.652,40.2-2.186,48.572-18.035C166.137,116.845,135.851,99.807,107.434,99.14z"/>
		<rect x="92.023" y="94.448" fill="#FBD197" width="30.777" height="6.547"/>
		<path fill="#FBD197" d="M92.039,100.974c0.926,6.775,7.449,12.03,15.373,12.03c7.923,0,14.446-5.255,15.372-12.03H92.039z"/>
		<g>
			<path fill="#C19259" d="M122.872,96.438c-3.86,4.919-9.329,8.001-15.404,8.001c-6.135,0-11.65-3.143-15.516-8.147
				c-0.012,0.271-0.034,0.539-0.035,0.812c3.663,5.959,9.262,9.782,15.551,9.782c6.223,0,11.771-3.741,15.436-9.592
				c0-0.021,0.002-0.04,0.002-0.061C122.905,96.965,122.881,96.703,122.872,96.438z"/>
		</g>
		<g>
			<g>
				<ellipse fill="#FBD197" cx="107.412" cy="77.319" rx="21.342" ry="27.528"/>
			</g>
		</g>
		<path fill="#1D1D1B" d="M87.973,87.311l0.398-19.031c0,0,3.98-2.719,7.165-3.625c3.185-0.906,7.165-1.812,9.155-0.906
			c1.99,0.906,6.368,1.359,6.368,1.359h4.378l3.98-0.453c0,0,3.185-1.359,4.777-2.719c0,0-0.797,3.172,0.398,5.438
			c1.193,2.266,1.989,4.531,1.989,4.531v15.407h1.99l0.796-14.047c0,0,3.98-6.796,3.583-11.781
			c-0.398-4.984-1.194-12.688-3.583-16.313s-5.971-6.796-5.971-6.796s-5.174,4.531-12.339,6.343s-15.523,1.812-19.106,4.985
			c-3.583,3.171-8.756,7.702-8.756,12.233c0,4.533,0,8.61,0.796,13.142c0.797,4.531,1.991,12.234,1.991,12.234H87.973z"/>
	</g>
	<g opacity="0.1">
		<path fill="#1D1D1B" d="M122.774,101.029c0.001-0.013,0.004-0.023,0.005-0.034h0.021v-3.553c0.034-0.051,0.072-0.096,0.104-0.147
			c0-0.021,0.002-0.04,0.002-0.061c0-0.052-0.004-0.104-0.007-0.154c3.621-4.441,5.855-10.421,5.855-17.019
			c0-13.688-9.556-24.785-21.343-24.785c-0.188,0-0.373,0.027-0.561,0.033v98.728c0.182,0.006,0.357,0.012,0.538,0.018v0.003
			c0.009-0.002,0.016-0.002,0.022-0.002c0.008,0,0.016,0,0.022,0.002v-0.003c21.574-0.652,40.2-2.185,48.572-18.034
			C164.306,120.311,145.476,106.042,122.774,101.029z"/>
	</g>
	<g>
		<defs>
			<path id="SVGID_1_" d="M79.661,70.59c0-15.852,7.669-29.321,18.356-34.267H33.021v92.31h70.39v-22.074
				C90.006,104.203,79.661,89.003,79.661,70.59z"/>
		</defs>
		<clipPath id="SVGID_2_">
			<use xlink:href="#SVGID_1_"  overflow="visible"/>
		</clipPath>
		<g clip-path="url(#SVGID_2_)">
			<path fill="#FFFFFF" d="M101.958,92.982c-6.843-6.375-19.399-10.749-31.499-11.033v-0.001c-0.005,0-0.011,0.001-0.016,0.001
				s-0.011-0.001-0.016-0.001v0.001C49.792,82.434,27.8,94.805,35.156,108.731c3.577,6.771,9.743,9.93,17.394,11.491
				C58.001,106.506,79.459,95.744,101.958,92.982z"/>
			<rect x="59.187" y="78.153" fill="#FBD197" width="20.681" height="4.398"/>
			<path fill="#FBD197" d="M59.198,82.536c0.623,4.554,5.005,8.084,10.329,8.084s9.708-3.53,10.33-8.084H59.198z"/>
			<g>
				<path fill="#C19259" d="M79.916,79.49c-2.593,3.305-6.268,5.376-10.351,5.376c-4.122,0-7.828-2.111-10.425-5.475
					c-0.008,0.183-0.023,0.363-0.023,0.547c2.46,4.003,6.223,6.572,10.448,6.572c4.182,0,7.911-2.513,10.373-6.445
					c0-0.013,0.001-0.027,0.001-0.041C79.938,79.845,79.922,79.668,79.916,79.49z"/>
			</g>
			<g>
				<ellipse fill="#FBD197" cx="69.527" cy="68.485" rx="14.341" ry="16.655"/>
			</g>
			<path fill="#683D17" d="M82.338,74.084C81.883,49.844,70.611,67.678,58.807,57.6c-0.981,5.592-1.945,10.608-1.551,16.484
				C39.866,31.288,97.198,43.959,82.338,74.084z"/>
		</g>
	</g>
</g>
</svg>
