<?xml version="1.0" encoding="utf-8"?>
<!-- Generator: Adobe Illustrator 15.1.0, SVG Export Plug-In . SVG Version: 6.00 Build 0)  -->
<!DOCTYPE svg PUBLIC "-//W3C//DTD SVG 1.1//EN" "http://www.w3.org/Graphics/SVG/1.1/DTD/svg11.dtd">
<svg version="1.1" xmlns="http://www.w3.org/2000/svg" xmlns:xlink="http://www.w3.org/1999/xlink" x="0px" y="0px" width="272px"
	 height="120px" viewBox="0 0 272 120" enable-background="new 0 0 272 120" xml:space="preserve">
<g id="BG">
</g>
<g id="Logo_1_">
	<text id="Text" transform="matrix(1 0 0 1 9.4336 114.5791)" fill="#FFFFFF" font-family="'Lato-Bold'" font-size="49.5811">underscore</text>
	<path id="Icon" fill="#FFFFFF" d="M171.926,19.707c-0.502-6.639-6.944-12.618-14.03-13.06c-15.092-0.859-30.183-0.859-45.274,0
		c-7.087,0.442-13.529,6.421-14.032,13.061c-0.909,13.124-0.909,26.248,0,39.372c0.503,6.641,6.945,12.618,14.032,13.061
		c15.092,0.858,30.183,0.858,45.274,0c7.086-0.442,13.528-6.42,14.03-13.061C172.835,45.954,172.835,32.83,171.926,19.707z
		 M138.847,56.703h-24.771v-4.699h24.771V56.703z M155.635,56.186c-0.367,0.367-0.794,0.654-1.28,0.859
		c-0.488,0.204-1.002,0.308-1.541,0.308c-0.54,0-1.048-0.104-1.523-0.308c-0.476-0.205-0.896-0.492-1.264-0.859
		c-0.369-0.367-0.653-0.789-0.858-1.262c-0.206-0.478-0.309-0.986-0.309-1.527c0-0.539,0.103-1.053,0.309-1.539
		c0.205-0.486,0.489-0.913,0.858-1.28c0.756-0.758,1.687-1.135,2.787-1.135c0.539,0,1.053,0.098,1.541,0.293
		c0.486,0.194,0.913,0.475,1.28,0.842c0.756,0.757,1.134,1.696,1.134,2.819C156.769,54.5,156.391,55.431,155.635,56.186z"/>
</g>
</svg>
