<?xml version="1.0" encoding="utf-8"?>
<!-- Generator: Adobe Illustrator 15.1.0, SVG Export Plug-In . SVG Version: 6.00 Build 0)  -->
<!DOCTYPE svg PUBLIC "-//W3C//DTD SVG 1.1//EN" "http://www.w3.org/Graphics/SVG/1.1/DTD/svg11.dtd">
<svg version="1.1" id="Layer_1" xmlns="http://www.w3.org/2000/svg" xmlns:xlink="http://www.w3.org/1999/xlink" x="0px" y="0px"
	 width="440px" height="300px" viewBox="0 0 440 300" enable-background="new 0 0 440 300" xml:space="preserve">
<path fill="#FCCC91" d="M278.386,205.394v4.959H263.21v-4.959h-10.492v47.951c0,2.959,2.397,5.355,5.355,5.355h24.622
	c2.957,0,5.354-2.396,5.354-5.355v-47.951H278.386z"/>
<path fill="#F07F5E" d="M278.348,124.426H262.42c-3.196,0-5.786-2.592-5.786-5.787l0,0c0-3.196,2.59-5.786,5.786-5.786h15.928
	c3.196,0,5.787,2.59,5.787,5.786l0,0C284.135,121.834,281.544,124.426,278.348,124.426z"/>
<path fill="#FCCC91" d="M278.287,151.777v-5.579h9.763V124.28c0-2.957-2.397-5.355-5.354-5.355h-24.622
	c-2.958,0-5.355,2.398-5.355,5.355v21.919h10.692v5.579H278.287z"/>
<rect x="266.736" y="47.448" fill="#939598" width="4.208" height="54.124"/>
<rect x="263.513" y="100.706" fill="#939598" width="23.448" height="10.657"/>
<rect x="256.075" y="100.706" fill="#AFB1B1" width="23.448" height="10.657"/>
<g>
	<path fill="#FFFFFF" d="M409.207,80.363c-1.33,0-2.612,0.142-3.822,0.403c-1.966-1.81-5.048-2.978-8.514-2.978
		c-4.414,0-8.205,1.892-9.861,4.598c-1.329-0.37-2.772-0.574-4.284-0.574c-6.501,0-11.771,3.747-11.771,8.368
		s5.27,8.369,11.771,8.369c1.266,0,2.483-0.144,3.625-0.406c1.761,2.167,5.052,3.625,8.822,3.625c3.717,0,6.965-1.415,8.745-3.526
		c1.618,0.507,3.406,0.791,5.289,0.791c7.251,0,13.129-4.18,13.129-9.335C422.336,84.542,416.458,80.363,409.207,80.363z"/>
	<path fill="#F7EBD6" d="M408.528,82.134c-1.329,0-2.612,0.142-3.823,0.403c-1.966-1.811-5.046-2.978-8.513-2.978
		c-4.415,0-8.205,1.892-9.861,4.598c-1.328-0.37-2.772-0.575-4.285-0.575c-6.501,0-11.771,3.747-11.771,8.369
		s5.27,8.369,11.771,8.369c1.266,0,2.483-0.145,3.626-0.406c1.761,2.166,5.051,3.625,8.823,3.625c3.715,0,6.965-1.415,8.743-3.528
		c1.618,0.507,3.407,0.792,5.29,0.792c7.25,0,13.128-4.18,13.128-9.335S415.778,82.134,408.528,82.134z"/>
</g>
<g>
	<path fill="#FFFFFF" d="M186.791,132.375c-0.92,0-1.809,0.093-2.647,0.262c-1.36-1.177-3.494-1.936-5.893-1.936
		c-3.057,0-5.682,1.23-6.827,2.988c-0.92-0.24-1.919-0.373-2.966-0.373c-4.501,0-8.149,2.436-8.149,5.439
		c0,3.004,3.647,5.439,8.149,5.439c0.876,0,1.719-0.094,2.509-0.264c1.22,1.408,3.498,2.356,6.109,2.356
		c2.571,0,4.822-0.918,6.053-2.292c1.121,0.329,2.359,0.514,3.663,0.514c5.02,0,9.089-2.717,9.089-6.067
		C195.88,135.092,191.811,132.375,186.791,132.375z"/>
	<path fill="#F7EBD6" d="M186.321,133.527c-0.921,0-1.809,0.092-2.646,0.262c-1.361-1.177-3.494-1.936-5.894-1.936
		c-3.056,0-5.68,1.23-6.827,2.989c-0.919-0.24-1.919-0.374-2.966-0.374c-4.5,0-8.148,2.435-8.148,5.439s3.648,5.439,8.148,5.439
		c0.876,0,1.72-0.094,2.511-0.264c1.219,1.408,3.497,2.356,6.108,2.356c2.572,0,4.821-0.92,6.054-2.292
		c1.12,0.331,2.358,0.515,3.662,0.515c5.019,0,9.089-2.716,9.089-6.067C195.41,136.243,191.34,133.527,186.321,133.527z"/>
</g>
<g>
	<path fill="#FFFFFF" d="M118.41,33.96c-1.168,0-2.295,0.117-3.357,0.332c-1.727-1.493-4.433-2.455-7.477-2.455
		c-3.877,0-7.208,1.56-8.661,3.792c-1.167-0.305-2.435-0.474-3.763-0.474c-5.71,0-10.338,3.088-10.338,6.899
		c0,3.811,4.628,6.9,10.338,6.9c1.111,0,2.181-0.118,3.184-0.335c1.546,1.786,4.437,2.99,7.75,2.99c3.262,0,6.116-1.168,7.679-2.909
		c1.422,0.418,2.993,0.653,4.646,0.653c6.368,0,11.529-3.446,11.529-7.697C129.939,37.406,124.777,33.96,118.41,33.96z"/>
	<path fill="#F7EBD6" d="M117.813,35.42c-1.168,0-2.295,0.116-3.358,0.332c-1.726-1.493-4.432-2.455-7.476-2.455
		c-3.877,0-7.207,1.56-8.662,3.791c-1.167-0.304-2.435-0.474-3.763-0.474c-5.709,0-10.337,3.09-10.337,6.9
		c0,3.812,4.628,6.9,10.337,6.9c1.111,0,2.181-0.118,3.185-0.335c1.546,1.786,4.436,2.989,7.749,2.989
		c3.263,0,6.116-1.167,7.679-2.908c1.422,0.419,2.993,0.652,4.646,0.652c6.367,0,11.529-3.445,11.529-7.696
		C129.343,38.866,124.181,35.42,117.813,35.42z"/>
</g>
<g>
	<path fill="#FFFFFF" d="M53.502,92.784c-0.793,0-1.558,0.079-2.279,0.225c-1.172-1.013-3.009-1.667-5.076-1.667
		c-2.632,0-4.892,1.059-5.879,2.573c-0.792-0.206-1.653-0.321-2.555-0.321c-3.876,0-7.018,2.098-7.018,4.684
		c0,2.587,3.141,4.684,7.018,4.684c0.754,0,1.481-0.08,2.162-0.227c1.049,1.212,3.011,2.028,5.26,2.028
		c2.215,0,4.152-0.791,5.213-1.974c0.965,0.285,2.031,0.443,3.154,0.443c4.322,0,7.827-2.339,7.827-5.225
		C61.33,95.124,57.825,92.784,53.502,92.784z"/>
	<path fill="#F7EBD6" d="M53.097,93.774c-0.792,0-1.557,0.08-2.279,0.226c-1.172-1.013-3.009-1.667-5.076-1.667
		c-2.632,0-4.893,1.06-5.879,2.574c-0.792-0.207-1.654-0.321-2.556-0.321c-3.875,0-7.018,2.098-7.018,4.684
		c0,2.588,3.143,4.685,7.018,4.685c0.755,0,1.481-0.081,2.162-0.228c1.05,1.212,3.012,2.029,5.26,2.029
		c2.216,0,4.153-0.792,5.214-1.975c0.965,0.284,2.031,0.443,3.153,0.443c4.323,0,7.828-2.339,7.828-5.224
		S57.42,93.774,53.097,93.774z"/>
</g>
<line fill="#3D9680" x1="363.144" y1="51.456" x2="369.882" y2="58.818"/>
<polygon fill="#3D9680" points="369.882,48.368 369.882,41.004 363.144,41.004 "/>
<path fill="#939598" d="M270.881,34.848l-8.597,9.392l-0.323,3.81H425.19v-3.524l-8.902-9.726
	C416.288,34.8,271.465,34.21,270.881,34.848z"/>
<path fill="#AFB1B1" d="M357.408,34.378c-41.689-0.116-86.648-0.112-86.983,0.229l-8.558,9.666l-0.353,3.924l95.915,0.041
	L357.408,34.378z"/>
<path fill="#939598" d="M372.992,5.417l-15.573,28.775v223.525h3.726l13.63-14.891v14.447v0.443h3.72V5.417H372.992z
	 M374.362,48.691v15.038l-13.766-15.038H374.362z M374.504,70.657L361.011,85.4V55.914L374.504,70.657z M374.504,112.645
	l-13.493,14.743V97.902L374.504,112.645z M374.504,154.181l-13.493,14.743v-29.486L374.504,154.181z M374.504,195.716
	l-13.493,14.743v-29.484L374.504,195.716z M361.011,251.544v-29.485l13.493,14.742L361.011,251.544z M374.774,230.775
	l-13.494-14.742l13.494-14.743V230.775z M374.774,189.69l-13.494-14.742l13.494-14.742V189.69z M374.774,148.155l-13.494-14.743
	l13.494-14.743V148.155z M374.774,106.619L361.28,91.876l13.494-14.742V106.619z M375.302,10.079v23.242h-14.091L375.302,10.079z"/>
<path fill="#F07F5E" d="M42.187,186.72H26.259c-3.196,0-5.787-2.592-5.787-5.787l0,0c0-3.195,2.591-5.785,5.787-5.785h15.928
	c3.196,0,5.787,2.59,5.787,5.785l0,0C47.974,184.128,45.383,186.72,42.187,186.72z"/>
<path fill="#FCCC91" d="M46.534,259.32H21.912c-2.958,0-5.354-2.397-5.354-5.354v-67.392c0-2.958,2.397-5.355,5.354-5.355h24.622
	c2.957,0,5.354,2.397,5.354,5.355v67.392C51.889,256.923,49.491,259.32,46.534,259.32z"/>
<path fill="#F07F5E" d="M86.204,259.32H61.582c-2.957,0-5.354-2.397-5.354-5.354V152.273c0-2.958,2.397-5.355,5.354-5.355h24.622
	c2.958,0,5.355,2.397,5.355,5.355v101.694C91.559,256.923,89.161,259.32,86.204,259.32z"/>
<rect x="21.361" y="186.179" fill="#82C1C4" width="10.538" height="10.537"/>
<rect x="36.238" y="186.179" fill="#AADAD1" width="10.537" height="10.537"/>
<rect x="21.361" y="201.055" fill="#82C1C4" width="10.538" height="10.537"/>
<rect x="36.238" y="201.055" fill="#AADAD1" width="10.537" height="10.537"/>
<rect x="21.361" y="216.552" fill="#82C1C4" width="10.538" height="10.537"/>
<rect x="36.238" y="216.552" fill="#AADAD1" width="10.537" height="10.537"/>
<rect x="21.361" y="231.428" fill="#82C1C4" width="10.538" height="10.537"/>
<rect x="36.238" y="231.428" fill="#AADAD1" width="10.537" height="10.537"/>
<rect x="258.452" y="126.673" fill="#82C1C4" width="10.537" height="10.537"/>
<rect x="273.328" y="126.673" fill="#AADAD1" width="10.538" height="10.537"/>
<rect x="257.522" y="230.808" fill="#82C1C4" width="10.537" height="10.537"/>
<rect x="272.398" y="230.808" fill="#AADAD1" width="10.537" height="10.537"/>
<rect x="257.522" y="213.452" fill="#82C1C4" width="10.537" height="10.538"/>
<rect x="272.398" y="213.452" fill="#AADAD1" width="10.537" height="10.538"/>
<polygon fill="#F07F5E" points="128.285,231.038 100.123,231.038 100.123,211.759 114.648,199.505 128.285,211.759 "/>
<path fill="#FCCC91" d="M126.495,259.32h-24.623c-2.958,0-5.354-2.397-5.354-5.354v-37.935c0-2.958,2.397-5.354,5.354-5.354h24.623
	c2.957,0,5.354,2.396,5.354,5.354v37.935C131.849,256.923,129.452,259.32,126.495,259.32z"/>
<rect x="101.322" y="216.552" fill="#82C1C4" width="10.537" height="10.537"/>
<rect x="116.198" y="216.552" fill="#AADAD1" width="10.537" height="10.537"/>
<rect x="101.322" y="231.428" fill="#82C1C4" width="10.537" height="10.537"/>
<rect x="116.198" y="231.428" fill="#AADAD1" width="10.537" height="10.537"/>
<rect x="61.651" y="153.327" fill="#82C1C4" width="10.538" height="10.537"/>
<rect x="76.527" y="153.327" fill="#AADAD1" width="10.537" height="10.537"/>
<rect x="61.651" y="168.203" fill="#82C1C4" width="10.538" height="10.537"/>
<rect x="76.527" y="168.203" fill="#AADAD1" width="10.537" height="10.537"/>
<rect x="61.651" y="183.699" fill="#82C1C4" width="10.538" height="10.537"/>
<rect x="76.527" y="183.699" fill="#AADAD1" width="10.537" height="10.537"/>
<rect x="61.651" y="198.575" fill="#82C1C4" width="10.538" height="10.538"/>
<rect x="76.527" y="198.575" fill="#AADAD1" width="10.537" height="10.538"/>
<rect x="61.651" y="214.072" fill="#82C1C4" width="10.538" height="10.536"/>
<rect x="76.527" y="214.072" fill="#AADAD1" width="10.537" height="10.536"/>
<rect x="61.651" y="229.567" fill="#82C1C4" width="10.538" height="10.538"/>
<rect x="76.527" y="229.567" fill="#AADAD1" width="10.537" height="10.538"/>
<path fill="#82C1C4" d="M167.404,259.32h-24.623c-2.958,0-5.354-2.397-5.354-5.354V123.688c0-2.958,2.397-5.355,5.354-5.355h24.623
	c2.957,0,5.354,2.398,5.354,5.355v130.279C172.758,256.923,170.361,259.32,167.404,259.32z"/>
<rect x="142.851" y="153.327" fill="#FFFFFF" width="10.538" height="10.537"/>
<rect x="157.727" y="153.327" fill="#AADAD1" width="10.538" height="10.537"/>
<rect x="142.851" y="168.203" fill="#FFFFFF" width="10.538" height="10.537"/>
<rect x="157.727" y="168.203" fill="#AADAD1" width="10.538" height="10.537"/>
<rect x="142.851" y="123.575" fill="#FFFFFF" width="10.538" height="10.537"/>
<rect x="157.727" y="123.575" fill="#AADAD1" width="10.538" height="10.537"/>
<rect x="142.851" y="138.451" fill="#FFFFFF" width="10.538" height="10.537"/>
<rect x="157.727" y="138.451" fill="#AADAD1" width="10.538" height="10.537"/>
<rect x="142.851" y="183.699" fill="#FFFFFF" width="10.538" height="10.537"/>
<rect x="157.727" y="183.699" fill="#AADAD1" width="10.538" height="10.537"/>
<rect x="142.851" y="198.575" fill="#FFFFFF" width="10.538" height="10.538"/>
<rect x="157.727" y="198.575" fill="#AADAD1" width="10.538" height="10.538"/>
<rect x="142.851" y="214.072" fill="#FFFFFF" width="10.538" height="10.536"/>
<rect x="157.727" y="214.072" fill="#AADAD1" width="10.538" height="10.536"/>
<rect x="142.851" y="229.567" fill="#FFFFFF" width="10.538" height="10.538"/>
<rect x="157.727" y="229.567" fill="#AADAD1" width="10.538" height="10.538"/>
<path fill="#F07F5E" d="M241.548,259.32h-58.166c-2.958,0-5.354-2.397-5.354-5.354v-56.509c0-2.957,2.397-5.354,5.354-5.354h58.166
	c2.957,0,5.355,2.396,5.355,5.354v56.509C246.903,256.923,244.505,259.32,241.548,259.32z"/>
<rect x="214.443" y="198.575" fill="#82C1C4" width="10.538" height="10.538"/>
<rect x="229.319" y="198.575" fill="#AADAD1" width="10.537" height="10.538"/>
<rect x="214.443" y="213.451" fill="#82C1C4" width="10.538" height="10.539"/>
<rect x="229.319" y="213.451" fill="#AADAD1" width="10.537" height="10.539"/>
<rect x="214.443" y="228.948" fill="#82C1C4" width="10.538" height="10.536"/>
<rect x="229.319" y="228.948" fill="#AADAD1" width="10.537" height="10.536"/>
<rect x="183.451" y="198.575" fill="#82C1C4" width="10.537" height="10.538"/>
<rect x="198.327" y="198.575" fill="#82C1C4" width="10.538" height="10.538"/>
<rect x="183.451" y="214.072" fill="#82C1C4" width="10.537" height="10.536"/>
<rect x="198.327" y="214.072" fill="#82C1C4" width="10.538" height="10.536"/>
<rect x="183.451" y="229.567" fill="#82C1C4" width="10.537" height="10.538"/>
<rect x="198.327" y="229.567" fill="#82C1C4" width="10.538" height="10.538"/>
<polygon fill="#939598" points="391.285,274.874 391.285,257.718 355.663,257.718 355.663,291.128 393.207,291.128 403.288,282.55 
	403.288,274.874 "/>
<polygon fill="#AFB1B1" points="355.663,274.874 355.663,291.128 336.18,291.128 330.559,282.55 330.559,274.874 "/>
<rect x="342.153" y="257.718" fill="#AFB1B1" width="13.51" height="17.539"/>
</svg>
