<?xml version="1.0" encoding="utf-8"?>
<!-- Generator: Adobe Illustrator 15.1.0, SVG Export Plug-In . SVG Version: 6.00 Build 0)  -->
<!DOCTYPE svg PUBLIC "-//W3C//DTD SVG 1.1//EN" "http://www.w3.org/Graphics/SVG/1.1/DTD/svg11.dtd">
<svg version="1.1" id="Layer_1" xmlns="http://www.w3.org/2000/svg" xmlns:xlink="http://www.w3.org/1999/xlink" x="0px" y="0px"
	 width="1600px" height="480px" viewBox="-200.953 0 1600 480" enable-background="new -200.953 0 1600 480" xml:space="preserve">
<g>
	<defs>
		<rect id="SVGID_1_" x="-200.953" y="-0.734" width="1600" height="480.735"/>
	</defs>
	<clipPath id="SVGID_2_">
		<use xlink:href="#SVGID_1_"  overflow="visible"/>
	</clipPath>
	<rect id="Spaaace" x="-200.953" y="0" clip-path="url(#SVGID_2_)" fill="#042742" width="1600" height="480"/>
	<g clip-path="url(#SVGID_2_)">
		<g>
			<g opacity="0.08">
				<g>
					<defs>
						<rect id="SVGID_3_" x="367.693" y="-345" width="780.401" height="782.039"/>
					</defs>
					<clipPath id="SVGID_4_">
						<use xlink:href="#SVGID_3_"  overflow="visible"/>
					</clipPath>
					<path clip-path="url(#SVGID_4_)" fill="#AADAD1" d="M423.868-155.992c111.334-184.865,351.139-244.281,535.614-132.714
						c184.479,111.569,243.771,351.875,132.438,536.74C980.582,432.898,740.78,492.316,556.304,380.747
						C371.827,269.177,312.534,28.871,423.868-155.992"/>
				</g>
			</g>
			<g id="Hero">
				<g opacity="0.1">
					<g>
						<defs>
							<rect id="SVGID_5_" x="449.224" y="-262.206" width="616.913" height="618.21"/>
						</defs>
						<clipPath id="SVGID_6_">
							<use xlink:href="#SVGID_5_"  overflow="visible"/>
						</clipPath>
						<path clip-path="url(#SVGID_6_)" fill="#AADAD1" d="M493.631-112.793c88.012-146.137,277.576-193.105,423.41-104.911
							c145.827,88.196,192.7,278.16,104.688,424.296C933.719,352.73,744.153,399.7,598.32,311.505
							C452.49,223.308,405.618,33.342,493.631-112.793"/>
					</g>
				</g>
				<g>
					<g opacity="0.2">
						<g>
							<defs>
								<rect id="SVGID_7_" x="524.328" y="-186.995" width="466.972" height="467.95"/>
							</defs>
							<clipPath id="SVGID_8_">
								<use xlink:href="#SVGID_7_"  overflow="visible"/>
							</clipPath>
							<path clip-path="url(#SVGID_8_)" fill="#AADAD1" d="M557.943-73.898c66.621-110.618,210.111-146.171,320.498-79.412
								c110.386,66.76,145.864,210.552,79.246,321.17c-66.621,110.618-210.111,146.172-320.498,79.412
								C526.803,180.511,491.323,36.719,557.943-73.898"/>
						</g>
					</g>
					<path fill="#82C1C4" d="M792.729,27.01c4.504-7.48,14.211-9.883,21.672-5.37c7.469,4.515,9.864,14.238,5.36,21.718
						c-4.504,7.479-14.206,9.886-21.674,5.371C790.628,44.216,788.225,34.49,792.729,27.01"/>
					<path fill="#AADAD1" d="M622.474-36.046c45.282-75.188,142.819-99.357,217.853-53.979
						c75.033,45.38,99.149,143.12,53.866,218.31c-45.284,75.191-142.819,99.358-217.854,53.979
						C601.307,136.886,577.189,39.145,622.474-36.046"/>
					<path fill="#82C1C4" d="M809.656,124.309c6.756-11.22,21.312-14.826,32.509-8.055c11.196,6.772,14.797,21.357,8.038,32.577
						c-6.757,11.223-21.312,14.828-32.508,8.056C806.496,150.116,802.898,135.53,809.656,124.309"/>
					<path fill="#82C1C4" d="M733.919,96.983c4.506-7.48,14.211-9.883,21.674-5.371c7.467,4.515,9.861,14.239,5.357,21.72
						c-4.505,7.479-14.208,9.884-21.672,5.368C731.815,114.188,729.414,104.463,733.919,96.983"/>
					<path fill="#82C1C4" d="M660.412,123.358c7.321-12.154,23.09-16.063,35.219-8.728c12.13,7.336,16.029,23.139,8.708,35.293
						c-7.319,12.155-23.089,16.062-35.22,8.728C656.99,151.314,653.091,135.514,660.412,123.358"/>
					<path fill="#82C1C4" d="M753.482,187.773c-7.312-4.752-17.091-2.668-21.836,4.662c-2.036,3.146-2.803,6.742-2.452,10.2
						c10.232,1.975,20.572,2.893,30.875,2.759C761.929,198.882,759.449,191.652,753.482,187.773"/>
					<path fill="#82C1C4" d="M892.646,100.591c4.217,2.551,8.739,4.135,13.323,4.854c9.709-23.643,13.174-48.677,11.003-72.998
						c-14.222-2.059-28.94,4.368-36.831,17.467C869.629,67.368,875.229,90.057,892.646,100.591"/>
					<g id="Planet">
						<g opacity="0.2">
							<g>
								<defs>
									<rect id="SVGID_9_" x="599.629" y="-112.921" width="317.401" height="239.089"/>
								</defs>
								<clipPath id="SVGID_10_">
									<use xlink:href="#SVGID_9_"  overflow="visible"/>
								</clipPath>
								<path clip-path="url(#SVGID_10_)" fill="#5FA3A2" d="M622.474-36.046c-29.886,49.621-29.536,109.059-4.285,156.792
									c-0.135-24.702,6.293-49.748,19.963-72.442c39.57-65.707,124.803-86.826,190.373-47.169
									c44.967,27.194,69.003,75.912,66.906,125.035c43.578-74.898,19.228-171.238-55.104-216.193
									C765.293-135.404,667.756-111.236,622.474-36.046"/>
							</g>
						</g>
					</g>
					<g>
						<defs>
							<rect id="SVGID_11_" x="0" y="-0.734" width="1198.095" height="480.735"/>
						</defs>
						<clipPath id="SVGID_12_">
							<use xlink:href="#SVGID_11_"  overflow="visible"/>
						</clipPath>
						<g id="Ship" clip-path="url(#SVGID_12_)">
							<path fill="#EF424F" d="M757.984,259.374v-0.271c0,0,0.084,0.045,0.236,0.131c0.153-0.086,0.239-0.131,0.239-0.131
								l-0.004,0.271c3.264,1.959,22.264,14.959,18.384,50.392c-2.323,21.18-2.997,23.674-2.997,23.674s-5.313,2.567-9.409,2.858
								c-3.851,0.271-5.962,1.114-6.199,1.213l-0.002,0.01c0,0-0.007-0.003-0.012-0.004c-0.003,0-0.013,0.004-0.013,0.004v-0.008
								c-0.236-0.101-2.349-0.942-6.199-1.215c-4.094-0.291-9.666-2.734-9.666-2.734s1.452,14.946-2.737-23.798
								C735.774,274.326,754.724,261.333,757.984,259.374"/>
							<polygon fill="#F69F37" points="771.403,343.555 758.228,403.814 758.045,343.298 							"/>
							<polygon fill="#F7B74A" points="745.052,343.556 758.228,403.815 758.407,343.297 							"/>
							<rect x="743.392" y="332.782" fill="#CF3743" width="32.645" height="11.359"/>
							<rect x="741.906" y="332.78" fill="#EF424F" width="8.831" height="11.361"/>
							<polygon fill="#BE5354" points="728.72,341.482 741.634,326.87 743.33,342.905 737.036,366.938 							"/>
							<polygon fill="#972A2B" points="787.453,341.482 774.538,326.87 772.842,342.905 779.135,366.938 							"/>
							<path fill="#CF3743" d="M751.007,335.582c-6.335-41.976,3.547-68.29,7.45-76.57c4.258,2.728,21.615,15.618,18.478,49.818
								c-1.286,14.007-3.021,23.95-3.021,23.95s-5.725,2.577-9.818,2.868c-3.85,0.271-5.961,1.113-6.197,1.212v0.011
								c0,0-0.01-0.004-0.013-0.006c-0.004,0.002-0.013,0.006-0.013,0.006v-0.011c-0.237-0.1-2.35-0.939-6.199-1.212
								C751.455,335.632,751.23,335.608,751.007,335.582"/>
							<path fill="#B54042" d="M771.213,273.6c-3.805,1.122-8.176,1.729-13.034,1.729c-4.825,0-9.158-0.596-12.948-1.705
								c4.849-9.249,10.996-13.559,12.753-14.615h0.474C760.215,260.066,766.365,264.366,771.213,273.6"/>
							<path fill="#972A2B" d="M758.456,259.011c0.654,0.397,1.997,1.233,3.46,2.469c2.737,2.371,6.347,6.266,9.357,12.121
								c-3.768,1.093-8.229,1.73-13.021,1.73c-1.786,0-3.68-0.098-5.354-0.264C754.839,267.453,757.039,262.032,758.456,259.011"/>
							<path fill="#27AAE1" d="M745.298,294.887c0,6.811,5.729,12.334,12.798,12.334c7.065,0,12.797-5.523,12.797-12.334
								c0-6.812-5.73-12.334-12.797-12.334C751.026,282.553,745.298,288.076,745.298,294.887"/>
							<path fill="#AADAD1" d="M747.147,294.887c0,5.824,4.901,10.549,10.948,10.549c6.046,0,10.944-4.726,10.944-10.549
								c0-5.826-4.898-10.551-10.944-10.551S747.147,289.062,747.147,294.887"/>
							<rect x="742.697" y="342.411" width="31.049" height="1.731"/>
						</g>
					</g>
				</g>
			</g>
		</g>
	</g>
</g>
</svg>
